<svg width="827" height="228" viewBox="0 0 827 228" fill="none" xmlns="http://www.w3.org/2000/svg">
<g filter="url(#filter0_d_471_234)">
<rect x="14" y="10" width="400" height="200" rx="16" fill="#F1F1F1"/>
<path d="M310.711 50.707L310.348 52.3477H307.688L307.008 55.582H309.914L309.504 57.2227H306.668L305.707 61.5586H303.844L304.781 57.2227H301.945L301.031 61.5586H299.168L300.082 57.2227H297.398L297.727 55.582H300.445L301.09 52.3477H298.23L298.57 50.707H301.43L302.367 46.1953H304.254L303.328 50.707H306.164L307.125 46.1953H308.977L308.039 50.707H310.711ZM305.836 52.3477H302.977L302.273 55.582H305.145L305.836 52.3477ZM323.548 48.5625H317.266V53.6133H323.055V55.9688H317.266V63H314.477V46.1953H323.548V48.5625ZM332.88 45.8203V63H330.162V49.1484C329.67 49.5 329.138 49.8008 328.568 50.0508C328.005 50.293 327.361 50.5078 326.634 50.6953V48.375C327.087 48.2266 327.525 48.0703 327.947 47.9062C328.369 47.7422 328.783 47.5586 329.189 47.3555C329.603 47.1523 330.017 46.9258 330.431 46.6758C330.853 46.4258 331.287 46.1406 331.732 45.8203H332.88ZM347.674 48.5625H341.393V53.6133H347.182V55.9688H341.393V63H338.604V46.1953H347.674V48.5625ZM357.007 45.8203V63H354.288V49.1484C353.796 49.5 353.265 49.8008 352.695 50.0508C352.132 50.293 351.487 50.5078 350.761 50.6953V48.375C351.214 48.2266 351.652 48.0703 352.073 47.9062C352.495 47.7422 352.909 47.5586 353.316 47.3555C353.73 47.1523 354.144 46.9258 354.558 46.6758C354.98 46.4258 355.413 46.1406 355.859 45.8203H357.007ZM371.801 48.5625H365.52V53.6133H371.309V55.9688H365.52V63H362.73V46.1953H371.801V48.5625ZM381.134 45.8203V63H378.415V49.1484C377.923 49.5 377.391 49.8008 376.821 50.0508C376.259 50.293 375.614 50.5078 374.887 50.6953V48.375C375.341 48.2266 375.778 48.0703 376.2 47.9062C376.622 47.7422 377.036 47.5586 377.442 47.3555C377.856 47.1523 378.27 46.9258 378.684 46.6758C379.106 46.4258 379.54 46.1406 379.985 45.8203H381.134Z" fill="black"/>
<rect x="414" y="10" width="240" height="200" rx="16" fill="#040404"/>
<path d="M547.711 50.707L547.348 52.3477H544.688L544.008 55.582H546.914L546.504 57.2227H543.668L542.707 61.5586H540.844L541.781 57.2227H538.945L538.031 61.5586H536.168L537.082 57.2227H534.398L534.727 55.582H537.445L538.09 52.3477H535.23L535.57 50.707H538.43L539.367 46.1953H541.254L540.328 50.707H543.164L544.125 46.1953H545.977L545.039 50.707H547.711ZM542.836 52.3477H539.977L539.273 55.582H542.145L542.836 52.3477ZM555.884 63.2812C554.134 63.2812 552.766 62.5664 551.782 61.1367C550.805 59.707 550.317 57.6406 550.317 54.9375C550.317 51.9688 550.829 49.7227 551.852 48.1992C552.876 46.6758 554.352 45.9141 556.282 45.9141C559.977 45.9141 561.825 48.7852 561.825 54.5273C561.825 57.3711 561.302 59.543 560.255 61.043C559.216 62.5352 557.759 63.2812 555.884 63.2812ZM556.153 48.082C554.114 48.082 553.095 50.3281 553.095 54.8203C553.095 59.0234 554.095 61.125 556.095 61.125C558.063 61.125 559.048 58.9883 559.048 54.7148C559.048 50.293 558.083 48.082 556.153 48.082ZM574.791 46.1953V57.0469H577.287V59.3086H574.791V63H572.154V59.3086H564.548V57.0234C565.236 56.25 565.939 55.4141 566.658 54.5156C567.384 53.6094 568.08 52.6875 568.744 51.75C569.416 50.8047 570.037 49.8594 570.607 48.9141C571.177 47.9688 571.658 47.0625 572.048 46.1953H574.791ZM572.154 57.0469V49.9922C571.302 51.5234 570.459 52.8594 569.623 54C568.795 55.1406 568.017 56.1562 567.291 57.0469H572.154ZM585.448 63.2812C583.698 63.2812 582.33 62.5664 581.346 61.1367C580.37 59.707 579.881 57.6406 579.881 54.9375C579.881 51.9688 580.393 49.7227 581.416 48.1992C582.44 46.6758 583.916 45.9141 585.846 45.9141C589.541 45.9141 591.389 48.7852 591.389 54.5273C591.389 57.3711 590.866 59.543 589.819 61.043C588.78 62.5352 587.323 63.2812 585.448 63.2812ZM585.717 48.082C583.678 48.082 582.659 50.3281 582.659 54.8203C582.659 59.0234 583.659 61.125 585.659 61.125C587.627 61.125 588.612 58.9883 588.612 54.7148C588.612 50.293 587.647 48.082 585.717 48.082ZM604.355 46.1953V57.0469H606.851V59.3086H604.355V63H601.718V59.3086H594.112V57.0234C594.8 56.25 595.503 55.4141 596.222 54.5156C596.948 53.6094 597.644 52.6875 598.308 51.75C598.98 50.8047 599.601 49.8594 600.171 48.9141C600.741 47.9688 601.222 47.0625 601.612 46.1953H604.355ZM601.718 57.0469V49.9922C600.866 51.5234 600.023 52.8594 599.187 54C598.359 55.1406 597.581 56.1562 596.855 57.0469H601.718ZM615.012 63.2812C613.262 63.2812 611.895 62.5664 610.91 61.1367C609.934 59.707 609.445 57.6406 609.445 54.9375C609.445 51.9688 609.957 49.7227 610.98 48.1992C612.004 46.6758 613.48 45.9141 615.41 45.9141C619.105 45.9141 620.953 48.7852 620.953 54.5273C620.953 57.3711 620.43 59.543 619.383 61.043C618.344 62.5352 616.887 63.2812 615.012 63.2812ZM615.281 48.082C613.242 48.082 612.223 50.3281 612.223 54.8203C612.223 59.0234 613.223 61.125 615.223 61.125C617.191 61.125 618.176 58.9883 618.176 54.7148C618.176 50.293 617.211 48.082 615.281 48.082ZM633.919 46.1953V57.0469H636.415V59.3086H633.919V63H631.282V59.3086H623.677V57.0234C624.364 56.25 625.067 55.4141 625.786 54.5156C626.512 53.6094 627.208 52.6875 627.872 51.75C628.544 50.8047 629.165 49.8594 629.735 48.9141C630.305 47.9688 630.786 47.0625 631.177 46.1953H633.919ZM631.282 57.0469V49.9922C630.43 51.5234 629.587 52.8594 628.751 54C627.923 55.1406 627.145 56.1562 626.419 57.0469H631.282Z" fill="white"/>
<rect x="654" y="10" width="159" height="200" rx="16" fill="url(#paint0_linear_471_234)"/>
<path d="M706.711 50.707L706.348 52.3477H703.688L703.008 55.582H705.914L705.504 57.2227H702.668L701.707 61.5586H699.844L700.781 57.2227H697.945L697.031 61.5586H695.168L696.082 57.2227H693.398L693.727 55.582H696.445L697.09 52.3477H694.23L694.57 50.707H697.43L698.367 46.1953H700.254L699.328 50.707H702.164L703.125 46.1953H704.977L704.039 50.707H706.711ZM701.836 52.3477H698.977L698.273 55.582H701.145L701.836 52.3477ZM720.884 57.5977C720.884 58.4414 720.743 59.2109 720.462 59.9062C720.188 60.6016 719.805 61.2031 719.313 61.7109C718.821 62.2109 718.235 62.6016 717.555 62.8828C716.884 63.1562 716.153 63.293 715.364 63.293C714.52 63.293 713.743 63.1289 713.032 62.8008C712.329 62.4727 711.72 61.9844 711.204 61.3359C710.696 60.6875 710.302 59.8828 710.02 58.9219C709.739 57.9531 709.598 56.832 709.598 55.5586C709.598 54.0039 709.782 52.625 710.149 51.4219C710.524 50.2188 711.036 49.2109 711.684 48.3984C712.333 47.5859 713.095 46.9688 713.97 46.5469C714.845 46.125 715.79 45.9141 716.805 45.9141C717.438 45.9141 718.012 45.957 718.528 46.043C719.052 46.1289 719.47 46.2461 719.782 46.3945V48.8438C719.384 48.6406 718.958 48.4688 718.505 48.3281C718.052 48.1875 717.532 48.1172 716.946 48.1172C716.29 48.1172 715.684 48.25 715.13 48.5156C714.575 48.7812 714.095 49.1719 713.688 49.6875C713.29 50.1953 712.973 50.8281 712.739 51.5859C712.512 52.3359 712.395 53.2031 712.387 54.1875H712.458C712.817 53.6328 713.302 53.1953 713.911 52.875C714.528 52.5547 715.251 52.3945 716.079 52.3945C716.813 52.3945 717.473 52.5156 718.059 52.7578C718.653 52.9922 719.157 53.3359 719.571 53.7891C719.993 54.2344 720.317 54.7812 720.544 55.4297C720.77 56.0703 720.884 56.793 720.884 57.5977ZM718.141 57.8203C718.141 57.3359 718.083 56.8945 717.966 56.4961C717.856 56.0977 717.684 55.7578 717.45 55.4766C717.223 55.1875 716.934 54.9648 716.583 54.8086C716.239 54.6523 715.833 54.5742 715.364 54.5742C714.895 54.5742 714.481 54.6602 714.122 54.832C713.77 54.9961 713.473 55.2148 713.231 55.4883C712.989 55.7617 712.805 56.0742 712.68 56.4258C712.563 56.7773 712.505 57.1367 712.505 57.5039C712.505 57.9023 712.559 58.3125 712.669 58.7344C712.786 59.1484 712.962 59.5273 713.196 59.8711C713.43 60.2148 713.727 60.5 714.087 60.7266C714.454 60.9453 714.887 61.0547 715.387 61.0547C715.833 61.0547 716.227 60.9727 716.571 60.8086C716.915 60.6445 717.2 60.418 717.427 60.1289C717.661 59.8398 717.837 59.5 717.954 59.1094C718.079 58.7109 718.141 58.2812 718.141 57.8203ZM735.056 47.5547C734.353 48.8438 733.689 50.1211 733.064 51.3867C732.439 52.6445 731.873 53.9102 731.365 55.1836C730.857 56.457 730.416 57.7422 730.041 59.0391C729.666 60.3281 729.377 61.6484 729.173 63H726.326C726.513 61.7969 726.779 60.5977 727.123 59.4023C727.474 58.1992 727.884 57 728.353 55.8047C728.822 54.6016 729.345 53.3945 729.923 52.1836C730.509 50.9727 731.13 49.75 731.787 48.5156H723.83V46.1953H735.056V47.5547ZM738.143 58.3125C738.143 57.8281 738.202 57.3594 738.319 56.9062C738.444 56.4531 738.627 56.0352 738.87 55.6523C739.112 55.2695 739.416 54.9258 739.784 54.6211C740.151 54.3164 740.58 54.0703 741.073 53.8828C740.346 53.4766 739.768 52.957 739.338 52.3242C738.909 51.6836 738.694 50.9766 738.694 50.2031C738.694 49.5859 738.819 49.0156 739.069 48.4922C739.327 47.9688 739.678 47.5156 740.123 47.1328C740.577 46.75 741.108 46.4531 741.717 46.2422C742.327 46.0234 742.991 45.9141 743.709 45.9141C744.436 45.9141 745.104 46.0234 745.713 46.2422C746.33 46.4609 746.862 46.7617 747.307 47.1445C747.76 47.5273 748.112 47.9805 748.362 48.5039C748.612 49.0273 748.737 49.5938 748.737 50.2031C748.737 50.9766 748.522 51.6836 748.092 52.3242C747.662 52.957 747.092 53.4766 746.381 53.8828C746.866 54.0703 747.291 54.3164 747.659 54.6211C748.034 54.918 748.346 55.2578 748.596 55.6406C748.846 56.0234 749.034 56.4414 749.159 56.8945C749.284 57.3477 749.346 57.8203 749.346 58.3125C749.346 59.0469 749.209 59.7188 748.936 60.3281C748.662 60.9375 748.28 61.4609 747.787 61.8984C747.295 62.3281 746.705 62.6641 746.018 62.9062C745.33 63.1484 744.573 63.2695 743.745 63.2695C742.924 63.2695 742.17 63.1484 741.483 62.9062C740.803 62.6641 740.213 62.3281 739.713 61.8984C739.221 61.4609 738.834 60.9375 738.553 60.3281C738.28 59.7188 738.143 59.0469 738.143 58.3125ZM740.791 58.0781C740.791 58.5547 740.862 58.9844 741.002 59.3672C741.143 59.75 741.342 60.0742 741.6 60.3398C741.858 60.6055 742.166 60.8086 742.526 60.9492C742.893 61.0898 743.299 61.1602 743.745 61.1602C744.174 61.1602 744.569 61.0898 744.928 60.9492C745.287 60.8008 745.596 60.5938 745.854 60.3281C746.12 60.0547 746.327 59.7305 746.475 59.3555C746.623 58.9727 746.698 58.5469 746.698 58.0781C746.698 57.6484 746.627 57.2461 746.487 56.8711C746.346 56.4883 746.147 56.1562 745.889 55.875C745.631 55.5938 745.319 55.3711 744.952 55.207C744.592 55.043 744.19 54.9609 743.745 54.9609C743.323 54.9609 742.928 55.0391 742.561 55.1953C742.202 55.3438 741.889 55.5586 741.623 55.8398C741.366 56.1133 741.162 56.4414 741.014 56.8242C740.866 57.207 740.791 57.625 740.791 58.0781ZM741.366 50.4844C741.366 50.8359 741.428 51.1641 741.553 51.4688C741.678 51.7656 741.846 52.0273 742.057 52.2539C742.268 52.4727 742.514 52.6445 742.795 52.7695C743.084 52.8945 743.393 52.957 743.721 52.957C744.049 52.957 744.354 52.8945 744.635 52.7695C744.924 52.6367 745.174 52.4609 745.385 52.2422C745.604 52.0156 745.776 51.7539 745.901 51.457C746.026 51.1523 746.088 50.8281 746.088 50.4844C746.088 50.1328 746.026 49.8047 745.901 49.5C745.784 49.1953 745.62 48.9336 745.409 48.7148C745.198 48.4961 744.948 48.3242 744.659 48.1992C744.37 48.0742 744.057 48.0117 743.721 48.0117C743.37 48.0117 743.049 48.0781 742.76 48.2109C742.471 48.3359 742.221 48.5117 742.01 48.7383C741.807 48.9648 741.647 49.2305 741.53 49.5352C741.42 49.832 741.366 50.1484 741.366 50.4844ZM763.12 63H753.687V46.1953H762.745V48.5625H756.476V53.3203H762.253V55.6758H756.476V60.6445H763.12V63ZM776.379 48.5625H770.098V53.6133H775.887V55.9688H770.098V63H767.309V46.1953H776.379V48.5625ZM784.985 63.2812C783.235 63.2812 781.868 62.5664 780.884 61.1367C779.907 59.707 779.419 57.6406 779.419 54.9375C779.419 51.9688 779.93 49.7227 780.954 48.1992C781.977 46.6758 783.454 45.9141 785.384 45.9141C789.079 45.9141 790.927 48.7852 790.927 54.5273C790.927 57.3711 790.403 59.543 789.356 61.043C788.317 62.5352 786.86 63.2812 784.985 63.2812ZM785.255 48.082C783.216 48.082 782.196 50.3281 782.196 54.8203C782.196 59.0234 783.196 61.125 785.196 61.125C787.165 61.125 788.149 58.9883 788.149 54.7148C788.149 50.293 787.184 48.082 785.255 48.082Z" fill="white"/>
</g>
<defs>
<filter id="filter0_d_471_234" x="0" y="0" width="827" height="228" filterUnits="userSpaceOnUse" color-interpolation-filters="sRGB">
<feFlood flood-opacity="0" result="BackgroundImageFix"/>
<feColorMatrix in="SourceAlpha" type="matrix" values="0 0 0 0 0 0 0 0 0 0 0 0 0 0 0 0 0 0 127 0" result="hardAlpha"/>
<feOffset dy="4"/>
<feGaussianBlur stdDeviation="7"/>
<feComposite in2="hardAlpha" operator="out"/>
<feColorMatrix type="matrix" values="0 0 0 0 0 0 0 0 0 0 0 0 0 0 0 0 0 0 0.14 0"/>
<feBlend mode="normal" in2="BackgroundImageFix" result="effect1_dropShadow_471_234"/>
<feBlend mode="normal" in="SourceGraphic" in2="effect1_dropShadow_471_234" result="shape"/>
</filter>
<linearGradient id="paint0_linear_471_234" x1="733.705" y1="10" x2="871.363" y2="145.114" gradientUnits="userSpaceOnUse">
<stop stop-color="#2F7DF2"/>
<stop offset="1" stop-color="#655CDF"/>
</linearGradient>
</defs>
</svg>
