<svg xmlns="http://www.w3.org/2000/svg" viewBox="0 0 171.25 63.09"><defs><style>.cls-1{fill:#0808a3;}.cls-2{fill:#050545;}.cls-3{fill:#0833ff;}.cls-4{fill:#089eff;}.cls-5{fill:#70c952;}</style></defs><title>bgAsset 2</title><g id="Layer_2" data-name="Layer 2"><g id="Layer_1-2" data-name="Layer 1"><path class="cls-1" d="M97.89,21.56a10.19,10.19,0,0,0,1-4.46,9.87,9.87,0,0,0-3-7.24,10.25,10.25,0,0,0-14.51,0,9.87,9.87,0,0,0-3,7.24,9.89,9.89,0,0,0,3,7.27,9.91,9.91,0,0,0,7.27,3,10.23,10.23,0,0,0,4.47-1l-7.32-7.32,4.85-4.81Zm.19,9.86a17.26,17.26,0,0,1-21.59-2.19,16.52,16.52,0,0,1-5-12.13A16.47,16.47,0,0,1,76.49,5,17.13,17.13,0,0,1,100.7,5a16.47,16.47,0,0,1,5,12.09,16.54,16.54,0,0,1-2.81,9.47l4.18,4.18-4.85,4.81Z"></path><polygon class="cls-1" points="109.74 33.26 121.52 17.14 109.7 0.98 118.19 0.98 125.78 11.35 133.37 0.98 141.82 0.98 130.01 17.14 141.78 33.26 133.33 33.26 125.78 22.93 118.19 33.26 109.74 33.26"></polygon><path class="cls-1" d="M153.64,7.82V19.56h4.89a5.87,5.87,0,0,0,5.87-5.87,5.89,5.89,0,0,0-5.87-5.87Zm0,18.59v6.85h-6.85V1h11.74a12.26,12.26,0,0,1,9,3.72,12.22,12.22,0,0,1,3.72,9,12.24,12.24,0,0,1-3.72,9,12.26,12.26,0,0,1-9,3.72Z"></path><polygon class="cls-2" points="60.38 53.23 46.4 39.25 57.23 39.25 57.23 30.27 39.26 30.27 30.26 30.27 30.26 39.25 30.26 57.23 39.26 57.23 39.26 47.89 52.48 61.12 60.38 53.23"></polygon><path class="cls-3" d="M0,26.67H9.89A18.58,18.58,0,0,1,26.67,9.59V0A28,28,0,0,0,0,26.67"></path><path class="cls-4" d="M30.26,0V9.59A19.14,19.14,0,0,1,47.34,26.67h9.59A28,28,0,0,0,30.26,0"></path><path class="cls-1" d="M9.59,30.26H0c.6,14.39,12.28,26.37,26.67,27V47.34A19.14,19.14,0,0,1,9.59,30.26"></path><polygon class="cls-5" points="82.86 43.43 85.67 43.43 85.67 58.9 82.86 58.9 82.86 52.05 76.14 52.05 76.14 58.9 73.33 58.9 73.33 43.43 76.14 43.43 76.14 49.61 82.86 49.61 82.86 43.43"></polygon><path class="cls-5" d="M92,58.89h-2.7V47.23H92Zm.29-15.08A1.55,1.55,0,0,1,91.76,45a1.78,1.78,0,0,1-2.34,0,1.75,1.75,0,0,1,0-2.43,1.75,1.75,0,0,1,2.34,0,1.54,1.54,0,0,1,.49,1.22"></path><path class="cls-5" d="M97.51,52.76a3.57,3.57,0,0,0,.75,2.51,2.53,2.53,0,0,0,1.93.79,4,4,0,0,0,1.22-.18,3.45,3.45,0,0,0,.92-.42V49.41l-.71-.12a7.85,7.85,0,0,0-1.07-.06,2.74,2.74,0,0,0-2.25,1,3.92,3.92,0,0,0-.79,2.56m7.52,5a5.32,5.32,0,0,1-1.41,4.09,6.29,6.29,0,0,1-4.34,1.29,12,12,0,0,1-2.09-.18,11,11,0,0,1-1.84-.47l.49-2.3a8.07,8.07,0,0,0,1.57.47,9.61,9.61,0,0,0,1.91.18,3.25,3.25,0,0,0,2.32-.67,2.63,2.63,0,0,0,.69-2v-.45a6.66,6.66,0,0,1-1.06.4,4.91,4.91,0,0,1-1.5.2,5.74,5.74,0,0,1-2-.35,4.33,4.33,0,0,1-1.59-1,4.7,4.7,0,0,1-1-1.73,7,7,0,0,1-.37-2.4,6.76,6.76,0,0,1,.39-2.34,4.9,4.9,0,0,1,1.14-1.83,5.19,5.19,0,0,1,1.81-1.19,6.68,6.68,0,0,1,2.44-.42,15.44,15.44,0,0,1,2.5.2c.78.14,1.45.28,2,.43Z"></path><path class="cls-5" d="M108.47,58.9V42l2.7-.45v5.78a8.62,8.62,0,0,1,1-.27,6.62,6.62,0,0,1,1.17-.11,6,6,0,0,1,2.33.39,3.7,3.7,0,0,1,1.48,1.09,4.41,4.41,0,0,1,.8,1.69,9.75,9.75,0,0,1,.23,2.19V58.9h-2.7V52.76a9.16,9.16,0,0,0-.12-1.6,3,3,0,0,0-.4-1.07,1.7,1.7,0,0,0-.75-.6,3.23,3.23,0,0,0-1.16-.19,6,6,0,0,0-1.1.11c-.37.08-.64.14-.82.2V58.9Z"></path><path class="cls-5" d="M128.64,51.91a3.4,3.4,0,0,0-.16-1.06A2.57,2.57,0,0,0,128,50a2.33,2.33,0,0,0-.74-.58,2.38,2.38,0,0,0-1-.21,2.47,2.47,0,0,0-1.09.23,2.42,2.42,0,0,0-.79.62,2.7,2.7,0,0,0-.51.87,4.41,4.41,0,0,0-.24,1Zm-7.83,1.21a7.41,7.41,0,0,1,.45-2.7,5.75,5.75,0,0,1,1.22-1.93,5,5,0,0,1,1.74-1.16,5.4,5.4,0,0,1,2-.39A4.79,4.79,0,0,1,130,48.43a6.48,6.48,0,0,1,1.35,4.46c0,.15,0,.32,0,.51s0,.35,0,.5H123.6a3,3,0,0,0,1,2.17,3.74,3.74,0,0,0,2.55.77,8.31,8.31,0,0,0,1.8-.18,6.24,6.24,0,0,0,1.28-.38l.36,2.21a3.52,3.52,0,0,1-.61.24c-.26.08-.56.15-.9.22s-.69.12-1.08.17a11.5,11.5,0,0,1-1.18.07,7.26,7.26,0,0,1-2.68-.46,5,5,0,0,1-1.87-1.27,5.38,5.38,0,0,1-1.1-1.92,8.13,8.13,0,0,1-.35-2.42"></path><path class="cls-5" d="M140.84,49.66a8.92,8.92,0,0,0-.92-.24,7.09,7.09,0,0,0-1.38-.12,5.32,5.32,0,0,0-.94.09,5,5,0,0,0-.71.16V58.9h-2.7V47.78a15.48,15.48,0,0,1,2-.54,12.17,12.17,0,0,1,2.6-.26l.62,0,.71.09.7.14.53.14Z"></path><polygon class="cls-5" points="148.52 58.9 148.52 43.43 158.45 43.43 158.45 45.82 151.33 45.82 151.33 49.64 157.66 49.64 157.66 51.98 151.33 51.98 151.33 56.51 158.98 56.51 158.98 58.9 148.52 58.9"></polygon><path class="cls-5" d="M163.24,53a4.27,4.27,0,0,0,.85,2.8,2.91,2.91,0,0,0,2.34,1c.43,0,.8,0,1.11-.05a7.11,7.11,0,0,0,.75-.13V50a5,5,0,0,0-.95-.46,3.79,3.79,0,0,0-1.26-.21,2.43,2.43,0,0,0-2.16,1,4.78,4.78,0,0,0-.68,2.72M171,58.54a15.69,15.69,0,0,1-2,.44,15.16,15.16,0,0,1-2.56.21,6.89,6.89,0,0,1-2.48-.43,5.26,5.26,0,0,1-1.86-1.21,5.35,5.35,0,0,1-1.18-1.92,7.24,7.24,0,0,1-.41-2.54,8.61,8.61,0,0,1,.34-2.51,5.48,5.48,0,0,1,1-1.93,4.51,4.51,0,0,1,1.63-1.23,5.27,5.27,0,0,1,2.2-.44,5.19,5.19,0,0,1,1.5.2,7,7,0,0,1,1.12.45V42l2.69-.45Z"></path></g></g></svg>