<svg xmlns="http://www.w3.org/2000/svg" viewBox="0 0 170.33 63.1"><defs><style>.cls-1{fill:#0707a4;}.cls-2,.cls-5{fill:#f4ba00;}.cls-3{fill:#0734ff;}.cls-4{fill:#079dff;}.cls-5{font-size:23.79px;font-family:Ubuntu-Medium, Ubuntu;font-weight:500;}.cls-6{letter-spacing:-0.02em;}</style></defs><title>bgAsset 6</title><g id="Layer_2" data-name="Layer 2"><g id="Layer_1-2" data-name="Layer 1"><path class="cls-1" d="M97.56,31.25a17.16,17.16,0,0,1-21.48-2.18A16.43,16.43,0,0,1,71.1,17a16.39,16.39,0,0,1,5-12,17.06,17.06,0,0,1,24.09,0,16.39,16.39,0,0,1,5,12,16.35,16.35,0,0,1-2.81,9.41l4.17,4.17-4.83,4.78Zm-.2-9.81a10.06,10.06,0,0,0,1-4.43,9.8,9.8,0,0,0-3-7.2,10.19,10.19,0,0,0-14.44,0,9.79,9.79,0,0,0-3,7.2,9.83,9.83,0,0,0,3,7.23,9.86,9.86,0,0,0,7.24,3,10.1,10.1,0,0,0,4.44-1L85.3,19l4.83-4.79Z"/><polygon class="cls-1" points="109.16 33.08 120.87 17.05 109.12 0.97 117.56 0.97 125.11 11.29 132.66 0.97 141.06 0.97 129.31 17.05 141.03 33.08 132.62 33.08 125.11 22.8 117.56 33.08 109.16 33.08"/><path class="cls-1" d="M152.82,26.27v6.81H146V1h11.67a12.21,12.21,0,0,1,8.95,3.7,12.18,12.18,0,0,1,3.7,9,12.17,12.17,0,0,1-3.7,9,12.17,12.17,0,0,1-8.95,3.7Zm0-18.49V19.46h4.86a5.84,5.84,0,0,0,5.84-5.84,5.61,5.61,0,0,0-1.71-4.12,5.62,5.62,0,0,0-4.13-1.72Z"/><polygon class="cls-2" points="60.05 52.94 46.16 39.04 56.92 39.04 56.92 30.1 39.05 30.1 30.1 30.1 30.1 39.04 30.1 56.92 39.05 56.92 39.05 47.64 52.2 60.79 60.05 52.94"/><path class="cls-3" d="M0,26.53H9.84a18.47,18.47,0,0,1,16.69-17V0A27.84,27.84,0,0,0,0,26.53"/><path class="cls-4" d="M30.1,0V9.54a19,19,0,0,1,17,17h9.54A27.84,27.84,0,0,0,30.1,0"/><path class="cls-1" d="M9.54,30.1H0C.6,44.41,12.22,56.33,26.53,56.93V47.09a19,19,0,0,1-17-17"/><text class="cls-5" transform="translate(71.22 58.23)">acade<tspan class="cls-6" x="64.39" y="0">m</tspan><tspan x="84.59" y="0">y</tspan></text></g></g></svg>