<svg xmlns="http://www.w3.org/2000/svg" viewBox="0 0 200.43 61.12"><defs><style>.cls-1{fill:#0808a3;}.cls-2{fill:#050545;}.cls-3{fill:#0833ff;}.cls-4{fill:#089eff;}.cls-5{fill:#c9261a;}</style></defs><title>bgAsset 1</title><g id="Layer_2" data-name="Layer 2"><g id="Layer_1-2" data-name="Layer 1"><path class="cls-1" d="M97.89,21.56a10.19,10.19,0,0,0,1-4.46,9.87,9.87,0,0,0-3-7.24,10.25,10.25,0,0,0-14.51,0,9.87,9.87,0,0,0-3,7.24,9.89,9.89,0,0,0,3,7.27,9.91,9.91,0,0,0,7.27,3,10.23,10.23,0,0,0,4.47-1l-7.32-7.32,4.85-4.81Zm.19,9.86a17.26,17.26,0,0,1-21.59-2.19,16.52,16.52,0,0,1-5-12.13A16.47,16.47,0,0,1,76.49,5,17.13,17.13,0,0,1,100.7,5a16.47,16.47,0,0,1,5,12.09,16.54,16.54,0,0,1-2.81,9.47l4.18,4.18-4.85,4.81Z"></path><polygon class="cls-1" points="109.74 33.26 121.52 17.14 109.7 0.98 118.19 0.98 125.78 11.35 133.37 0.98 141.82 0.98 130.01 17.14 141.78 33.26 133.34 33.26 125.78 22.93 118.19 33.26 109.74 33.26"></polygon><path class="cls-1" d="M153.64,7.82V19.56h4.89a5.87,5.87,0,0,0,5.87-5.87,5.89,5.89,0,0,0-5.87-5.87Zm0,18.59v6.85h-6.85V1h11.74a12.26,12.26,0,0,1,9,3.72,12.22,12.22,0,0,1,3.72,9,12.24,12.24,0,0,1-3.72,9,12.26,12.26,0,0,1-9,3.72Z"></path><polygon class="cls-2" points="60.38 53.23 46.4 39.25 57.23 39.25 57.23 30.27 39.26 30.27 30.26 30.27 30.26 39.25 30.26 57.23 39.26 57.23 39.26 47.89 52.48 61.12 60.38 53.23"></polygon><path class="cls-3" d="M0,26.67H9.89A18.58,18.58,0,0,1,26.67,9.59V0A28,28,0,0,0,0,26.67"></path><path class="cls-4" d="M30.26,0V9.59A19.14,19.14,0,0,1,47.34,26.67h9.59A28,28,0,0,0,30.26,0"></path><path class="cls-1" d="M9.59,30.26H0c.6,14.39,12.28,26.37,26.67,27V47.34A19.14,19.14,0,0,1,9.59,30.26"></path><polygon class="cls-5" points="73.33 58.9 73.33 43.43 83.1 43.43 83.1 45.82 76.14 45.82 76.14 49.77 82.32 49.77 82.32 52.16 76.14 52.16 76.14 58.9 73.33 58.9"></polygon><path class="cls-5" d="M93,53.05a4.56,4.56,0,0,0-.75-2.76,2.66,2.66,0,0,0-4.17,0,4.56,4.56,0,0,0-.75,2.76,4.66,4.66,0,0,0,.75,2.79,2.64,2.64,0,0,0,4.17,0A4.66,4.66,0,0,0,93,53.05m2.77,0a7.48,7.48,0,0,1-.41,2.52,5.4,5.4,0,0,1-1.13,1.94,5.12,5.12,0,0,1-1.78,1.25,5.66,5.66,0,0,1-2.28.45,5.59,5.59,0,0,1-2.28-.45,5.14,5.14,0,0,1-1.76-1.25A5.58,5.58,0,0,1,85,55.57a7.24,7.24,0,0,1-.41-2.52A7.15,7.15,0,0,1,85,50.54a5.59,5.59,0,0,1,1.16-1.93,5.11,5.11,0,0,1,1.77-1.24,6.15,6.15,0,0,1,4.52,0,4.93,4.93,0,0,1,1.77,1.24,5.73,5.73,0,0,1,1.15,1.93,7.14,7.14,0,0,1,.42,2.51"></path><path class="cls-5" d="M105.21,49.66a8.92,8.92,0,0,0-.92-.24,7,7,0,0,0-1.38-.12,5.32,5.32,0,0,0-.94.09,5,5,0,0,0-.71.16V58.9h-2.7V47.78a15.48,15.48,0,0,1,2-.54,12.17,12.17,0,0,1,2.6-.26l.62,0,.71.09.7.14.53.14Z"></path><path class="cls-5" d="M115.65,51.93v4.71l1,.07,1,0a11.68,11.68,0,0,0,1.62-.11,3.91,3.91,0,0,0,1.29-.39,2.29,2.29,0,0,0,.87-.75,2,2,0,0,0,.33-1.2,1.89,1.89,0,0,0-1-1.83,5.73,5.73,0,0,0-2.66-.52Zm0-2.2h2a5.78,5.78,0,0,0,2.52-.46,1.68,1.68,0,0,0,.92-1.64,1.64,1.64,0,0,0-1-1.59,5.64,5.64,0,0,0-2.47-.46c-.43,0-.81,0-1.15,0s-.62,0-.86.06Zm1.9,9.34c-.82,0-1.64,0-2.48-.07a11.54,11.54,0,0,1-2.18-.33v-15c.33-.06.67-.12,1-.17s.75-.09,1.13-.12.77-.06,1.15-.07l1.09,0a15.33,15.33,0,0,1,2.61.21,6.53,6.53,0,0,1,2.08.7,3.58,3.58,0,0,1,1.37,1.3,3.68,3.68,0,0,1,.5,2,3.3,3.3,0,0,1-.53,1.88,3.82,3.82,0,0,1-1.46,1.25A4,4,0,0,1,124,52a3.8,3.8,0,0,1,.67,2.32,4.06,4.06,0,0,1-1.74,3.58,9.47,9.47,0,0,1-5.33,1.19"></path><path class="cls-5" d="M137,58.54c-.52.13-1.19.27-2,.41a16.5,16.5,0,0,1-2.74.21,6,6,0,0,1-2.35-.4,3.8,3.8,0,0,1-1.52-1.11,4.53,4.53,0,0,1-.82-1.71,9.27,9.27,0,0,1-.24-2.18V47.23H130v6.11a5,5,0,0,0,.54,2.68,2.16,2.16,0,0,0,1.91.8c.33,0,.67,0,1,0a4.57,4.57,0,0,0,.81-.12V47.23H137Z"></path><path class="cls-5" d="M143.34,57a3.54,3.54,0,0,0,1.56-.25.91.91,0,0,0,.49-.88,1.13,1.13,0,0,0-.52-1,7.56,7.56,0,0,0-1.73-.83,14.44,14.44,0,0,1-1.35-.57,4.54,4.54,0,0,1-1.06-.7,2.84,2.84,0,0,1-.7-1,3.4,3.4,0,0,1-.26-1.4A3.06,3.06,0,0,1,141,47.86a5.14,5.14,0,0,1,3.22-.92,9.58,9.58,0,0,1,2,.19,10.29,10.29,0,0,1,1.41.36l-.49,2.19a6.57,6.57,0,0,0-2.75-.53,2.87,2.87,0,0,0-1.34.27.93.93,0,0,0-.51.86,1.21,1.21,0,0,0,.1.52,1.1,1.1,0,0,0,.35.41,3.27,3.27,0,0,0,.64.38c.27.12.6.25,1,.39a15,15,0,0,1,1.63.7,4.36,4.36,0,0,1,1.11.78,2.57,2.57,0,0,1,.63,1,3.76,3.76,0,0,1,.2,1.33,2.91,2.91,0,0,1-1.23,2.54,6.21,6.21,0,0,1-3.54.86,9.75,9.75,0,0,1-2.48-.26c-.62-.17-1.06-.31-1.31-.41l.47-2.26a11.43,11.43,0,0,0,1.43.47,7.43,7.43,0,0,0,1.91.22"></path><path class="cls-5" d="M153.34,58.89h-2.7V47.23h2.7Zm.29-15.08a1.58,1.58,0,0,1-.49,1.21,1.67,1.67,0,0,1-1.16.44,1.7,1.7,0,0,1-1.19-.44,1.75,1.75,0,0,1,0-2.43,1.71,1.71,0,0,1,1.19-.45,1.68,1.68,0,0,1,1.16.45,1.57,1.57,0,0,1,.49,1.22"></path><path class="cls-5" d="M156.77,47.61a19.17,19.17,0,0,1,2-.43,18.11,18.11,0,0,1,2.77-.2,6.39,6.39,0,0,1,2.39.39,3.8,3.8,0,0,1,1.53,1.09,4.39,4.39,0,0,1,.8,1.7,9.29,9.29,0,0,1,.23,2.18V58.9h-2.7V52.76a9.08,9.08,0,0,0-.12-1.6,3,3,0,0,0-.4-1.07,1.68,1.68,0,0,0-.76-.6,3.12,3.12,0,0,0-1.17-.19,8,8,0,0,0-1.07.07l-.83.11V58.9h-2.7Z"></path><path class="cls-5" d="M177,51.91a3.4,3.4,0,0,0-.16-1.06,2.57,2.57,0,0,0-.45-.87,2.22,2.22,0,0,0-.74-.58,2.38,2.38,0,0,0-1-.21,2.5,2.5,0,0,0-1.09.23,2.42,2.42,0,0,0-.79.62,2.7,2.7,0,0,0-.51.87,5,5,0,0,0-.24,1Zm-7.83,1.21a7.2,7.2,0,0,1,.46-2.7,5.58,5.58,0,0,1,1.21-1.93,5,5,0,0,1,1.74-1.16,5.44,5.44,0,0,1,2-.39,4.79,4.79,0,0,1,3.76,1.49,6.48,6.48,0,0,1,1.35,4.46c0,.15,0,.32,0,.51s0,.35,0,.5H172a3,3,0,0,0,1,2.17,3.74,3.74,0,0,0,2.55.77,8.31,8.31,0,0,0,1.8-.18,6.24,6.24,0,0,0,1.28-.38l.36,2.21a3.52,3.52,0,0,1-.61.24c-.26.08-.56.15-.9.22s-.69.12-1.08.17a11.33,11.33,0,0,1-1.18.07,7.26,7.26,0,0,1-2.68-.46,5,5,0,0,1-1.87-1.27,5.22,5.22,0,0,1-1.09-1.92,7.82,7.82,0,0,1-.36-2.42"></path><path class="cls-5" d="M185.49,57a3.59,3.59,0,0,0,1.56-.25.91.91,0,0,0,.49-.88,1.13,1.13,0,0,0-.52-1,7.56,7.56,0,0,0-1.73-.83,14.44,14.44,0,0,1-1.35-.57,4.34,4.34,0,0,1-1.06-.7,3,3,0,0,1-.71-1,3.41,3.41,0,0,1-.25-1.4,3,3,0,0,1,1.18-2.53,5.12,5.12,0,0,1,3.21-.92,9.68,9.68,0,0,1,2,.19,10.08,10.08,0,0,1,1.4.36l-.49,2.19a6.57,6.57,0,0,0-2.74-.53,2.87,2.87,0,0,0-1.34.27.94.94,0,0,0-.52.86,1.21,1.21,0,0,0,.11.52,1.07,1.07,0,0,0,.34.41,3.73,3.73,0,0,0,.65.38c.27.12.59.25,1,.39a15.87,15.87,0,0,1,1.63.7,4.3,4.3,0,0,1,1.1.78,2.6,2.6,0,0,1,.64,1,4,4,0,0,1,.2,1.33A2.89,2.89,0,0,1,189,58.33a6.15,6.15,0,0,1-3.53.86,9.69,9.69,0,0,1-2.48-.26c-.63-.17-1.06-.31-1.32-.41l.47-2.26a11.09,11.09,0,0,0,1.44.47,7.37,7.37,0,0,0,1.91.22"></path><path class="cls-5" d="M195.68,57a3.54,3.54,0,0,0,1.56-.25.92.92,0,0,0,.5-.88,1.14,1.14,0,0,0-.53-1,7.35,7.35,0,0,0-1.73-.83,14.44,14.44,0,0,1-1.35-.57,4.54,4.54,0,0,1-1.06-.7,2.84,2.84,0,0,1-.7-1,3.4,3.4,0,0,1-.26-1.4,3,3,0,0,1,1.19-2.53,5.08,5.08,0,0,1,3.21-.92,9.58,9.58,0,0,1,2,.19,9.91,9.91,0,0,1,1.41.36l-.49,2.19a6.57,6.57,0,0,0-2.75-.53,2.9,2.9,0,0,0-1.34.27.93.93,0,0,0-.51.86,1.21,1.21,0,0,0,.1.52,1.1,1.1,0,0,0,.35.41,3.6,3.6,0,0,0,.64.38q.41.18,1,.39a15.61,15.61,0,0,1,1.62.7,4.36,4.36,0,0,1,1.11.78,2.57,2.57,0,0,1,.63,1,3.76,3.76,0,0,1,.2,1.33,2.91,2.91,0,0,1-1.23,2.54,6.21,6.21,0,0,1-3.54.86,9.75,9.75,0,0,1-2.48-.26c-.62-.17-1.06-.31-1.31-.41l.47-2.26a11.09,11.09,0,0,0,1.44.47,7.29,7.29,0,0,0,1.9.22"></path></g></g></svg>