<svg xmlns="http://www.w3.org/2000/svg" viewBox="0 0 171.65 63.09"><defs><style>.cls-1{fill:#050545;}.cls-2{fill:#0833ff;}.cls-3{fill:#089eff;}.cls-4{fill:#0808a3;}.cls-5{fill:#12bfcc;}</style></defs><title>bgAsset 4</title><g id="Layer_2" data-name="Layer 2"><g id="Layer_1-2" data-name="Layer 1"><polygon class="cls-1" points="60.38 53.23 46.4 39.26 57.23 39.26 57.23 30.27 39.26 30.27 30.26 30.27 30.26 39.26 30.26 57.23 39.26 57.23 39.26 47.89 52.48 61.12 60.38 53.23"></polygon><path class="cls-2" d="M0,26.67H9.89A18.58,18.58,0,0,1,26.67,9.59V0A28,28,0,0,0,0,26.67"></path><path class="cls-3" d="M30.26,0V9.59A19.14,19.14,0,0,1,47.34,26.67h9.59A28,28,0,0,0,30.26,0"></path><path class="cls-4" d="M9.59,30.26H0c.6,14.39,12.28,26.37,26.67,27V47.35A19.15,19.15,0,0,1,9.59,30.26"></path><path class="cls-5" d="M76.71,43.43c.33.57.69,1.26,1.09,2.08s.81,1.68,1.23,2.58.83,1.81,1.24,2.74l1.13,2.58,1.11-2.58c.4-.93.81-1.84,1.23-2.74s.82-1.76,1.22-2.58.77-1.51,1.1-2.08h2.53c.14,1.14.27,2.34.39,3.61s.23,2.57.33,3.9.19,2.67.27,4,.15,2.66.22,3.94H87c-.06-1.8-.13-3.66-.22-5.56s-.21-3.75-.37-5.53c-.17.34-.36.75-.58,1.22l-.72,1.56-.77,1.72L83.62,54c-.25.56-.48,1.08-.69,1.57s-.38.89-.53,1.23H80.3c-.15-.34-.33-.76-.53-1.25L79.09,54l-.76-1.73-.77-1.72L76.84,49c-.22-.48-.41-.89-.58-1.21-.16,1.78-.29,3.63-.37,5.53s-.16,3.76-.22,5.56H72.91c.06-1.28.13-2.61.21-4s.18-2.72.28-4.07.2-2.65.32-3.91.25-2.43.39-3.51Z"></path><path class="cls-5" d="M100.1,51.91a3.72,3.72,0,0,0-.15-1.06,2.78,2.78,0,0,0-.46-.87,2.22,2.22,0,0,0-.74-.58,2.34,2.34,0,0,0-1-.21,2.41,2.41,0,0,0-1.1.24,2.5,2.5,0,0,0-.79.61,2.68,2.68,0,0,0-.5.87,5,5,0,0,0-.25,1Zm-7.83,1.21a7.2,7.2,0,0,1,.46-2.7A5.45,5.45,0,0,1,94,48.49a4.84,4.84,0,0,1,1.74-1.16,5.35,5.35,0,0,1,2-.39,4.82,4.82,0,0,1,3.76,1.49,6.48,6.48,0,0,1,1.35,4.46c0,.15,0,.32,0,.51s0,.35,0,.5h-7.7a3.1,3.1,0,0,0,1,2.17,3.75,3.75,0,0,0,2.56.77,8.28,8.28,0,0,0,1.79-.18,6.94,6.94,0,0,0,1.29-.37l.35,2.2a3.22,3.22,0,0,1-.61.24,7.72,7.72,0,0,1-.89.22c-.34.07-.7.12-1.08.17a11.53,11.53,0,0,1-1.19.07,7.24,7.24,0,0,1-2.67-.46,5.08,5.08,0,0,1-1.88-1.27,5.36,5.36,0,0,1-1.09-1.92,7.77,7.77,0,0,1-.36-2.42"></path><path class="cls-5" d="M112.84,51.91a3.72,3.72,0,0,0-.15-1.06,2.78,2.78,0,0,0-.46-.87,2.22,2.22,0,0,0-.74-.58,2.34,2.34,0,0,0-1-.21,2.38,2.38,0,0,0-1.1.24,2.5,2.5,0,0,0-.79.61,2.68,2.68,0,0,0-.5.87,5,5,0,0,0-.25,1ZM105,53.12a7.2,7.2,0,0,1,.46-2.7,5.45,5.45,0,0,1,1.22-1.93,4.84,4.84,0,0,1,1.74-1.16,5.35,5.35,0,0,1,2-.39,4.82,4.82,0,0,1,3.76,1.49,6.48,6.48,0,0,1,1.35,4.46c0,.15,0,.32,0,.51s0,.35,0,.5h-7.7a3.1,3.1,0,0,0,1,2.17,3.75,3.75,0,0,0,2.56.77,8.28,8.28,0,0,0,1.79-.18,6.94,6.94,0,0,0,1.29-.37l.35,2.2a3.22,3.22,0,0,1-.61.24,7.72,7.72,0,0,1-.89.22c-.34.07-.7.12-1.08.17a11.53,11.53,0,0,1-1.19.07,7.24,7.24,0,0,1-2.67-.46,5.08,5.08,0,0,1-1.88-1.27,5.36,5.36,0,0,1-1.09-1.92,7.77,7.77,0,0,1-.36-2.42"></path><path class="cls-5" d="M118.26,44.15l2.7-.45v3.53h4.15v2.25H121v4.75a3.43,3.43,0,0,0,.45,2,1.77,1.77,0,0,0,1.52.6,5.1,5.1,0,0,0,1.3-.15c.38-.11.68-.2.91-.29l.44,2.14a10.7,10.7,0,0,1-1.22.41,6.82,6.82,0,0,1-1.79.21,5.76,5.76,0,0,1-2.09-.33,3.06,3.06,0,0,1-1.32-1,3.81,3.81,0,0,1-.69-1.54,9.13,9.13,0,0,1-.21-2.06Z"></path><path class="cls-5" d="M130.45,58.9h-2.7V47.23h2.7Zm.29-15.09a1.58,1.58,0,0,1-.49,1.21,1.67,1.67,0,0,1-1.16.44A1.69,1.69,0,0,1,127.9,45a1.75,1.75,0,0,1,0-2.43,1.7,1.7,0,0,1,1.19-.45,1.68,1.68,0,0,1,1.16.45,1.57,1.57,0,0,1,.49,1.22"></path><path class="cls-5" d="M133.88,47.61a19.17,19.17,0,0,1,2-.43,18.11,18.11,0,0,1,2.77-.2,6.39,6.39,0,0,1,2.39.39,3.73,3.73,0,0,1,1.53,1.1,4.28,4.28,0,0,1,.8,1.69,9.85,9.85,0,0,1,.23,2.18V58.9h-2.7V52.76a9,9,0,0,0-.12-1.59,3,3,0,0,0-.4-1.08,1.68,1.68,0,0,0-.76-.6,3.33,3.33,0,0,0-1.17-.19,8,8,0,0,0-1.07.07l-.83.11V58.9h-2.7Z"></path><path class="cls-5" d="M149.05,52.76a3.55,3.55,0,0,0,.75,2.51,2.53,2.53,0,0,0,1.93.79,4,4,0,0,0,1.22-.18,3.6,3.6,0,0,0,.92-.42V49.41l-.71-.12a7.85,7.85,0,0,0-1.07-.06,2.74,2.74,0,0,0-2.26,1,3.92,3.92,0,0,0-.78,2.55m7.52,5a5.32,5.32,0,0,1-1.41,4.09,6.3,6.3,0,0,1-4.34,1.29,12,12,0,0,1-2.09-.18,11,11,0,0,1-1.84-.47l.49-2.29a8.84,8.84,0,0,0,1.57.46,9.61,9.61,0,0,0,1.91.18,3.25,3.25,0,0,0,2.32-.67,2.63,2.63,0,0,0,.69-2v-.45a6.66,6.66,0,0,1-1.06.4,5,5,0,0,1-1.5.2,5.74,5.74,0,0,1-2-.35,4.33,4.33,0,0,1-1.59-1,4.86,4.86,0,0,1-1-1.73,7.3,7.3,0,0,1-.36-2.4,6.76,6.76,0,0,1,.39-2.34,4.9,4.9,0,0,1,1.14-1.83,5,5,0,0,1,1.81-1.18,6.47,6.47,0,0,1,2.44-.43,15.22,15.22,0,0,1,2.49.2c.79.14,1.46.28,2,.43Z"></path><path class="cls-5" d="M162.93,57a3.57,3.57,0,0,0,1.56-.25.91.91,0,0,0,.49-.88,1.13,1.13,0,0,0-.52-1,8,8,0,0,0-1.73-.83,14.44,14.44,0,0,1-1.35-.57,4.54,4.54,0,0,1-1.06-.7,2.84,2.84,0,0,1-.7-1,3.4,3.4,0,0,1-.26-1.4,3,3,0,0,1,1.18-2.53,5.14,5.14,0,0,1,3.22-.92,9.58,9.58,0,0,1,2,.19,10.7,10.7,0,0,1,1.41.36l-.5,2.19a6.5,6.5,0,0,0-1.13-.37,7,7,0,0,0-1.61-.16,2.87,2.87,0,0,0-1.34.27.93.93,0,0,0-.51.86,1.21,1.21,0,0,0,.1.52,1.16,1.16,0,0,0,.34.41,3.73,3.73,0,0,0,.65.38c.27.12.6.26,1,.39a15,15,0,0,1,1.63.7,4.36,4.36,0,0,1,1.11.78,2.57,2.57,0,0,1,.63,1,3.78,3.78,0,0,1,.2,1.34,2.87,2.87,0,0,1-1.24,2.53,6.15,6.15,0,0,1-3.53.86,9.75,9.75,0,0,1-2.48-.26c-.62-.17-1.06-.31-1.31-.41l.46-2.26a12.21,12.21,0,0,0,1.44.47,7.43,7.43,0,0,0,1.91.22"></path><path class="cls-4" d="M97.89,21.56a10.19,10.19,0,0,0,1-4.46,9.87,9.87,0,0,0-3-7.24,10.25,10.25,0,0,0-14.51,0,9.87,9.87,0,0,0-3,7.24,9.89,9.89,0,0,0,3,7.27,9.91,9.91,0,0,0,7.27,3,10.23,10.23,0,0,0,4.47-1l-7.32-7.32,4.85-4.81Zm.19,9.86a17.26,17.26,0,0,1-21.59-2.19,16.52,16.52,0,0,1-5-12.13A16.47,16.47,0,0,1,76.49,5,17.13,17.13,0,0,1,100.7,5a16.47,16.47,0,0,1,5,12.09,16.54,16.54,0,0,1-2.81,9.47l4.18,4.18-4.85,4.81Z"></path><polygon class="cls-4" points="109.74 33.26 121.52 17.14 109.7 0.98 118.19 0.98 125.78 11.35 133.37 0.98 141.82 0.98 130.01 17.14 141.78 33.26 133.34 33.26 125.78 22.93 118.19 33.26 109.74 33.26"></polygon><path class="cls-4" d="M154.05,7.81V19.54h4.89a5.65,5.65,0,0,0,4.15-1.72,5.68,5.68,0,0,0,1.72-4.14,5.69,5.69,0,0,0-1.72-4.15,5.65,5.65,0,0,0-4.15-1.72Zm0,18.58v6.85H147.2V1h11.74a12.26,12.26,0,0,1,9,3.72,12.22,12.22,0,0,1,3.71,9,12.21,12.21,0,0,1-3.71,9,12.26,12.26,0,0,1-9,3.72Z"></path></g></g></svg>