<svg xmlns="http://www.w3.org/2000/svg" viewBox="0 0 171.82 63.01"><defs><style>.cls-1{fill:#0808a3;}.cls-2{fill:#050545;}.cls-3{fill:#0833ff;}.cls-4{fill:#089eff;}.cls-5{fill:#f5ba00;}</style></defs><title>bgAsset 3</title><g id="Layer_2" data-name="Layer 2"><g id="Layer_1-2" data-name="Layer 1"><path class="cls-1" d="M97.89,21.56a10.19,10.19,0,0,0,1-4.46,9.87,9.87,0,0,0-3-7.24,10.25,10.25,0,0,0-14.51,0,9.87,9.87,0,0,0-3,7.24,9.89,9.89,0,0,0,3,7.27,9.91,9.91,0,0,0,7.27,3,10.23,10.23,0,0,0,4.47-1l-7.32-7.32,4.85-4.81Zm.19,9.86a17.26,17.26,0,0,1-21.59-2.19,16.52,16.52,0,0,1-5-12.13A16.47,16.47,0,0,1,76.49,5,17.13,17.13,0,0,1,100.7,5a16.47,16.47,0,0,1,5,12.09,16.54,16.54,0,0,1-2.81,9.47l4.18,4.18-4.85,4.81Z"></path><polygon class="cls-1" points="109.74 33.26 121.52 17.14 109.7 0.98 118.19 0.98 125.78 11.35 133.37 0.98 141.82 0.98 130.01 17.14 141.78 33.26 133.33 33.26 125.78 22.93 118.19 33.26 109.74 33.26"></polygon><path class="cls-1" d="M153.64,7.82V19.56h4.89a5.87,5.87,0,0,0,5.87-5.87,5.89,5.89,0,0,0-5.87-5.87Zm0,18.59v6.85h-6.85V1h11.74a12.26,12.26,0,0,1,9,3.72,12.22,12.22,0,0,1,3.72,9,12.24,12.24,0,0,1-3.72,9,12.26,12.26,0,0,1-9,3.72Z"></path><polygon class="cls-2" points="60.38 53.23 46.4 39.25 57.23 39.25 57.23 30.27 39.26 30.27 30.26 30.27 30.26 39.25 30.26 57.23 39.26 57.23 39.26 47.89 52.48 61.12 60.38 53.23"></polygon><path class="cls-3" d="M0,26.67H9.89A18.58,18.58,0,0,1,26.67,9.59V0A28,28,0,0,0,0,26.67"></path><path class="cls-4" d="M30.26,0V9.59A19.14,19.14,0,0,1,47.34,26.67h9.59A28,28,0,0,0,30.26,0"></path><path class="cls-1" d="M9.59,30.26H0c.6,14.39,12.28,26.37,26.67,27V47.34A19.14,19.14,0,0,1,9.59,30.26"></path><path class="cls-5" d="M79.6,45.17q-.55,1.28-1.26,3.09c-.47,1.21-1,2.53-1.47,3.94h5.45c-.51-1.41-1-2.74-1.48-4S80,46,79.6,45.17m4.89,13.37c-.23-.65-.46-1.3-.7-1.94s-.47-1.29-.69-2h-7q-.34,1-.69,2c-.23.64-.46,1.28-.68,1.92H71.6q.93-2.65,1.76-4.9c.56-1.5,1.11-2.92,1.64-4.26s1.06-2.61,1.59-3.82,1.07-2.41,1.63-3.59h2.87c.56,1.18,1.1,2.37,1.63,3.59s1,2.48,1.59,3.82,1.08,2.76,1.65,4.26,1.16,3.13,1.78,4.9Z"></path><path class="cls-5" d="M88.65,52.3a7.67,7.67,0,0,1,.43-2.6,6.31,6.31,0,0,1,1.23-2.09,5.49,5.49,0,0,1,2-1.38,6.29,6.29,0,0,1,2.58-.51,8.77,8.77,0,0,1,3.35.65l-.62,2.37a5.66,5.66,0,0,0-1.14-.36,5.82,5.82,0,0,0-1.35-.15A3.17,3.17,0,0,0,92.5,49.3a4.57,4.57,0,0,0-.89,3,4.7,4.7,0,0,0,.84,3,3.33,3.33,0,0,0,2.82,1.09,7.5,7.5,0,0,0,2.71-.5l.4,2.39a6.1,6.1,0,0,1-1.45.43,10,10,0,0,1-2,.19,7.21,7.21,0,0,1-2.79-.49,5.23,5.23,0,0,1-2-1.36A5.72,5.72,0,0,1,89,54.92a8.82,8.82,0,0,1-.38-2.62"></path><path class="cls-5" d="M105,56.51a10.28,10.28,0,0,0,2-.15v-3.2a4.31,4.31,0,0,0-.69-.14,6.14,6.14,0,0,0-1-.08,6.35,6.35,0,0,0-1,.08,2.79,2.79,0,0,0-.89.26,1.65,1.65,0,0,0-.63.54,1.49,1.49,0,0,0-.24.87,1.52,1.52,0,0,0,.64,1.42,3.31,3.31,0,0,0,1.75.4m-.24-10.79a7.1,7.1,0,0,1,2.42.36,3.88,3.88,0,0,1,1.56,1,3.8,3.8,0,0,1,.84,1.56,7.6,7.6,0,0,1,.25,2v7.58c-.45.1-1.12.22-2,.35a20.09,20.09,0,0,1-3,.2,9.45,9.45,0,0,1-2.06-.21,4.43,4.43,0,0,1-1.59-.69,3.3,3.3,0,0,1-1-1.25,4.27,4.27,0,0,1-.37-1.89,3.68,3.68,0,0,1,.41-1.82,3.45,3.45,0,0,1,1.14-1.2,4.83,4.83,0,0,1,1.66-.67,9.08,9.08,0,0,1,2-.21,9,9,0,0,1,1,.06,8.69,8.69,0,0,1,1.12.21v-.48a3.77,3.77,0,0,0-.12-1,2.1,2.1,0,0,0-.41-.8,2.06,2.06,0,0,0-.79-.54,3.63,3.63,0,0,0-1.24-.19,10.46,10.46,0,0,0-1.84.15,7.32,7.32,0,0,0-1.36.33l-.36-2.34a11.34,11.34,0,0,1,1.6-.39,13.29,13.29,0,0,1,2.25-.19"></path><path class="cls-5" d="M115.67,52.25a4.5,4.5,0,0,0,.91,3,3.08,3.08,0,0,0,2.51,1.09,10.12,10.12,0,0,0,1.19-.06,7.89,7.89,0,0,0,.8-.13V49a4.84,4.84,0,0,0-1-.5,4,4,0,0,0-1.35-.22,2.61,2.61,0,0,0-2.31,1.07,5.11,5.11,0,0,0-.73,2.92m8.3,5.91a19.12,19.12,0,0,1-2.16.48,17.3,17.3,0,0,1-2.74.21,7.38,7.38,0,0,1-2.66-.45,5.57,5.57,0,0,1-2-1.31A5.64,5.64,0,0,1,113.15,55a7.76,7.76,0,0,1-.44-2.72,9.11,9.11,0,0,1,.37-2.69,5.85,5.85,0,0,1,1.09-2.07,4.82,4.82,0,0,1,1.74-1.32,5.73,5.73,0,0,1,2.37-.47,5.2,5.2,0,0,1,1.6.22,7.71,7.71,0,0,1,1.2.47v-6L124,40Z"></path><path class="cls-5" d="M135.35,51.06a3.88,3.88,0,0,0-.16-1.14,2.94,2.94,0,0,0-.49-.93,2.27,2.27,0,0,0-.79-.62,2.41,2.41,0,0,0-1.12-.23,2.58,2.58,0,0,0-1.17.25,2.78,2.78,0,0,0-.85.66,2.85,2.85,0,0,0-.53.93,5,5,0,0,0-.27,1.08ZM127,52.35a7.83,7.83,0,0,1,.49-2.9,6.1,6.1,0,0,1,1.3-2.06,5.44,5.44,0,0,1,1.87-1.25,5.75,5.75,0,0,1,2.15-.42,5.15,5.15,0,0,1,4,1.61,6.89,6.89,0,0,1,1.45,4.78c0,.16,0,.34,0,.54s0,.38,0,.53H130A3.3,3.3,0,0,0,131,55.52a4.06,4.06,0,0,0,2.74.82,9,9,0,0,0,1.93-.19,7.41,7.41,0,0,0,1.37-.41l.38,2.37a4.72,4.72,0,0,1-.65.25,8.39,8.39,0,0,1-1,.24c-.36.07-.75.13-1.16.18a10.58,10.58,0,0,1-1.27.07,7.63,7.63,0,0,1-2.87-.49,5.34,5.34,0,0,1-2-1.36,5.73,5.73,0,0,1-1.17-2.06,8.53,8.53,0,0,1-.38-2.59"></path><path class="cls-5" d="M148.44,52a6.18,6.18,0,0,0-.49-2.83,1.92,1.92,0,0,0-1.83-.87,8.29,8.29,0,0,0-1.06.07l-.86.12V58.54h-2.89V46.44A18.72,18.72,0,0,1,143.5,46a17.34,17.34,0,0,1,2.85-.22,5.53,5.53,0,0,1,2.12.34,4,4,0,0,1,1.38.88,5.05,5.05,0,0,1,.67-.41,7.6,7.6,0,0,1,.9-.39,8.35,8.35,0,0,1,1.07-.3,5.35,5.35,0,0,1,1.13-.12,6,6,0,0,1,2.41.42,3.55,3.55,0,0,1,1.48,1.17,4.45,4.45,0,0,1,.74,1.82,12,12,0,0,1,.21,2.33v7h-2.9V52a6.2,6.2,0,0,0-.48-2.83,1.91,1.91,0,0,0-1.84-.87,3.79,3.79,0,0,0-1.31.22,4.36,4.36,0,0,0-.94.45,6.41,6.41,0,0,1,.27,1.26,13.11,13.11,0,0,1,.07,1.44v6.91h-2.89Z"></path><path class="cls-5" d="M171.82,46A90.54,90.54,0,0,1,167.34,59a14.05,14.05,0,0,1-1,1.84,5.85,5.85,0,0,1-1.13,1.27,4.31,4.31,0,0,1-1.39.73,6.3,6.3,0,0,1-1.77.22,6,6,0,0,1-1.33-.14,4.67,4.67,0,0,1-1-.31l.52-2.32a4.8,4.8,0,0,0,1.71.33,2.73,2.73,0,0,0,1.77-.53,4.49,4.49,0,0,0,1.11-1.67q-1.37-2.62-2.63-5.74A61.48,61.48,0,0,1,160,46h3.08c.16.67.36,1.4.59,2.18s.48,1.57.76,2.38.56,1.61.86,2.4.61,1.54.91,2.23c.51-1.42,1-2.93,1.43-4.54s.85-3.15,1.22-4.65Z"></path></g></g></svg>