<svg xmlns="http://www.w3.org/2000/svg" viewBox="0 0 450.23 172.36"><defs><style>.cls-1{fill:#0707a4;}.cls-2{fill:#060646;}.cls-3{fill:#0734ff;}.cls-4{fill:#079dff;}</style></defs><title>bgAsset 5</title><g id="Layer_2" data-name="Layer 2"><g id="Layer_1-2" data-name="Layer 1"><path class="cls-1" d="M265.48,120.61a43.53,43.53,0,0,1-54.54-5.53,41.72,41.72,0,0,1-12.65-30.63,43.17,43.17,0,0,1,43.28-43.17A41.6,41.6,0,0,1,272.1,53.92a41.6,41.6,0,0,1,12.64,30.53,41.55,41.55,0,0,1-7.11,23.91l10.57,10.57L276,131.08Zm-.5-24.9a25.56,25.56,0,0,0,2.47-11.26,25.94,25.94,0,1,0-44.26,18.38,25,25,0,0,0,18.38,7.6A25.59,25.59,0,0,0,252.83,108L234.36,89.49l12.25-12.15Z"/><polygon class="cls-1" points="294.92 125.25 324.66 84.55 294.82 43.75 316.26 43.75 335.43 69.93 354.6 43.75 375.93 43.75 346.1 84.55 375.83 125.25 354.5 125.25 335.43 99.17 316.26 125.25 294.92 125.25"/><path class="cls-1" d="M405.77,108v17.29H388.48V43.75h29.64a32,32,0,0,1,32.11,32.11A32,32,0,0,1,418.12,108Zm0-46.92V90.67h12.35a14.83,14.83,0,0,0,14.82-14.81A14.83,14.83,0,0,0,418.12,61Z"/><polygon class="cls-2" points="170.26 150.1 130.85 110.69 161.39 110.69 161.39 85.34 110.7 85.34 85.34 85.34 85.34 110.69 85.34 161.39 110.7 161.39 110.7 135.06 148 172.36 170.26 150.1"/><path class="cls-3" d="M0,75.21H27.89C29.57,49.86,49.85,29.58,75.2,27V0A78.9,78.9,0,0,0,0,75.21"/><path class="cls-4" d="M85.34,0V27A54,54,0,0,1,133.51,75.2h27A78.89,78.89,0,0,0,85.34,0"/><path class="cls-1" d="M27,85.35H0C1.69,125.9,34.64,159.7,75.21,161.4V133.51A54,54,0,0,1,27,85.35"/></g></g></svg>