<svg xmlns="http://www.w3.org/2000/svg" xmlns:xlink="http://www.w3.org/1999/xlink" width="995" height="216" viewBox="0 0 995 216">
  <defs>
    <clipPath id="clip-path">
      <rect id="Rectangle_58" data-name="Rectangle 58" width="995" height="341" transform="translate(310 938)" fill="#fff"/>
    </clipPath>
    <clipPath id="clip-logo-whitesmoke">
      <rect width="995" height="216"/>
    </clipPath>
  </defs>
  <g id="logo-whitesmoke" clip-path="url(#clip-logo-whitesmoke)">
    <g id="Mask_Group_21" data-name="Mask Group 21" transform="translate(-310 -1002)" clip-path="url(#clip-path)">
      <g id="surface1" transform="translate(310 998.62)">
        <path id="Path_73" data-name="Path 73" d="M116.785,259.958h44.636L197.129,328.9,175.31,372.548Zm0,0" transform="translate(-116.785 -259.958)" fill="#f00404"/>
        <path id="Path_74" data-name="Path 74" d="M136.569,390.407l62.984-130.449H243.2L156.9,434.041Zm0,0" transform="translate(-69.114 -259.958)" fill="#f4f4f3"/>
        <path id="Path_75" data-name="Path 75" d="M140.35,457.241l93.739-187.971h46.13s68.437,12.4,65.961,80.843a72.506,72.506,0,0,1-16.062,47.514c-17.277,21.119-40.648,24.819-45.824,25.517q-33.288,1.675-66.57,3.343l19.842-39.174h37.8c3.2-.741,18.332-4.558,27.4-19.218a42.525,42.525,0,0,0,6.221-22.451s-1.485-27.771-33.722-38.191l-16.376.5-72.9,149.289Zm0,0" transform="translate(-60.005 -237.522)" fill="#f4f4f3"/>
        <g id="Group_105" data-name="Group 105" transform="translate(306.543 58.275)">
          <g id="Group_104" data-name="Group 104" transform="translate(0 0)">
            <path id="Path_76" data-name="Path 76" d="M61.457-24.264h11.8L38.326,58.823H35.644L0-24.264H11.905l24.883,58.1Zm0,0" transform="translate(0 24.264)" fill="#f4f4f3"/>
          </g>
        </g>
        <g id="Group_108" data-name="Group 108" transform="translate(388.906 58.275)">
          <g id="Group_106" data-name="Group 106" transform="translate(0 0)">
            <path id="Path_77" data-name="Path 77" d="M2.674-24.264H49.58v10.547H14.508V11.524H48.4V22.106H14.508V47.811H50.688V58.358H2.674Zm0,0" transform="translate(-2.674 24.264)" fill="#f4f4f3"/>
          </g>
          <g id="Group_107" data-name="Group 107" transform="translate(60.992 0)">
            <path id="Path_78" data-name="Path 78" d="M2.779,58.465V-24.264H23.514q12.549,0,19.914,6.221t7.365,16.8a21.56,21.56,0,0,1-3.611,12.513,21.59,21.59,0,0,1-10.368,7.865,36.745,36.745,0,0,1,7.758,7.115A144.8,144.8,0,0,1,55.226,41.948Q59.543,49,62.162,52.531l4.4,5.935H52.473l-3.611-5.434c-.125-.215-.358-.554-.715-1.037l-2.324-3.253L42.141,42.7l-3.968-6.435a61.356,61.356,0,0,0-6.721-8.116,25.322,25.322,0,0,0-5.506-4.326q-2.44-1.354-8.258-1.359H14.612v36ZM18.188-14.182H14.612v26.1h4.5q9.009,0,12.334-1.537a11.519,11.519,0,0,0,5.22-4.648A13.584,13.584,0,0,0,38.53-1.347,12.588,12.588,0,0,0,36.457-8.39a11.015,11.015,0,0,0-5.828-4.469Q26.875-14.173,18.188-14.182Zm0,0" transform="translate(-2.779 24.264)" fill="#f4f4f3"/>
          </g>
        </g>
        <g id="Group_113" data-name="Group 113" transform="translate(504.854 58.168)">
          <g id="Group_109" data-name="Group 109" transform="translate(0 0)">
            <path id="Path_79" data-name="Path 79" d="M.608-24.3H69.716v10.547H40.864v72.29H28.959v-72.29H.608Zm0,0" transform="translate(-0.608 24.295)" fill="#f4f4f3"/>
          </g>
          <g id="Group_110" data-name="Group 110" transform="translate(80.289 0.107)">
            <path id="Path_80" data-name="Path 80" d="M2.674-24.264H49.58v10.547H14.508V11.524H48.4V22.106H14.508V47.811H50.688V58.358H2.674Zm0,0" transform="translate(-2.674 24.264)" fill="#f4f4f3"/>
          </g>
          <g id="Group_111" data-name="Group 111" transform="translate(132.057 0.107)">
            <path id="Path_81" data-name="Path 81" d="M68.824-24.264h14.3L50.161,15.671,85.448,58.465H71.112L42.975,24.251,14.517,58.465H.073L35.718,15.671,2.612-24.264H17.055L42.975,7.3Zm0,0" transform="translate(-0.073 24.264)" fill="#f4f4f3"/>
          </g>
          <g id="Group_112" data-name="Group 112" transform="translate(217.666 82.836)">
            <path id="Path_82" data-name="Path 82" fill="#f4f4f3"/>
          </g>
        </g>
        <g id="Group_117" data-name="Group 117" transform="translate(749.896 61.278)">
          <g id="Group_114" data-name="Group 114" transform="translate(0 0)">
            <path id="Path_83" data-name="Path 83" d="M2.527,76.257c0,7.15,4.326,10.868,10.868,10.868s10.868-3.718,10.868-10.868V47.262h.286c4,7.007,11.44,11.011,21.415,11.011,22.917,0,33.463-19.485,33.463-40.292,0-28.136-15.909-41.365-34.071-41.365-10.547,0-19.306,4.469-22.881,13.693h-.322v-3.432c0-6.686-3.4-10.261-9.8-10.261-6.686,0-9.832,3.575-9.832,10.261Zm55.2-59.026c0,10.118-3.432,24.1-17.268,24.1-13.228.143-17.411-12.942-17.411-24.1C23.048,4.9,27.8-6.437,40.459-6.437,52.079-6.115,57.727,4.432,57.727,17.231Zm0,0" transform="translate(-2.527 23.383)" fill="#f4f4f3"/>
          </g>
          <g id="Group_115" data-name="Group 115" transform="translate(88.369 0)">
            <path id="Path_84" data-name="Path 84" d="M76.442-1.074C76.442-16.7,62-23.383,41.191-23.383c-22.309,0-34.5,11.011-34.5,19.628,0,4.469,3.718,8.33,9.224,8.33C24.531,4.575,25-7.295,41.048-7.295c7.293,0,13.693,2.645,13.693,8.9s-4.183,7.436-9.4,8.044L32.11,11.117c-16.66,1.93-30.317,7.007-30.317,24.99,0,13.693,12.191,22.166,24.525,22.166,11.44,0,21.272-3.253,29.745-12.656.286,6.721,3.432,12.656,12.8,12.656,5.184,0,9.8-3.432,9.8-8.33,0-3.432-2.216-5.506-2.216-14.587Zm-21.7,29.316c0,8.008-7.293,15.766-19.2,15.766-7.436,0-12.048-4.04-12.048-8.938,0-6.543,4.9-9.367,13.979-10.69l7.865-1.215c2.538-.429,7.007-1.18,9.4-3.4Zm0,0" transform="translate(-1.793 23.383)" fill="#f4f4f3"/>
          </g>
          <g id="Group_116" data-name="Group 116" transform="translate(174.915 0)">
            <path id="Path_85" data-name="Path 85" d="M22.225-15.2c-1.323-4.9-5.327-8.187-11.154-8.187A10.377,10.377,0,0,0,.524-12.979c0,2.538.894,4.934,2.681,10.118L25.8,61.563c-1.644,6.686-4.755,6.829-7.579,6.829H16c-5.827,0-9.975,2.967-9.975,8.759,0,5.22,4,9.975,13.693,9.975,13.657,0,19.628-7.722,24.811-22.595L69.668-6.723a21.258,21.258,0,0,0,1.645-6.829c0-2.681-2.538-9.832-11.154-9.832-5.935,0-8.938,4.183-10.4,9.689L36.526,35.536H36.2Zm0,0" transform="translate(-0.524 23.383)" fill="#f4f4f3"/>
          </g>
        </g>
      </g>
    </g>
  </g>
</svg>
