<svg xmlns="http://www.w3.org/2000/svg" xmlns:xlink="http://www.w3.org/1999/xlink" width="500" height="500" viewBox="0 0 500 500">
  <defs>
    <filter id="Union_2" x="314.103" y="-6" width="194.897" height="179.638" filterUnits="userSpaceOnUse">
      <feOffset dy="3" input="SourceAlpha"/>
      <feGaussianBlur stdDeviation="3" result="blur"/>
      <feFlood flood-opacity="0.161"/>
      <feComposite operator="in" in2="blur"/>
      <feComposite in="SourceGraphic"/>
    </filter>
    <filter id="p" x="-62.897" y="-208.565" width="418" height="883" filterUnits="userSpaceOnUse">
      <feOffset dy="3" input="SourceAlpha"/>
      <feGaussianBlur stdDeviation="3" result="blur-2"/>
      <feFlood flood-opacity="0.161"/>
      <feComposite operator="in" in2="blur-2"/>
      <feComposite in="SourceGraphic"/>
    </filter>
    <clipPath id="clip-favicon_1">
      <rect width="500" height="500"/>
    </clipPath>
  </defs>
  <g id="favicon_1" data-name="favicon – 1" clip-path="url(#clip-favicon_1)">
    <g transform="matrix(1, 0, 0, 1, 0, 0)" filter="url(#Union_2)">
      <path id="Union_2-2" data-name="Union 2" d="M133.449,140.685c0-11.572,9.726-20.954,21.723-20.954s21.725,9.382,21.725,20.954-9.727,20.952-21.725,20.952S133.449,152.257,133.449,140.685ZM0,70.343C0,31.494,32.653,0,72.931,0s72.931,31.494,72.931,70.343-32.651,70.342-72.931,70.342S0,109.192,0,70.343Z" transform="translate(323.1)" fill="#0040d8"/>
    </g>
    <g transform="matrix(1, 0, 0, 1, 0, 0)" filter="url(#p)">
      <text id="p-2" data-name="p" transform="translate(-53.9 499.44)" fill="#fff" font-size="651" font-family="SegoeUI-Bold, Segoe UI" font-weight="700"><tspan x="0" y="0">P</tspan></text>
    </g>
  </g>
</svg>
