<svg xmlns="http://www.w3.org/2000/svg" xmlns:xlink="http://www.w3.org/1999/xlink" width="500" height="180" viewBox="0 0 500 180">
  <defs>
    <filter id="Union_2" x="387.054" y="2.848" width="117.491" height="108.478" filterUnits="userSpaceOnUse">
      <feOffset dy="3" input="SourceAlpha"/>
      <feGaussianBlur stdDeviation="3" result="blur"/>
      <feFlood flood-opacity="0.161"/>
      <feComposite operator="in" in2="blur"/>
      <feComposite in="SourceGraphic"/>
    </filter>
    <filter id="peru" x="-14.735" y="3.345" width="408" height="215" filterUnits="userSpaceOnUse">
      <feOffset dy="3" input="SourceAlpha"/>
      <feGaussianBlur stdDeviation="3" result="blur-2"/>
      <feFlood flood-opacity="0.161"/>
      <feComposite operator="in" in2="blur-2"/>
      <feComposite in="SourceGraphic"/>
    </filter>
    <clipPath id="clip-logo_1">
      <rect width="500" height="180"/>
    </clipPath>
  </defs>
  <g id="logo_1" data-name="logo – 1" clip-path="url(#clip-logo_1)">
    <g transform="matrix(1, 0, 0, 1, 0, 0)" filter="url(#Union_2)">
      <path id="Union_2-2" data-name="Union 2" d="M75.055,78.75A12.228,12.228,0,1,1,87.273,90.478,11.981,11.981,0,0,1,75.055,78.75ZM0,39.375C0,17.629,18.365,0,41.018,0S82.036,17.629,82.036,39.375,63.672,78.75,41.018,78.75,0,61.121,0,39.375Z" transform="translate(396.05 8.85)" fill="#0040d8"/>
    </g>
    <g transform="matrix(1, 0, 0, 1, 0, 0)" filter="url(#peru)">
      <text id="peru-2" data-name="peru" transform="translate(-5.73 169.35)" fill="#fff" font-size="148" font-family="SegoeUIBlack, Segoe UI"><tspan x="0" y="0">PERU</tspan></text>
    </g>
  </g>
</svg>
