<svg width="386" height="122" viewBox="0 0 386 122" fill="none" xmlns="http://www.w3.org/2000/svg">
<path d="M9.4 97V27H38.2C44.4 27 49.7 28 54.1 30C58.5667 32 62 34.8667 64.4 38.6C66.8 42.3333 68 46.7667 68 51.9C68 57.0333 66.8 61.4667 64.4 65.2C62 68.9333 58.5667 71.8 54.1 73.8C49.7 75.8 44.4 76.8 38.2 76.8H16.6L22.4 70.7V97H9.4ZM22.4 72.1L16.6 65.8H37.6C43.3333 65.8 47.6333 64.6 50.5 62.2C53.4333 59.7333 54.9 56.3 54.9 51.9C54.9 47.4333 53.4333 44 50.5 41.6C47.6333 39.2 43.3333 38 37.6 38H16.6L22.4 31.6V72.1Z" fill="url(#paint0_linear_57_22)"/>
<path d="M149 61L129 15L107 61L129 107L149 61Z" stroke="url(#paint1_linear_57_22)" stroke-width="3"/>
<g filter="url(#filter0_f_57_22)">
<path d="M149 61L129 15L107 61L129 107L149 61Z" stroke="url(#paint2_linear_57_22)" stroke-width="3"/>
</g>
<path d="M135 61L115 15L93 61L115 107L135 61Z" stroke="url(#paint3_linear_57_22)" stroke-width="5"/>
<path d="M178.4 97V27H207.2C213.4 27 218.7 28 223.1 30C227.567 32 231 34.8667 233.4 38.6C235.8 42.3333 237 46.7667 237 51.9C237 57.0333 235.8 61.4667 233.4 65.2C231 68.8667 227.567 71.7 223.1 73.7C218.7 75.6333 213.4 76.6 207.2 76.6H185.6L191.4 70.7V97H178.4ZM224.2 97L206.5 71.6H220.4L238.2 97H224.2ZM191.4 72.1L185.6 65.9H206.6C212.333 65.9 216.633 64.6667 219.5 62.2C222.433 59.7333 223.9 56.3 223.9 51.9C223.9 47.4333 222.433 44 219.5 41.6C216.633 39.2 212.333 38 206.6 38H185.6L191.4 31.6V72.1Z" fill="url(#paint4_linear_57_22)"/>
<path d="M302.5 98C292.9 98 285.367 95.3 279.9 89.9C274.5 84.5 271.8 76.7 271.8 66.5V27H284.8V66C284.8 73.2 286.333 78.4333 289.4 81.7C292.533 84.9667 296.933 86.6 302.6 86.6C308.267 86.6 312.633 84.9667 315.7 81.7C318.767 78.4333 320.3 73.2 320.3 66V27H333.1V66.5C333.1 76.7 330.367 84.5 324.9 89.9C319.5 95.3 312.033 98 302.5 98Z" fill="url(#paint5_linear_57_22)"/>
<rect x="350" y="6" width="24" height="24" rx="12" fill="url(#paint6_linear_57_22)"/>
<rect x="376" y="35" width="10" height="10" rx="5" fill="url(#paint7_linear_57_22)"/>
<defs>
<filter id="filter0_f_57_22" x="97.3369" y="3.38745" width="61.2988" height="115.225" filterUnits="userSpaceOnUse" color-interpolation-filters="sRGB">
<feFlood flood-opacity="0" result="BackgroundImageFix"/>
<feBlend mode="normal" in="SourceGraphic" in2="BackgroundImageFix" result="shape"/>
<feGaussianBlur stdDeviation="4" result="effect1_foregroundBlur_57_22"/>
</filter>
<linearGradient id="paint0_linear_57_22" x1="36.5" y1="0" x2="36.5" y2="122" gradientUnits="userSpaceOnUse">
<stop stop-color="#202020"/>
<stop offset="1" stop-color="#060606"/>
</linearGradient>
<linearGradient id="paint1_linear_57_22" x1="128" y1="15" x2="128" y2="107" gradientUnits="userSpaceOnUse">
<stop stop-color="#202020"/>
<stop offset="1" stop-color="#060606"/>
</linearGradient>
<linearGradient id="paint2_linear_57_22" x1="128" y1="15" x2="128" y2="107" gradientUnits="userSpaceOnUse">
<stop stop-color="#202020"/>
<stop offset="1" stop-color="#060606"/>
</linearGradient>
<linearGradient id="paint3_linear_57_22" x1="114" y1="15" x2="114" y2="107" gradientUnits="userSpaceOnUse">
<stop stop-color="#202020"/>
<stop offset="1" stop-color="#060606"/>
</linearGradient>
<linearGradient id="paint4_linear_57_22" x1="206" y1="0" x2="206" y2="122" gradientUnits="userSpaceOnUse">
<stop stop-color="#202020"/>
<stop offset="1" stop-color="#060606"/>
</linearGradient>
<linearGradient id="paint5_linear_57_22" x1="302.5" y1="0" x2="302.5" y2="122" gradientUnits="userSpaceOnUse">
<stop stop-color="#202020"/>
<stop offset="1" stop-color="#060606"/>
</linearGradient>
<linearGradient id="paint6_linear_57_22" x1="362" y1="6" x2="362" y2="30" gradientUnits="userSpaceOnUse">
<stop stop-color="#202020"/>
<stop offset="1" stop-color="#060606"/>
</linearGradient>
<linearGradient id="paint7_linear_57_22" x1="381" y1="35" x2="381" y2="45" gradientUnits="userSpaceOnUse">
<stop stop-color="#202020"/>
<stop offset="1" stop-color="#060606"/>
</linearGradient>
</defs>
</svg>
