<svg width="827" height="228" viewBox="0 0 827 228" fill="none" xmlns="http://www.w3.org/2000/svg">
<g filter="url(#filter0_d_472_136)">
<rect x="14" y="10" width="400" height="200" rx="16" fill="#F1F1F1"/>
<path d="M310.711 50.707L310.348 52.3477H307.688L307.008 55.582H309.914L309.504 57.2227H306.668L305.707 61.5586H303.844L304.781 57.2227H301.945L301.031 61.5586H299.168L300.082 57.2227H297.398L297.727 55.582H300.445L301.09 52.3477H298.23L298.57 50.707H301.43L302.367 46.1953H304.254L303.328 50.707H306.164L307.125 46.1953H308.977L308.039 50.707H310.711ZM305.836 52.3477H302.977L302.273 55.582H305.145L305.836 52.3477ZM323.548 48.5625H317.266V53.6133H323.055V55.9688H317.266V63H314.477V46.1953H323.548V48.5625ZM332.88 45.8203V63H330.162V49.1484C329.67 49.5 329.138 49.8008 328.568 50.0508C328.005 50.293 327.361 50.5078 326.634 50.6953V48.375C327.087 48.2266 327.525 48.0703 327.947 47.9062C328.369 47.7422 328.783 47.5586 329.189 47.3555C329.603 47.1523 330.017 46.9258 330.431 46.6758C330.853 46.4258 331.287 46.1406 331.732 45.8203H332.88ZM347.674 48.5625H341.393V53.6133H347.182V55.9688H341.393V63H338.604V46.1953H347.674V48.5625ZM357.007 45.8203V63H354.288V49.1484C353.796 49.5 353.265 49.8008 352.695 50.0508C352.132 50.293 351.487 50.5078 350.761 50.6953V48.375C351.214 48.2266 351.652 48.0703 352.073 47.9062C352.495 47.7422 352.909 47.5586 353.316 47.3555C353.73 47.1523 354.144 46.9258 354.558 46.6758C354.98 46.4258 355.413 46.1406 355.859 45.8203H357.007ZM371.801 48.5625H365.52V53.6133H371.309V55.9688H365.52V63H362.73V46.1953H371.801V48.5625ZM381.134 45.8203V63H378.415V49.1484C377.923 49.5 377.391 49.8008 376.821 50.0508C376.259 50.293 375.614 50.5078 374.887 50.6953V48.375C375.341 48.2266 375.778 48.0703 376.2 47.9062C376.622 47.7422 377.036 47.5586 377.442 47.3555C377.856 47.1523 378.27 46.9258 378.684 46.6758C379.106 46.4258 379.54 46.1406 379.985 45.8203H381.134Z" fill="black"/>
<rect x="414" y="10" width="240" height="200" rx="16" fill="#040404"/>
<path d="M547.711 50.707L547.348 52.3477H544.688L544.008 55.582H546.914L546.504 57.2227H543.668L542.707 61.5586H540.844L541.781 57.2227H538.945L538.031 61.5586H536.168L537.082 57.2227H534.398L534.727 55.582H537.445L538.09 52.3477H535.23L535.57 50.707H538.43L539.367 46.1953H541.254L540.328 50.707H543.164L544.125 46.1953H545.977L545.039 50.707H547.711ZM542.836 52.3477H539.977L539.273 55.582H542.145L542.836 52.3477ZM555.884 63.2812C554.134 63.2812 552.766 62.5664 551.782 61.1367C550.805 59.707 550.317 57.6406 550.317 54.9375C550.317 51.9688 550.829 49.7227 551.852 48.1992C552.876 46.6758 554.352 45.9141 556.282 45.9141C559.977 45.9141 561.825 48.7852 561.825 54.5273C561.825 57.3711 561.302 59.543 560.255 61.043C559.216 62.5352 557.759 63.2812 555.884 63.2812ZM556.153 48.082C554.114 48.082 553.095 50.3281 553.095 54.8203C553.095 59.0234 554.095 61.125 556.095 61.125C558.063 61.125 559.048 58.9883 559.048 54.7148C559.048 50.293 558.083 48.082 556.153 48.082ZM574.791 46.1953V57.0469H577.287V59.3086H574.791V63H572.154V59.3086H564.548V57.0234C565.236 56.25 565.939 55.4141 566.658 54.5156C567.384 53.6094 568.08 52.6875 568.744 51.75C569.416 50.8047 570.037 49.8594 570.607 48.9141C571.177 47.9688 571.658 47.0625 572.048 46.1953H574.791ZM572.154 57.0469V49.9922C571.302 51.5234 570.459 52.8594 569.623 54C568.795 55.1406 568.017 56.1562 567.291 57.0469H572.154ZM585.448 63.2812C583.698 63.2812 582.33 62.5664 581.346 61.1367C580.37 59.707 579.881 57.6406 579.881 54.9375C579.881 51.9688 580.393 49.7227 581.416 48.1992C582.44 46.6758 583.916 45.9141 585.846 45.9141C589.541 45.9141 591.389 48.7852 591.389 54.5273C591.389 57.3711 590.866 59.543 589.819 61.043C588.78 62.5352 587.323 63.2812 585.448 63.2812ZM585.717 48.082C583.678 48.082 582.659 50.3281 582.659 54.8203C582.659 59.0234 583.659 61.125 585.659 61.125C587.627 61.125 588.612 58.9883 588.612 54.7148C588.612 50.293 587.647 48.082 585.717 48.082ZM604.355 46.1953V57.0469H606.851V59.3086H604.355V63H601.718V59.3086H594.112V57.0234C594.8 56.25 595.503 55.4141 596.222 54.5156C596.948 53.6094 597.644 52.6875 598.308 51.75C598.98 50.8047 599.601 49.8594 600.171 48.9141C600.741 47.9688 601.222 47.0625 601.612 46.1953H604.355ZM601.718 57.0469V49.9922C600.866 51.5234 600.023 52.8594 599.187 54C598.359 55.1406 597.581 56.1562 596.855 57.0469H601.718ZM615.012 63.2812C613.262 63.2812 611.895 62.5664 610.91 61.1367C609.934 59.707 609.445 57.6406 609.445 54.9375C609.445 51.9688 609.957 49.7227 610.98 48.1992C612.004 46.6758 613.48 45.9141 615.41 45.9141C619.105 45.9141 620.953 48.7852 620.953 54.5273C620.953 57.3711 620.43 59.543 619.383 61.043C618.344 62.5352 616.887 63.2812 615.012 63.2812ZM615.281 48.082C613.242 48.082 612.223 50.3281 612.223 54.8203C612.223 59.0234 613.223 61.125 615.223 61.125C617.191 61.125 618.176 58.9883 618.176 54.7148C618.176 50.293 617.211 48.082 615.281 48.082ZM633.919 46.1953V57.0469H636.415V59.3086H633.919V63H631.282V59.3086H623.677V57.0234C624.364 56.25 625.067 55.4141 625.786 54.5156C626.512 53.6094 627.208 52.6875 627.872 51.75C628.544 50.8047 629.165 49.8594 629.735 48.9141C630.305 47.9688 630.786 47.0625 631.177 46.1953H633.919ZM631.282 57.0469V49.9922C630.43 51.5234 629.587 52.8594 628.751 54C627.923 55.1406 627.145 56.1562 626.419 57.0469H631.282Z" fill="white"/>
<rect x="654" y="10" width="159" height="200" rx="16" fill="url(#paint0_linear_472_136)"/>
<path d="M706.711 50.707L706.348 52.3477H703.688L703.008 55.582H705.914L705.504 57.2227H702.668L701.707 61.5586H699.844L700.781 57.2227H697.945L697.031 61.5586H695.168L696.082 57.2227H693.398L693.727 55.582H696.445L697.09 52.3477H694.23L694.57 50.707H697.43L698.367 46.1953H700.254L699.328 50.707H702.164L703.125 46.1953H704.977L704.039 50.707H706.711ZM701.836 52.3477H698.977L698.273 55.582H701.145L701.836 52.3477ZM720.098 63H709.552V61.6992C709.552 61.168 709.626 60.6719 709.774 60.2109C709.923 59.7422 710.122 59.3047 710.372 58.8984C710.622 58.4844 710.915 58.0977 711.251 57.7383C711.587 57.3711 711.946 57.0195 712.329 56.6836C712.712 56.3398 713.102 56.0117 713.501 55.6992C713.899 55.3789 714.29 55.0586 714.673 54.7383C715.032 54.4336 715.36 54.1367 715.657 53.8477C715.954 53.5508 716.208 53.2461 716.419 52.9336C716.63 52.6211 716.794 52.293 716.911 51.9492C717.028 51.5977 717.087 51.2188 717.087 50.8125C717.087 50.3672 717.016 49.9805 716.876 49.6523C716.743 49.3164 716.552 49.0391 716.302 48.8203C716.059 48.5938 715.77 48.4258 715.434 48.3164C715.098 48.1992 714.731 48.1406 714.333 48.1406C713.645 48.1406 712.946 48.3008 712.235 48.6211C711.524 48.9414 710.841 49.4219 710.184 50.0625V47.4492C710.528 47.1914 710.876 46.9688 711.227 46.7812C711.579 46.5859 711.942 46.4258 712.317 46.3008C712.692 46.168 713.087 46.0703 713.501 46.0078C713.915 45.9453 714.356 45.9141 714.825 45.9141C715.583 45.9141 716.27 46.0156 716.887 46.2188C717.505 46.4141 718.032 46.707 718.47 47.0977C718.907 47.4805 719.243 47.9609 719.477 48.5391C719.72 49.1172 719.841 49.7812 719.841 50.5312C719.841 51.2109 719.755 51.8242 719.583 52.3711C719.419 52.9102 719.18 53.4141 718.868 53.8828C718.563 54.3516 718.192 54.7969 717.755 55.2188C717.317 55.6406 716.829 56.0742 716.29 56.5195C715.837 56.8867 715.384 57.2461 714.93 57.5977C714.485 57.9414 714.083 58.2812 713.723 58.6172C713.364 58.9453 713.071 59.2773 712.845 59.6133C712.626 59.9414 712.516 60.2734 712.516 60.6094V60.668H720.098V63ZM733.791 46.1953V57.0469H736.287V59.3086H733.791V63H731.154V59.3086H723.548V57.0234C724.236 56.25 724.939 55.4141 725.658 54.5156C726.384 53.6094 727.08 52.6875 727.744 51.75C728.416 50.8047 729.037 49.8594 729.607 48.9141C730.177 47.9688 730.658 47.0625 731.048 46.1953H733.791ZM731.154 57.0469V49.9922C730.302 51.5234 729.459 52.8594 728.623 54C727.795 55.1406 727.017 56.1562 726.291 57.0469H731.154ZM750.014 47.5547C749.311 48.8438 748.647 50.1211 748.022 51.3867C747.397 52.6445 746.83 53.9102 746.323 55.1836C745.815 56.457 745.373 57.7422 744.998 59.0391C744.623 60.3281 744.334 61.6484 744.131 63H741.284C741.471 61.7969 741.737 60.5977 742.08 59.4023C742.432 58.1992 742.842 57 743.311 55.8047C743.78 54.6016 744.303 53.3945 744.881 52.1836C745.467 50.9727 746.088 49.75 746.745 48.5156H738.787V46.1953H750.014V47.5547ZM754.109 63V46.1953H758.96C765.155 46.1953 768.253 48.9258 768.253 54.3867C768.253 56.9805 767.394 59.0664 765.675 60.6445C763.956 62.2148 761.652 63 758.761 63H754.109ZM756.886 48.5625V60.6445H759.112C761.073 60.6445 762.597 60.1055 763.683 59.0273C764.777 57.9492 765.323 56.4258 765.323 54.457C765.323 50.5273 763.288 48.5625 759.218 48.5625H756.886ZM781.605 48.5625H775.324V53.6133H781.113V55.9688H775.324V63H772.535V46.1953H781.605V48.5625ZM795.427 63H784.88V61.6992C784.88 61.168 784.954 60.6719 785.102 60.2109C785.251 59.7422 785.45 59.3047 785.7 58.8984C785.95 58.4844 786.243 58.0977 786.579 57.7383C786.915 57.3711 787.274 57.0195 787.657 56.6836C788.04 56.3398 788.43 56.0117 788.829 55.6992C789.227 55.3789 789.618 55.0586 790.001 54.7383C790.36 54.4336 790.688 54.1367 790.985 53.8477C791.282 53.5508 791.536 53.2461 791.747 52.9336C791.958 52.6211 792.122 52.293 792.239 51.9492C792.356 51.5977 792.415 51.2188 792.415 50.8125C792.415 50.3672 792.345 49.9805 792.204 49.6523C792.071 49.3164 791.88 49.0391 791.63 48.8203C791.387 48.5938 791.098 48.4258 790.762 48.3164C790.427 48.1992 790.059 48.1406 789.661 48.1406C788.973 48.1406 788.274 48.3008 787.563 48.6211C786.852 48.9414 786.169 49.4219 785.512 50.0625V47.4492C785.856 47.1914 786.204 46.9688 786.555 46.7812C786.907 46.5859 787.27 46.4258 787.645 46.3008C788.02 46.168 788.415 46.0703 788.829 46.0078C789.243 45.9453 789.684 45.9141 790.153 45.9141C790.911 45.9141 791.598 46.0156 792.216 46.2188C792.833 46.4141 793.36 46.707 793.798 47.0977C794.235 47.4805 794.571 47.9609 794.805 48.5391C795.048 49.1172 795.169 49.7812 795.169 50.5312C795.169 51.2109 795.083 51.8242 794.911 52.3711C794.747 52.9102 794.509 53.4141 794.196 53.8828C793.891 54.3516 793.52 54.7969 793.083 55.2188C792.645 55.6406 792.157 56.0742 791.618 56.5195C791.165 56.8867 790.712 57.2461 790.259 57.5977C789.813 57.9414 789.411 58.2812 789.052 58.6172C788.692 58.9453 788.399 59.2773 788.173 59.6133C787.954 59.9414 787.845 60.2734 787.845 60.6094V60.668H795.427V63Z" fill="white"/>
</g>
<defs>
<filter id="filter0_d_472_136" x="0" y="0" width="827" height="228" filterUnits="userSpaceOnUse" color-interpolation-filters="sRGB">
<feFlood flood-opacity="0" result="BackgroundImageFix"/>
<feColorMatrix in="SourceAlpha" type="matrix" values="0 0 0 0 0 0 0 0 0 0 0 0 0 0 0 0 0 0 127 0" result="hardAlpha"/>
<feOffset dy="4"/>
<feGaussianBlur stdDeviation="7"/>
<feComposite in2="hardAlpha" operator="out"/>
<feColorMatrix type="matrix" values="0 0 0 0 0 0 0 0 0 0 0 0 0 0 0 0 0 0 0.14 0"/>
<feBlend mode="normal" in2="BackgroundImageFix" result="effect1_dropShadow_472_136"/>
<feBlend mode="normal" in="SourceGraphic" in2="effect1_dropShadow_472_136" result="shape"/>
</filter>
<linearGradient id="paint0_linear_472_136" x1="779.576" y1="-1.62791" x2="609.526" y2="249.408" gradientUnits="userSpaceOnUse">
<stop stop-color="#247DF2"/>
<stop offset="1" stop-color="#45CEBB"/>
</linearGradient>
</defs>
</svg>
