<svg width="827" height="228" viewBox="0 0 827 228" fill="none" xmlns="http://www.w3.org/2000/svg">
<g filter="url(#filter0_d_433_152)">
<rect x="14" y="10" width="400" height="200" rx="16" fill="#F1F1F1"/>
<path d="M298.272 66L299.136 59.304H297.96L297.984 57.12H299.448L299.784 54.552H298.032L298.056 52.32H300.144L300.888 46.56H303.432L302.688 52.32H304.68L305.448 46.56H307.968L307.2 52.32H308.352L308.304 54.552H306.864L306.528 57.12H308.232L308.208 59.304H306.216L305.328 66H302.784L303.672 59.304H301.68L300.816 66H298.272ZM301.968 57.12H303.984L304.32 54.552H302.328L301.968 57.12ZM311.922 66V46.56H319.914V49.008H315.474V54.672H319.098V57.144H315.474V66H311.922ZM325.196 66V50.232C325.1 50.28 324.908 50.352 324.62 50.448C324.348 50.544 324.044 50.64 323.708 50.736C323.372 50.816 323.06 50.896 322.772 50.976C322.5 51.056 322.308 51.12 322.196 51.168V48.696C322.42 48.616 322.7 48.504 323.036 48.36C323.372 48.216 323.724 48.056 324.092 47.88C324.476 47.688 324.828 47.48 325.148 47.256C325.484 47.032 325.756 46.8 325.964 46.56H328.508V66H325.196ZM333.634 66V46.56H341.626V49.008H337.186V54.672H340.81V57.144H337.186V66H333.634ZM346.908 66V50.232C346.812 50.28 346.62 50.352 346.332 50.448C346.06 50.544 345.756 50.64 345.42 50.736C345.084 50.816 344.772 50.896 344.484 50.976C344.212 51.056 344.02 51.12 343.908 51.168V48.696C344.132 48.616 344.412 48.504 344.748 48.36C345.084 48.216 345.436 48.056 345.804 47.88C346.188 47.688 346.54 47.48 346.86 47.256C347.196 47.032 347.468 46.8 347.676 46.56H350.22V66H346.908ZM355.347 66V46.56H363.339V49.008H358.899V54.672H362.523V57.144H358.899V66H355.347ZM368.621 66V50.232C368.525 50.28 368.333 50.352 368.045 50.448C367.773 50.544 367.469 50.64 367.133 50.736C366.797 50.816 366.485 50.896 366.197 50.976C365.925 51.056 365.733 51.12 365.621 51.168V48.696C365.845 48.616 366.125 48.504 366.461 48.36C366.797 48.216 367.149 48.056 367.517 47.88C367.901 47.688 368.253 47.48 368.573 47.256C368.909 47.032 369.181 46.8 369.389 46.56H371.933V66H368.621Z" fill="black"/>
<rect x="414" y="10" width="240" height="200" rx="16" fill="#0F0F0F"/>
<path d="M535.272 66L536.136 59.304H534.96L534.984 57.12H536.448L536.784 54.552H535.032L535.056 52.32H537.144L537.888 46.56H540.432L539.688 52.32H541.68L542.448 46.56H544.968L544.2 52.32H545.352L545.304 54.552H543.864L543.528 57.12H545.232L545.208 59.304H543.216L542.328 66H539.784L540.672 59.304H538.68L537.816 66H535.272ZM538.968 57.12H540.984L541.32 54.552H539.328L538.968 57.12ZM553.866 66.288C552.73 66.288 551.786 66.048 551.034 65.568C550.298 65.088 549.738 64.424 549.354 63.576C548.986 62.728 548.802 61.752 548.802 60.648V52.032C548.802 50.896 548.978 49.904 549.33 49.056C549.698 48.192 550.25 47.52 550.986 47.04C551.738 46.56 552.698 46.32 553.866 46.32C555.034 46.32 555.986 46.56 556.722 47.04C557.474 47.52 558.026 48.192 558.378 49.056C558.746 49.904 558.93 50.896 558.93 52.032V60.648C558.93 61.752 558.738 62.728 558.354 63.576C557.986 64.424 557.426 65.088 556.674 65.568C555.938 66.048 555.002 66.288 553.866 66.288ZM553.866 63.432C554.362 63.432 554.73 63.28 554.97 62.976C555.21 62.672 555.37 62.304 555.45 61.872C555.53 61.44 555.57 61.016 555.57 60.6V52.08C555.57 51.632 555.53 51.192 555.45 50.76C555.386 50.312 555.234 49.936 554.994 49.632C554.754 49.328 554.378 49.176 553.866 49.176C553.354 49.176 552.978 49.328 552.738 49.632C552.498 49.936 552.338 50.312 552.258 50.76C552.194 51.192 552.162 51.632 552.162 52.08V60.6C552.162 61.016 552.202 61.44 552.282 61.872C552.378 62.304 552.546 62.672 552.786 62.976C553.026 63.28 553.386 63.432 553.866 63.432ZM562.942 66V46.56H570.934V49.008H566.494V54.672H570.118V57.144H566.494V66H562.942ZM579 66.288C577.864 66.288 576.92 66.048 576.168 65.568C575.432 65.088 574.872 64.424 574.488 63.576C574.12 62.728 573.936 61.752 573.936 60.648V52.032C573.936 50.896 574.112 49.904 574.464 49.056C574.832 48.192 575.384 47.52 576.12 47.04C576.872 46.56 577.832 46.32 579 46.32C580.168 46.32 581.12 46.56 581.856 47.04C582.608 47.52 583.16 48.192 583.512 49.056C583.88 49.904 584.064 50.896 584.064 52.032V60.648C584.064 61.752 583.872 62.728 583.488 63.576C583.12 64.424 582.56 65.088 581.808 65.568C581.072 66.048 580.136 66.288 579 66.288ZM579 63.432C579.496 63.432 579.864 63.28 580.104 62.976C580.344 62.672 580.504 62.304 580.584 61.872C580.664 61.44 580.704 61.016 580.704 60.6V52.08C580.704 51.632 580.664 51.192 580.584 50.76C580.52 50.312 580.368 49.936 580.128 49.632C579.888 49.328 579.512 49.176 579 49.176C578.488 49.176 578.112 49.328 577.872 49.632C577.632 49.936 577.472 50.312 577.392 50.76C577.328 51.192 577.296 51.632 577.296 52.08V60.6C577.296 61.016 577.336 61.44 577.416 61.872C577.512 62.304 577.68 62.672 577.92 62.976C578.16 63.28 578.52 63.432 579 63.432ZM588.076 66V46.56H596.068V49.008H591.628V54.672H595.252V57.144H591.628V66H588.076ZM604.135 66.288C602.999 66.288 602.055 66.048 601.303 65.568C600.567 65.088 600.007 64.424 599.623 63.576C599.255 62.728 599.071 61.752 599.071 60.648V52.032C599.071 50.896 599.247 49.904 599.599 49.056C599.967 48.192 600.519 47.52 601.255 47.04C602.007 46.56 602.967 46.32 604.135 46.32C605.303 46.32 606.255 46.56 606.991 47.04C607.743 47.52 608.295 48.192 608.647 49.056C609.015 49.904 609.199 50.896 609.199 52.032V60.648C609.199 61.752 609.007 62.728 608.623 63.576C608.255 64.424 607.695 65.088 606.943 65.568C606.207 66.048 605.271 66.288 604.135 66.288ZM604.135 63.432C604.631 63.432 604.999 63.28 605.239 62.976C605.479 62.672 605.639 62.304 605.719 61.872C605.799 61.44 605.839 61.016 605.839 60.6V52.08C605.839 51.632 605.799 51.192 605.719 50.76C605.655 50.312 605.503 49.936 605.263 49.632C605.023 49.328 604.647 49.176 604.135 49.176C603.623 49.176 603.247 49.328 603.007 49.632C602.767 49.936 602.607 50.312 602.527 50.76C602.463 51.192 602.431 51.632 602.431 52.08V60.6C602.431 61.016 602.471 61.44 602.551 61.872C602.647 62.304 602.815 62.672 603.055 62.976C603.295 63.28 603.655 63.432 604.135 63.432ZM613.211 66V46.56H621.203V49.008H616.763V54.672H620.387V57.144H616.763V66H613.211Z" fill="white"/>
<rect x="654" y="10" width="159" height="200" rx="16" fill="#E62D2D"/>
<path d="M694.272 66L695.136 59.304H693.96L693.984 57.12H695.448L695.784 54.552H694.032L694.056 52.32H696.144L696.888 46.56H699.432L698.688 52.32H700.68L701.448 46.56H703.968L703.2 52.32H704.352L704.304 54.552H702.864L702.528 57.12H704.232L704.208 59.304H702.216L701.328 66H698.784L699.672 59.304H697.68L696.816 66H694.272ZM697.968 57.12H699.984L700.32 54.552H698.328L697.968 57.12ZM707.922 66V46.56H716.082V49.056H711.474V54.648H715.098V57.12H711.474V63.552H716.13V66H707.922ZM724.331 66.264C723.131 66.264 722.155 65.984 721.403 65.424C720.651 64.864 720.099 64.104 719.747 63.144C719.411 62.168 719.243 61.08 719.243 59.88V53.064C719.243 51.8 719.387 50.664 719.675 49.656C719.963 48.632 720.475 47.824 721.211 47.232C721.947 46.64 722.979 46.344 724.307 46.344C725.443 46.344 726.363 46.536 727.067 46.92C727.787 47.288 728.315 47.832 728.651 48.552C728.987 49.272 729.155 50.16 729.155 51.216C729.155 51.264 729.155 51.32 729.155 51.384C729.171 51.432 729.179 51.48 729.179 51.528H725.987C725.987 50.664 725.883 50.016 725.675 49.584C725.467 49.152 725.019 48.936 724.331 48.936C723.915 48.936 723.579 49.064 723.323 49.32C723.067 49.576 722.875 50 722.747 50.592C722.635 51.168 722.579 51.944 722.579 52.92V55.248C722.803 54.88 723.139 54.592 723.587 54.384C724.051 54.16 724.587 54.048 725.195 54.048C726.251 54.032 727.083 54.264 727.691 54.744C728.299 55.224 728.731 55.888 728.987 56.736C729.259 57.584 729.395 58.552 729.395 59.64C729.395 60.904 729.235 62.04 728.915 63.048C728.595 64.04 728.067 64.824 727.331 65.4C726.595 65.976 725.595 66.264 724.331 66.264ZM724.355 63.696C724.819 63.696 725.171 63.552 725.411 63.264C725.651 62.976 725.819 62.576 725.915 62.064C726.011 61.552 726.059 60.952 726.059 60.264C726.059 59.56 726.027 58.936 725.963 58.392C725.915 57.832 725.771 57.392 725.531 57.072C725.291 56.736 724.891 56.568 724.331 56.568C724.059 56.568 723.803 56.624 723.563 56.736C723.339 56.832 723.139 56.96 722.963 57.12C722.803 57.28 722.675 57.44 722.579 57.6V60.648C722.579 61.192 722.627 61.696 722.723 62.16C722.835 62.624 723.019 63 723.275 63.288C723.547 63.56 723.907 63.696 724.355 63.696ZM732.529 66V63.648L737.329 56.232C737.681 55.688 738.009 55.168 738.313 54.672C738.633 54.176 738.889 53.664 739.081 53.136C739.289 52.592 739.393 52 739.393 51.36C739.393 50.64 739.265 50.088 739.009 49.704C738.753 49.32 738.353 49.128 737.809 49.128C737.297 49.128 736.897 49.272 736.609 49.56C736.321 49.848 736.121 50.224 736.009 50.688C735.913 51.152 735.865 51.664 735.865 52.224V53.04H732.601V52.176C732.601 51.024 732.769 50.016 733.105 49.152C733.457 48.272 734.009 47.584 734.761 47.088C735.513 46.592 736.497 46.344 737.713 46.344C739.377 46.344 740.625 46.792 741.457 47.688C742.289 48.584 742.705 49.832 742.705 51.432C742.705 52.232 742.593 52.96 742.369 53.616C742.145 54.256 741.849 54.872 741.481 55.464C741.113 56.056 740.713 56.664 740.281 57.288L736.297 63.336H742.201V66H732.529ZM746.139 66V46.56H750.723C752.307 46.56 753.539 46.776 754.419 47.208C755.315 47.64 755.947 48.304 756.315 49.2C756.699 50.096 756.891 51.232 756.891 52.608V59.712C756.891 61.12 756.699 62.296 756.315 63.24C755.947 64.168 755.323 64.864 754.443 65.328C753.579 65.776 752.387 66 750.867 66H746.139ZM749.691 63.528H750.771C751.587 63.528 752.171 63.384 752.523 63.096C752.875 62.808 753.091 62.392 753.171 61.848C753.251 61.288 753.291 60.608 753.291 59.808V52.368C753.291 51.584 753.235 50.952 753.123 50.472C753.011 49.992 752.779 49.64 752.427 49.416C752.075 49.192 751.507 49.08 750.723 49.08H749.691V63.528ZM760.218 66V63.648L765.018 56.232C765.37 55.688 765.698 55.168 766.002 54.672C766.322 54.176 766.578 53.664 766.77 53.136C766.978 52.592 767.082 52 767.082 51.36C767.082 50.64 766.954 50.088 766.698 49.704C766.442 49.32 766.042 49.128 765.498 49.128C764.986 49.128 764.586 49.272 764.298 49.56C764.01 49.848 763.81 50.224 763.698 50.688C763.602 51.152 763.554 51.664 763.554 52.224V53.04H760.29V52.176C760.29 51.024 760.458 50.016 760.794 49.152C761.146 48.272 761.698 47.584 762.45 47.088C763.202 46.592 764.186 46.344 765.402 46.344C767.066 46.344 768.314 46.792 769.146 47.688C769.978 48.584 770.394 49.832 770.394 51.432C770.394 52.232 770.282 52.96 770.058 53.616C769.834 54.256 769.538 54.872 769.17 55.464C768.802 56.056 768.402 56.664 767.97 57.288L763.986 63.336H769.89V66H760.218ZM773.828 66V46.56H778.412C779.996 46.56 781.228 46.776 782.108 47.208C783.004 47.64 783.636 48.304 784.004 49.2C784.388 50.096 784.58 51.232 784.58 52.608V59.712C784.58 61.12 784.388 62.296 784.004 63.24C783.636 64.168 783.012 64.864 782.132 65.328C781.268 65.776 780.076 66 778.556 66H773.828ZM777.38 63.528H778.46C779.276 63.528 779.86 63.384 780.212 63.096C780.564 62.808 780.78 62.392 780.86 61.848C780.94 61.288 780.98 60.608 780.98 59.808V52.368C780.98 51.584 780.924 50.952 780.812 50.472C780.7 49.992 780.468 49.64 780.116 49.416C779.764 49.192 779.196 49.08 778.412 49.08H777.38V63.528Z" fill="white"/>
</g>
<defs>
<filter id="filter0_d_433_152" x="0" y="0" width="827" height="228" filterUnits="userSpaceOnUse" color-interpolation-filters="sRGB">
<feFlood flood-opacity="0" result="BackgroundImageFix"/>
<feColorMatrix in="SourceAlpha" type="matrix" values="0 0 0 0 0 0 0 0 0 0 0 0 0 0 0 0 0 0 127 0" result="hardAlpha"/>
<feOffset dy="4"/>
<feGaussianBlur stdDeviation="7"/>
<feComposite in2="hardAlpha" operator="out"/>
<feColorMatrix type="matrix" values="0 0 0 0 0 0 0 0 0 0 0 0 0 0 0 0 0 0 0.14 0"/>
<feBlend mode="normal" in2="BackgroundImageFix" result="effect1_dropShadow_433_152"/>
<feBlend mode="normal" in="SourceGraphic" in2="effect1_dropShadow_433_152" result="shape"/>
</filter>
</defs>
</svg>
