<svg width="827" height="228" viewBox="0 0 827 228" fill="none" xmlns="http://www.w3.org/2000/svg">
<g filter="url(#filter0_d_439_172)">
<rect x="14" y="10" width="400" height="200" rx="16" fill="#F1F1F1"/>
<path d="M310.711 50.707L310.348 52.3477H307.688L307.008 55.582H309.914L309.504 57.2227H306.668L305.707 61.5586H303.844L304.781 57.2227H301.945L301.031 61.5586H299.168L300.082 57.2227H297.398L297.727 55.582H300.445L301.09 52.3477H298.23L298.57 50.707H301.43L302.367 46.1953H304.254L303.328 50.707H306.164L307.125 46.1953H308.977L308.039 50.707H310.711ZM305.836 52.3477H302.977L302.273 55.582H305.145L305.836 52.3477ZM323.548 48.5625H317.266V53.6133H323.055V55.9688H317.266V63H314.477V46.1953H323.548V48.5625ZM332.88 45.8203V63H330.162V49.1484C329.67 49.5 329.138 49.8008 328.568 50.0508C328.005 50.293 327.361 50.5078 326.634 50.6953V48.375C327.087 48.2266 327.525 48.0703 327.947 47.9062C328.369 47.7422 328.783 47.5586 329.189 47.3555C329.603 47.1523 330.017 46.9258 330.431 46.6758C330.853 46.4258 331.287 46.1406 331.732 45.8203H332.88ZM347.674 48.5625H341.393V53.6133H347.182V55.9688H341.393V63H338.604V46.1953H347.674V48.5625ZM357.007 45.8203V63H354.288V49.1484C353.796 49.5 353.265 49.8008 352.695 50.0508C352.132 50.293 351.487 50.5078 350.761 50.6953V48.375C351.214 48.2266 351.652 48.0703 352.073 47.9062C352.495 47.7422 352.909 47.5586 353.316 47.3555C353.73 47.1523 354.144 46.9258 354.558 46.6758C354.98 46.4258 355.413 46.1406 355.859 45.8203H357.007ZM371.801 48.5625H365.52V53.6133H371.309V55.9688H365.52V63H362.73V46.1953H371.801V48.5625ZM381.134 45.8203V63H378.415V49.1484C377.923 49.5 377.391 49.8008 376.821 50.0508C376.259 50.293 375.614 50.5078 374.887 50.6953V48.375C375.341 48.2266 375.778 48.0703 376.2 47.9062C376.622 47.7422 377.036 47.5586 377.442 47.3555C377.856 47.1523 378.27 46.9258 378.684 46.6758C379.106 46.4258 379.54 46.1406 379.985 45.8203H381.134Z" fill="black"/>
<rect x="414" y="10" width="240" height="200" rx="16" fill="#0707A4"/>
<path d="M547.711 50.707L547.348 52.3477H544.688L544.008 55.582H546.914L546.504 57.2227H543.668L542.707 61.5586H540.844L541.781 57.2227H538.945L538.031 61.5586H536.168L537.082 57.2227H534.398L534.727 55.582H537.445L538.09 52.3477H535.23L535.57 50.707H538.43L539.367 46.1953H541.254L540.328 50.707H543.164L544.125 46.1953H545.977L545.039 50.707H547.711ZM542.836 52.3477H539.977L539.273 55.582H542.145L542.836 52.3477ZM555.884 63.2812C554.134 63.2812 552.766 62.5664 551.782 61.1367C550.805 59.707 550.317 57.6406 550.317 54.9375C550.317 51.9688 550.829 49.7227 551.852 48.1992C552.876 46.6758 554.352 45.9141 556.282 45.9141C559.977 45.9141 561.825 48.7852 561.825 54.5273C561.825 57.3711 561.302 59.543 560.255 61.043C559.216 62.5352 557.759 63.2812 555.884 63.2812ZM556.153 48.082C554.114 48.082 553.095 50.3281 553.095 54.8203C553.095 59.0234 554.095 61.125 556.095 61.125C558.063 61.125 559.048 58.9883 559.048 54.7148C559.048 50.293 558.083 48.082 556.153 48.082ZM575.986 47.5547C575.283 48.8438 574.619 50.1211 573.994 51.3867C573.369 52.6445 572.802 53.9102 572.295 55.1836C571.787 56.457 571.345 57.7422 570.97 59.0391C570.595 60.3281 570.306 61.6484 570.103 63H567.255C567.443 61.7969 567.709 60.5977 568.052 59.4023C568.404 58.1992 568.814 57 569.283 55.8047C569.752 54.6016 570.275 53.3945 570.853 52.1836C571.439 50.9727 572.06 49.75 572.716 48.5156H564.759V46.1953H575.986V47.5547ZM584.487 63.2812C582.737 63.2812 581.37 62.5664 580.385 61.1367C579.409 59.707 578.92 57.6406 578.92 54.9375C578.92 51.9688 579.432 49.7227 580.455 48.1992C581.479 46.6758 582.955 45.9141 584.885 45.9141C588.58 45.9141 590.428 48.7852 590.428 54.5273C590.428 57.3711 589.905 59.543 588.858 61.043C587.819 62.5352 586.362 63.2812 584.487 63.2812ZM584.756 48.082C582.717 48.082 581.698 50.3281 581.698 54.8203C581.698 59.0234 582.698 61.125 584.698 61.125C586.666 61.125 587.651 58.9883 587.651 54.7148C587.651 50.293 586.686 48.082 584.756 48.082ZM604.589 47.5547C603.886 48.8438 603.222 50.1211 602.597 51.3867C601.972 52.6445 601.405 53.9102 600.898 55.1836C600.39 56.457 599.948 57.7422 599.573 59.0391C599.198 60.3281 598.909 61.6484 598.706 63H595.859C596.046 61.7969 596.312 60.5977 596.655 59.4023C597.007 58.1992 597.417 57 597.886 55.8047C598.355 54.6016 598.878 53.3945 599.456 52.1836C600.042 50.9727 600.663 49.75 601.32 48.5156H593.362V46.1953H604.589V47.5547ZM622.488 63H619.43L617.918 58.7227H611.309L609.855 63H606.809L613.102 46.1953H616.242L622.488 63ZM617.18 56.4492L614.848 49.7461C614.777 49.5273 614.703 49.1758 614.625 48.6914H614.578C614.508 49.1367 614.43 49.4883 614.344 49.7461L612.035 56.4492H617.18ZM634.786 46.1953V57.0469H637.282V59.3086H634.786V63H632.149V59.3086H624.544V57.0234C625.231 56.25 625.934 55.4141 626.653 54.5156C627.38 53.6094 628.075 52.6875 628.739 51.75C629.411 50.8047 630.032 49.8594 630.602 48.9141C631.173 47.9688 631.653 47.0625 632.044 46.1953H634.786ZM632.149 57.0469V49.9922C631.298 51.5234 630.454 52.8594 629.618 54C628.79 55.1406 628.012 56.1562 627.286 57.0469H632.149Z" fill="white"/>
<rect x="654" y="10" width="159" height="200" rx="16" fill="#FD6C03"/>
<path d="M706.711 50.707L706.348 52.3477H703.688L703.008 55.582H705.914L705.504 57.2227H702.668L701.707 61.5586H699.844L700.781 57.2227H697.945L697.031 61.5586H695.168L696.082 57.2227H693.398L693.727 55.582H696.445L697.09 52.3477H694.23L694.57 50.707H697.43L698.367 46.1953H700.254L699.328 50.707H702.164L703.125 46.1953H704.977L704.039 50.707H706.711ZM701.836 52.3477H698.977L698.273 55.582H701.145L701.836 52.3477ZM719.548 48.5625H713.266V53.6133H719.055V55.9688H713.266V63H710.477V46.1953H719.548V48.5625ZM723.748 63V46.1953H728.599C734.795 46.1953 737.892 48.9258 737.892 54.3867C737.892 56.9805 737.033 59.0664 735.314 60.6445C733.595 62.2148 731.291 63 728.4 63H723.748ZM726.525 48.5625V60.6445H728.752C730.712 60.6445 732.236 60.1055 733.322 59.0273C734.416 57.9492 734.962 56.4258 734.962 54.457C734.962 50.5273 732.927 48.5625 728.857 48.5625H726.525ZM752.58 57.5977C752.58 58.4414 752.44 59.2109 752.159 59.9062C751.885 60.6016 751.502 61.2031 751.01 61.7109C750.518 62.2109 749.932 62.6016 749.252 62.8828C748.58 63.1562 747.85 63.293 747.061 63.293C746.217 63.293 745.44 63.1289 744.729 62.8008C744.026 62.4727 743.416 61.9844 742.901 61.3359C742.393 60.6875 741.998 59.8828 741.717 58.9219C741.436 57.9531 741.295 56.832 741.295 55.5586C741.295 54.0039 741.479 52.625 741.846 51.4219C742.221 50.2188 742.733 49.2109 743.381 48.3984C744.03 47.5859 744.791 46.9688 745.666 46.5469C746.541 46.125 747.487 45.9141 748.502 45.9141C749.135 45.9141 749.709 45.957 750.225 46.043C750.748 46.1289 751.166 46.2461 751.479 46.3945V48.8438C751.08 48.6406 750.655 48.4688 750.202 48.3281C749.748 48.1875 749.229 48.1172 748.643 48.1172C747.987 48.1172 747.381 48.25 746.827 48.5156C746.272 48.7812 745.791 49.1719 745.385 49.6875C744.987 50.1953 744.67 50.8281 744.436 51.5859C744.209 52.3359 744.092 53.2031 744.084 54.1875H744.155C744.514 53.6328 744.998 53.1953 745.608 52.875C746.225 52.5547 746.948 52.3945 747.776 52.3945C748.51 52.3945 749.17 52.5156 749.756 52.7578C750.35 52.9922 750.854 53.3359 751.268 53.7891C751.69 54.2344 752.014 54.7812 752.241 55.4297C752.467 56.0703 752.58 56.793 752.58 57.5977ZM749.838 57.8203C749.838 57.3359 749.78 56.8945 749.662 56.4961C749.553 56.0977 749.381 55.7578 749.147 55.4766C748.92 55.1875 748.631 54.9648 748.28 54.8086C747.936 54.6523 747.53 54.5742 747.061 54.5742C746.592 54.5742 746.178 54.6602 745.819 54.832C745.467 54.9961 745.17 55.2148 744.928 55.4883C744.686 55.7617 744.502 56.0742 744.377 56.4258C744.26 56.7773 744.202 57.1367 744.202 57.5039C744.202 57.9023 744.256 58.3125 744.366 58.7344C744.483 59.1484 744.659 59.5273 744.893 59.8711C745.127 60.2148 745.424 60.5 745.784 60.7266C746.151 60.9453 746.584 61.0547 747.084 61.0547C747.53 61.0547 747.924 60.9727 748.268 60.8086C748.612 60.6445 748.897 60.418 749.123 60.1289C749.358 59.8398 749.534 59.5 749.651 59.1094C749.776 58.7109 749.838 58.2812 749.838 57.8203ZM768.499 62.2969C767.234 62.9531 765.659 63.2812 763.777 63.2812C761.339 63.2812 759.386 62.5117 757.917 60.9727C756.448 59.4336 755.714 57.4141 755.714 54.9141C755.714 52.2266 756.538 50.0547 758.187 48.3984C759.843 46.7422 761.933 45.9141 764.456 45.9141C766.081 45.9141 767.429 46.1445 768.499 46.6055V49.3711C767.366 48.6992 766.116 48.3633 764.749 48.3633C762.929 48.3633 761.452 48.9453 760.32 50.1094C759.195 51.2734 758.632 52.8281 758.632 54.7734C758.632 56.625 759.159 58.1016 760.214 59.2031C761.269 60.2969 762.655 60.8438 764.374 60.8438C765.96 60.8438 767.335 60.4688 768.499 59.7188V62.2969ZM777.293 63.2812C775.543 63.2812 774.176 62.5664 773.191 61.1367C772.215 59.707 771.727 57.6406 771.727 54.9375C771.727 51.9688 772.238 49.7227 773.262 48.1992C774.285 46.6758 775.762 45.9141 777.691 45.9141C781.387 45.9141 783.234 48.7852 783.234 54.5273C783.234 57.3711 782.711 59.543 781.664 61.043C780.625 62.5352 779.168 63.2812 777.293 63.2812ZM777.562 48.082C775.523 48.082 774.504 50.3281 774.504 54.8203C774.504 59.0234 775.504 61.125 777.504 61.125C779.473 61.125 780.457 58.9883 780.457 54.7148C780.457 50.293 779.492 48.082 777.562 48.082ZM786.79 62.3789V59.8242C787.884 60.6914 789.118 61.125 790.493 61.125C791.61 61.125 792.501 60.8711 793.165 60.3633C793.837 59.8555 794.173 59.168 794.173 58.3008C794.173 56.3945 792.716 55.4414 789.802 55.4414H788.501V53.2617H789.743C792.329 53.2617 793.622 52.3633 793.622 50.5664C793.622 48.9102 792.614 48.082 790.598 48.082C789.473 48.082 788.415 48.4844 787.423 49.2891V46.875C788.563 46.2344 789.911 45.9141 791.466 45.9141C792.958 45.9141 794.153 46.2891 795.052 47.0391C795.95 47.7891 796.399 48.75 796.399 49.9219C796.399 52.1328 795.274 53.5547 793.024 54.1875V54.2344C794.235 54.3516 795.192 54.7773 795.895 55.5117C796.598 56.2383 796.95 57.1484 796.95 58.2422C796.95 59.75 796.384 60.9688 795.251 61.8984C794.118 62.8203 792.626 63.2812 790.774 63.2812C789.11 63.2812 787.782 62.9805 786.79 62.3789Z" fill="white"/>
</g>
<defs>
<filter id="filter0_d_439_172" x="0" y="0" width="827" height="228" filterUnits="userSpaceOnUse" color-interpolation-filters="sRGB">
<feFlood flood-opacity="0" result="BackgroundImageFix"/>
<feColorMatrix in="SourceAlpha" type="matrix" values="0 0 0 0 0 0 0 0 0 0 0 0 0 0 0 0 0 0 127 0" result="hardAlpha"/>
<feOffset dy="4"/>
<feGaussianBlur stdDeviation="7"/>
<feComposite in2="hardAlpha" operator="out"/>
<feColorMatrix type="matrix" values="0 0 0 0 0 0 0 0 0 0 0 0 0 0 0 0 0 0 0.14 0"/>
<feBlend mode="normal" in2="BackgroundImageFix" result="effect1_dropShadow_439_172"/>
<feBlend mode="normal" in="SourceGraphic" in2="effect1_dropShadow_439_172" result="shape"/>
</filter>
</defs>
</svg>
