<svg width="819" height="252" viewBox="0 0 819 252" fill="none" xmlns="http://www.w3.org/2000/svg">
<path d="M46.7227 97.5H38.3203V75.6328H14.5898V97.5H6.22266V47.0859H14.5898V68.2852H38.3203V47.0859H46.7227V97.5ZM78.1664 45.9609V97.5H70.0102V55.9453C68.5336 57 66.9398 57.9023 65.2289 58.6523C63.5414 59.3789 61.6078 60.0234 59.4281 60.5859V53.625C60.7875 53.1797 62.1 52.7109 63.3656 52.2188C64.6312 51.7266 65.8734 51.1758 67.0922 50.5664C68.3344 49.957 69.5766 49.2773 70.8187 48.5273C72.0844 47.7773 73.3852 46.9219 74.7211 45.9609H78.1664Z" fill="black"/>
<path d="M146.34 90.5H139.805V73.4922H121.348V90.5H114.84V51.2891H121.348V67.7773H139.805V51.2891H146.34V90.5ZM181.269 90.5H156.659V87.4648C156.659 86.2253 156.833 85.0677 157.179 83.9922C157.525 82.8984 157.99 81.8776 158.573 80.9297C159.157 79.9635 159.84 79.0612 160.624 78.2227C161.408 77.3659 162.247 76.5456 163.14 75.7617C164.033 74.9596 164.945 74.194 165.874 73.4648C166.804 72.7174 167.715 71.9701 168.609 71.2227C169.447 70.5117 170.213 69.819 170.905 69.1445C171.598 68.4518 172.191 67.7409 172.683 67.0117C173.175 66.2826 173.558 65.5169 173.831 64.7148C174.105 63.8945 174.241 63.0104 174.241 62.0625C174.241 61.0234 174.077 60.1211 173.749 59.3555C173.439 58.5716 172.993 57.9245 172.409 57.4141C171.844 56.8854 171.17 56.4935 170.386 56.2383C169.602 55.9648 168.745 55.8281 167.816 55.8281C166.211 55.8281 164.58 56.2018 162.921 56.9492C161.262 57.6966 159.667 58.8177 158.136 60.3125V54.2148C158.938 53.6133 159.749 53.0938 160.57 52.6562C161.39 52.2005 162.237 51.8268 163.112 51.5352C163.987 51.2253 164.908 50.9974 165.874 50.8516C166.84 50.7057 167.87 50.6328 168.964 50.6328C170.732 50.6328 172.336 50.8698 173.777 51.3438C175.217 51.7995 176.447 52.4831 177.468 53.3945C178.489 54.2878 179.273 55.4089 179.82 56.7578C180.385 58.1068 180.667 59.6562 180.667 61.4062C180.667 62.9922 180.467 64.4232 180.066 65.6992C179.683 66.957 179.127 68.1328 178.398 69.2266C177.687 70.3203 176.821 71.3594 175.8 72.3438C174.779 73.3281 173.64 74.3398 172.382 75.3789C171.325 76.2357 170.267 77.0742 169.21 77.8945C168.171 78.6966 167.232 79.4896 166.394 80.2734C165.555 81.0391 164.872 81.8138 164.343 82.5977C163.833 83.3633 163.577 84.138 163.577 84.9219V85.0586H181.269V90.5Z" fill="black"/>
<path d="M230.766 81H227.031V71.2812H216.484V81H212.766V58.5938H216.484V68.0156H227.031V58.5938H230.766V81ZM237.053 80.1719V76.7656C238.511 77.9219 240.157 78.5 241.991 78.5C243.48 78.5 244.668 78.1615 245.553 77.4844C246.449 76.8073 246.897 75.8906 246.897 74.7344C246.897 72.1927 244.954 70.9219 241.069 70.9219H239.334V68.0156H240.991C244.439 68.0156 246.163 66.8177 246.163 64.4219C246.163 62.2135 244.819 61.1094 242.131 61.1094C240.631 61.1094 239.22 61.6458 237.897 62.7188V59.5C239.418 58.6458 241.215 58.2188 243.288 58.2188C245.277 58.2188 246.871 58.7188 248.069 59.7188C249.267 60.7188 249.866 62 249.866 63.5625C249.866 66.5104 248.366 68.4062 245.366 69.25V69.3125C246.98 69.4688 248.256 70.0365 249.194 71.0156C250.131 71.9844 250.6 73.1979 250.6 74.6562C250.6 76.6667 249.845 78.2917 248.334 79.5312C246.824 80.7604 244.834 81.375 242.366 81.375C240.147 81.375 238.376 80.974 237.053 80.1719Z" fill="black"/>
<path d="M292.574 77.5H289.773V70.2109H281.863V77.5H279.074V60.6953H281.863V67.7617H289.773V60.6953H292.574V77.5ZM308.329 72.0977C308.329 72.9414 308.188 73.7109 307.907 74.4062C307.634 75.1016 307.251 75.7031 306.759 76.2109C306.266 76.7109 305.68 77.1016 305.001 77.3828C304.329 77.6562 303.598 77.793 302.809 77.793C301.966 77.793 301.188 77.6289 300.477 77.3008C299.774 76.9727 299.165 76.4844 298.649 75.8359C298.141 75.1875 297.747 74.3828 297.466 73.4219C297.184 72.4531 297.044 71.332 297.044 70.0586C297.044 68.5039 297.227 67.125 297.595 65.9219C297.97 64.7188 298.481 63.7109 299.13 62.8984C299.778 62.0859 300.54 61.4688 301.415 61.0469C302.29 60.625 303.235 60.4141 304.251 60.4141C304.884 60.4141 305.458 60.457 305.973 60.543C306.497 60.6289 306.915 60.7461 307.227 60.8945V63.3438C306.829 63.1406 306.403 62.9688 305.95 62.8281C305.497 62.6875 304.977 62.6172 304.391 62.6172C303.735 62.6172 303.13 62.75 302.575 63.0156C302.02 63.2812 301.54 63.6719 301.134 64.1875C300.735 64.6953 300.419 65.3281 300.184 66.0859C299.958 66.8359 299.841 67.7031 299.833 68.6875H299.903C300.263 68.1328 300.747 67.6953 301.356 67.375C301.973 67.0547 302.696 66.8945 303.524 66.8945C304.259 66.8945 304.919 67.0156 305.505 67.2578C306.098 67.4922 306.602 67.8359 307.016 68.2891C307.438 68.7344 307.763 69.2812 307.989 69.9297C308.216 70.5703 308.329 71.293 308.329 72.0977ZM305.587 72.3203C305.587 71.8359 305.528 71.3945 305.411 70.9961C305.302 70.5977 305.13 70.2578 304.895 69.9766C304.669 69.6875 304.38 69.4648 304.028 69.3086C303.684 69.1523 303.278 69.0742 302.809 69.0742C302.341 69.0742 301.927 69.1602 301.567 69.332C301.216 69.4961 300.919 69.7148 300.677 69.9883C300.434 70.2617 300.251 70.5742 300.126 70.9258C300.009 71.2773 299.95 71.6367 299.95 72.0039C299.95 72.4023 300.005 72.8125 300.114 73.2344C300.231 73.6484 300.407 74.0273 300.641 74.3711C300.876 74.7148 301.173 75 301.532 75.2266C301.899 75.4453 302.333 75.5547 302.833 75.5547C303.278 75.5547 303.673 75.4727 304.016 75.3086C304.36 75.1445 304.645 74.918 304.872 74.6289C305.106 74.3398 305.282 74 305.399 73.6094C305.524 73.2109 305.587 72.7812 305.587 72.3203Z" fill="black"/>
<path d="M337.234 69.9375V74H335.383V62.7969H338.781C340.068 62.7969 341.065 63.0964 341.773 63.6953C342.482 64.2943 342.836 65.138 342.836 66.2266C342.836 67.3151 342.466 68.2057 341.727 68.8984C340.987 69.5911 339.987 69.9375 338.727 69.9375H337.234ZM337.234 64.3281V68.4219H338.438C339.234 68.4219 339.841 68.237 340.258 67.8672C340.674 67.4974 340.883 66.9766 340.883 66.3047C340.883 64.987 340.117 64.3281 338.586 64.3281H337.234Z" fill="black"/>
<path d="M9.6416 144.672H6.02051V155.5H3.92871V144.672H0.316406V142.896H9.6416V144.672ZM20.1568 155.5H18.1178V150.578C18.1178 148.797 17.523 147.906 16.3336 147.906C15.7359 147.906 15.232 148.164 14.8219 148.68C14.4117 149.195 14.2066 149.854 14.2066 150.657V155.5H12.1588V142.176H14.2066V147.994H14.2418C14.9215 146.857 15.8941 146.289 17.1598 146.289C19.1578 146.289 20.1568 147.511 20.1568 149.954V155.5ZM31.1555 151.554H25.0207C25.0441 152.386 25.299 153.027 25.7854 153.479C26.2775 153.93 26.9514 154.155 27.8068 154.155C28.7678 154.155 29.6496 153.868 30.4523 153.294V154.938C29.632 155.453 28.548 155.711 27.2004 155.711C25.8762 155.711 24.8361 155.304 24.0803 154.489C23.3303 153.669 22.9553 152.518 22.9553 151.035C22.9553 149.635 23.3684 148.495 24.1945 147.616C25.0266 146.731 26.0578 146.289 27.2883 146.289C28.5187 146.289 29.4709 146.685 30.1447 147.476C30.8186 148.267 31.1555 149.365 31.1555 150.771V151.554ZM29.1867 150.112C29.1809 149.38 29.008 148.812 28.6682 148.407C28.3283 147.997 27.8596 147.792 27.2619 147.792C26.676 147.792 26.1779 148.006 25.7678 148.434C25.3635 148.861 25.1145 149.421 25.0207 150.112H29.1867ZM48.0375 159.64H45.9984V153.953H45.9633C45.348 155.125 44.3432 155.711 42.9486 155.711C41.8412 155.711 40.9506 155.31 40.2768 154.507C39.6088 153.698 39.2748 152.6 39.2748 151.211C39.2748 149.717 39.641 148.524 40.3734 147.634C41.1117 146.737 42.102 146.289 43.3441 146.289C44.5512 146.289 45.4242 146.775 45.9633 147.748H45.9984V146.5H48.0375V159.64ZM46.0248 151.404V150.244C46.0248 149.594 45.8139 149.043 45.392 148.592C44.976 148.141 44.4457 147.915 43.8012 147.915C43.0453 147.915 42.4477 148.199 42.0082 148.768C41.5746 149.33 41.3578 150.127 41.3578 151.158C41.3578 152.072 41.5687 152.79 41.9906 153.312C42.4125 153.833 42.9574 154.094 43.6254 154.094C44.3578 154.094 44.9408 153.839 45.3744 153.329C45.808 152.819 46.0248 152.178 46.0248 151.404ZM59.4492 155.5H57.4102V154.076H57.375C56.7832 155.166 55.8633 155.711 54.6152 155.711C52.4883 155.711 51.4248 154.434 51.4248 151.879V146.5H53.4639V151.668C53.4639 153.285 54.0879 154.094 55.3359 154.094C55.9395 154.094 56.4346 153.871 56.8213 153.426C57.2139 152.98 57.4102 152.397 57.4102 151.677V146.5H59.4492V155.5ZM64.0406 144.61C63.7066 144.61 63.4195 144.502 63.1793 144.285C62.9449 144.068 62.8277 143.793 62.8277 143.459C62.8277 143.125 62.9449 142.847 63.1793 142.624C63.4195 142.401 63.7066 142.29 64.0406 142.29C64.3863 142.29 64.6793 142.401 64.9195 142.624C65.1598 142.847 65.2799 143.125 65.2799 143.459C65.2799 143.775 65.1598 144.048 64.9195 144.276C64.6793 144.499 64.3863 144.61 64.0406 144.61ZM65.0514 155.5H63.0123V146.5H65.0514V155.5ZM75.0656 155.087C74.3449 155.503 73.4924 155.711 72.508 155.711C71.1721 155.711 70.0939 155.295 69.2736 154.463C68.4533 153.625 68.0432 152.541 68.0432 151.211C68.0432 149.729 68.4826 148.539 69.3615 147.643C70.2463 146.74 71.427 146.289 72.9035 146.289C73.7238 146.289 74.4475 146.433 75.0744 146.72V148.618C74.4475 148.149 73.7795 147.915 73.0705 147.915C72.2092 147.915 71.5031 148.208 70.9523 148.794C70.4016 149.374 70.1262 150.136 70.1262 151.079C70.1262 152.011 70.384 152.746 70.8996 153.285C71.4211 153.824 72.1184 154.094 72.9914 154.094C73.7238 154.094 74.4152 153.833 75.0656 153.312V155.087ZM86.1609 155.5H83.577L80.0789 151.176H80.0437V155.5H77.9959V142.176H80.0437V150.622H80.0789L83.3836 146.5H85.8357L82.118 150.842L86.1609 155.5ZM96.2842 154.199H96.249V155.5H94.21V142.176H96.249V148.082H96.2842C96.9814 146.887 98.001 146.289 99.3428 146.289C100.479 146.289 101.367 146.693 102.006 147.502C102.65 148.305 102.973 149.383 102.973 150.736C102.973 152.242 102.612 153.449 101.892 154.357C101.171 155.26 100.187 155.711 98.9385 155.711C97.7666 155.711 96.8818 155.207 96.2842 154.199ZM96.2314 150.622V151.738C96.2314 152.395 96.4395 152.951 96.8555 153.408C97.2773 153.865 97.8105 154.094 98.4551 154.094C99.2109 154.094 99.8027 153.801 100.23 153.215C100.664 152.623 100.881 151.8 100.881 150.745C100.881 149.86 100.679 149.169 100.274 148.671C99.876 148.167 99.334 147.915 98.6484 147.915C97.9219 147.915 97.3359 148.173 96.8906 148.688C96.4512 149.204 96.2314 149.849 96.2314 150.622ZM111.176 148.442C110.93 148.249 110.576 148.152 110.113 148.152C109.509 148.152 109.005 148.425 108.601 148.97C108.197 149.515 107.995 150.256 107.995 151.193V155.5H105.956V146.5H107.995V148.354H108.03C108.229 147.722 108.534 147.229 108.944 146.878C109.36 146.521 109.823 146.342 110.333 146.342C110.702 146.342 110.983 146.397 111.176 146.509V148.442ZM117.35 155.711C115.961 155.711 114.851 155.292 114.019 154.454C113.193 153.61 112.779 152.494 112.779 151.105C112.779 149.594 113.21 148.413 114.071 147.563C114.939 146.714 116.105 146.289 117.57 146.289C118.976 146.289 120.071 146.702 120.857 147.528C121.642 148.354 122.034 149.5 122.034 150.965C122.034 152.4 121.61 153.552 120.76 154.419C119.916 155.28 118.779 155.711 117.35 155.711ZM117.446 147.915C116.65 147.915 116.02 148.193 115.557 148.75C115.094 149.307 114.863 150.074 114.863 151.053C114.863 151.996 115.097 152.74 115.566 153.285C116.034 153.824 116.661 154.094 117.446 154.094C118.249 154.094 118.864 153.827 119.292 153.294C119.726 152.761 119.943 152.002 119.943 151.018C119.943 150.027 119.726 149.263 119.292 148.724C118.864 148.185 118.249 147.915 117.446 147.915ZM137.12 146.5L134.466 155.5H132.33L130.695 149.4C130.631 149.166 130.59 148.902 130.572 148.609H130.537C130.525 148.809 130.472 149.066 130.379 149.383L128.603 155.5H126.512L123.866 146.5H125.975L127.61 152.986C127.663 153.18 127.698 153.438 127.716 153.76H127.777C127.795 153.514 127.842 153.25 127.918 152.969L129.737 146.5H131.653L133.27 153.013C133.323 153.218 133.361 153.476 133.385 153.786H133.446C133.458 153.569 133.502 153.312 133.578 153.013L135.178 146.5H137.12ZM147.556 155.5H145.517V150.429C145.517 148.747 144.922 147.906 143.733 147.906C143.112 147.906 142.599 148.141 142.195 148.609C141.79 149.072 141.588 149.658 141.588 150.367V155.5H139.54V146.5H141.588V147.994H141.623C142.297 146.857 143.27 146.289 144.541 146.289C145.52 146.289 146.267 146.608 146.783 147.247C147.298 147.88 147.556 148.797 147.556 149.998V155.5ZM161.898 143.837C161.623 143.679 161.309 143.6 160.958 143.6C159.967 143.6 159.472 144.159 159.472 145.278V146.5H161.564V148.1H159.481V155.5H157.442V148.1H155.904V146.5H157.442V145.041C157.442 144.092 157.753 143.345 158.374 142.8C158.995 142.249 159.771 141.974 160.703 141.974C161.207 141.974 161.605 142.029 161.898 142.141V143.837ZM167.904 155.711C166.516 155.711 165.405 155.292 164.573 154.454C163.747 153.61 163.334 152.494 163.334 151.105C163.334 149.594 163.765 148.413 164.626 147.563C165.493 146.714 166.659 146.289 168.124 146.289C169.53 146.289 170.626 146.702 171.411 147.528C172.196 148.354 172.589 149.5 172.589 150.965C172.589 152.4 172.164 153.552 171.315 154.419C170.471 155.28 169.334 155.711 167.904 155.711ZM168.001 147.915C167.204 147.915 166.574 148.193 166.112 148.75C165.649 149.307 165.417 150.074 165.417 151.053C165.417 151.996 165.652 152.74 166.12 153.285C166.589 153.824 167.216 154.094 168.001 154.094C168.804 154.094 169.419 153.827 169.847 153.294C170.28 152.761 170.497 152.002 170.497 151.018C170.497 150.027 170.28 149.263 169.847 148.724C169.419 148.185 168.804 147.915 168.001 147.915ZM182.814 146.5L179.817 151.053L182.779 155.5H180.415L178.833 152.714C178.733 152.544 178.616 152.327 178.481 152.063H178.446C178.423 152.116 178.3 152.333 178.077 152.714L176.469 155.5H174.113L177.172 151.088L174.271 146.5H176.644L178.2 149.427C178.317 149.644 178.431 149.866 178.543 150.095H178.569L180.582 146.5H182.814ZM193.104 155.122C193.104 156.599 192.794 157.735 192.173 158.532C191.552 159.335 190.664 159.736 189.51 159.736C189.082 159.736 188.666 159.643 188.262 159.455V157.706C188.643 157.97 189.003 158.102 189.343 158.102C190.491 158.102 191.065 157.088 191.065 155.061V146.5H193.104V155.122ZM192.103 144.61C191.769 144.61 191.481 144.502 191.241 144.285C191.007 144.068 190.89 143.793 190.89 143.459C190.89 143.125 191.007 142.847 191.241 142.624C191.481 142.401 191.769 142.29 192.103 142.29C192.442 142.29 192.732 142.401 192.973 142.624C193.213 142.847 193.333 143.125 193.333 143.459C193.333 143.775 193.213 144.048 192.973 144.276C192.732 144.499 192.442 144.61 192.103 144.61ZM204.525 155.5H202.486V154.076H202.451C201.859 155.166 200.939 155.711 199.691 155.711C197.564 155.711 196.501 154.434 196.501 151.879V146.5H198.54V151.668C198.54 153.285 199.164 154.094 200.412 154.094C201.015 154.094 201.51 153.871 201.897 153.426C202.29 152.98 202.486 152.397 202.486 151.677V146.5H204.525V155.5ZM221.544 155.5H219.505V150.596C219.505 149.652 219.37 148.97 219.101 148.548C218.837 148.126 218.389 147.915 217.756 147.915C217.223 147.915 216.769 148.182 216.394 148.715C216.025 149.248 215.84 149.887 215.84 150.631V155.5H213.792V150.429C213.792 148.753 213.2 147.915 212.017 147.915C211.466 147.915 211.012 148.167 210.654 148.671C210.303 149.175 210.127 149.828 210.127 150.631V155.5H208.088V146.5H210.127V147.924H210.162C210.813 146.834 211.759 146.289 213.001 146.289C213.622 146.289 214.164 146.462 214.627 146.808C215.096 147.147 215.415 147.596 215.585 148.152C216.253 146.91 217.249 146.289 218.573 146.289C220.554 146.289 221.544 147.511 221.544 149.954V155.5ZM227.006 154.173H226.971V159.64H224.931V146.5H226.971V148.082H227.006C227.703 146.887 228.722 146.289 230.064 146.289C231.207 146.289 232.097 146.69 232.736 147.493C233.375 148.296 233.694 149.374 233.694 150.728C233.694 152.228 233.334 153.429 232.613 154.331C231.892 155.233 230.908 155.685 229.66 155.685C228.512 155.685 227.627 155.181 227.006 154.173ZM226.953 150.622V151.738C226.953 152.395 227.161 152.951 227.577 153.408C227.999 153.865 228.532 154.094 229.177 154.094C229.932 154.094 230.524 153.801 230.952 153.215C231.386 152.623 231.602 151.8 231.602 150.745C231.602 149.86 231.4 149.169 230.996 148.671C230.597 148.167 230.055 147.915 229.37 147.915C228.643 147.915 228.057 148.173 227.612 148.688C227.173 149.204 226.953 149.849 226.953 150.622ZM236.115 155.219V153.329C236.876 153.909 237.717 154.199 238.637 154.199C239.868 154.199 240.483 153.836 240.483 153.109C240.483 152.904 240.43 152.731 240.325 152.591C240.219 152.444 240.076 152.315 239.894 152.204C239.718 152.093 239.507 151.993 239.261 151.905C239.021 151.817 238.751 151.718 238.453 151.606C238.083 151.46 237.749 151.305 237.451 151.141C237.158 150.977 236.912 150.792 236.712 150.587C236.519 150.376 236.372 150.139 236.273 149.875C236.173 149.611 236.123 149.304 236.123 148.952C236.123 148.519 236.226 148.138 236.431 147.81C236.636 147.476 236.912 147.197 237.257 146.975C237.603 146.746 237.996 146.576 238.435 146.465C238.874 146.348 239.329 146.289 239.797 146.289C240.629 146.289 241.373 146.415 242.03 146.667V148.451C241.397 148.018 240.67 147.801 239.85 147.801C239.592 147.801 239.358 147.827 239.147 147.88C238.942 147.933 238.766 148.006 238.62 148.1C238.473 148.193 238.359 148.308 238.277 148.442C238.195 148.571 238.154 148.715 238.154 148.873C238.154 149.066 238.195 149.23 238.277 149.365C238.359 149.5 238.479 149.62 238.637 149.726C238.801 149.825 238.995 149.919 239.217 150.007C239.446 150.089 239.706 150.18 239.999 150.279C240.386 150.438 240.732 150.599 241.037 150.763C241.347 150.927 241.611 151.114 241.828 151.325C242.044 151.53 242.211 151.771 242.329 152.046C242.446 152.315 242.504 152.638 242.504 153.013C242.504 153.47 242.399 153.868 242.188 154.208C241.977 154.548 241.696 154.829 241.344 155.052C240.993 155.274 240.585 155.438 240.122 155.544C239.665 155.655 239.182 155.711 238.672 155.711C237.688 155.711 236.835 155.547 236.115 155.219ZM255.194 155.711C253.805 155.711 252.695 155.292 251.863 154.454C251.037 153.61 250.624 152.494 250.624 151.105C250.624 149.594 251.054 148.413 251.916 147.563C252.783 146.714 253.949 146.289 255.414 146.289C256.82 146.289 257.916 146.702 258.701 147.528C259.486 148.354 259.879 149.5 259.879 150.965C259.879 152.4 259.454 153.552 258.604 154.419C257.76 155.28 256.624 155.711 255.194 155.711ZM255.291 147.915C254.494 147.915 253.864 148.193 253.401 148.75C252.938 149.307 252.707 150.074 252.707 151.053C252.707 151.996 252.941 152.74 253.41 153.285C253.879 153.824 254.505 154.094 255.291 154.094C256.093 154.094 256.709 153.827 257.136 153.294C257.57 152.761 257.787 152.002 257.787 151.018C257.787 150.027 257.57 149.263 257.136 148.724C256.709 148.185 256.093 147.915 255.291 147.915ZM270.613 146.5L267.133 155.5H264.927L261.613 146.5H263.828L265.823 152.793C265.976 153.256 266.07 153.66 266.105 154.006H266.131C266.184 153.572 266.266 153.18 266.377 152.828L268.469 146.5H270.613ZM280.382 151.554H274.247C274.27 152.386 274.525 153.027 275.012 153.479C275.504 153.93 276.178 154.155 277.033 154.155C277.994 154.155 278.876 153.868 279.679 153.294V154.938C278.858 155.453 277.774 155.711 276.427 155.711C275.102 155.711 274.062 155.304 273.306 154.489C272.556 153.669 272.181 152.518 272.181 151.035C272.181 149.635 272.595 148.495 273.421 147.616C274.253 146.731 275.284 146.289 276.514 146.289C277.745 146.289 278.697 146.685 279.371 147.476C280.045 148.267 280.382 149.365 280.382 150.771V151.554ZM278.413 150.112C278.407 149.38 278.234 148.812 277.894 148.407C277.555 147.997 277.086 147.792 276.488 147.792C275.902 147.792 275.404 148.006 274.994 148.434C274.59 148.861 274.341 149.421 274.247 150.112H278.413ZM288.445 148.442C288.199 148.249 287.844 148.152 287.381 148.152C286.778 148.152 286.274 148.425 285.87 148.97C285.465 149.515 285.263 150.256 285.263 151.193V155.5H283.224V146.5H285.263V148.354H285.298C285.497 147.722 285.802 147.229 286.212 146.878C286.628 146.521 287.091 146.342 287.601 146.342C287.97 146.342 288.251 146.397 288.445 146.509V148.442ZM301.389 155.403C300.991 155.603 300.466 155.702 299.816 155.702C298.07 155.702 297.197 154.864 297.197 153.188V148.1H295.694V146.5H297.197V144.417L299.236 143.837V146.5H301.389V148.1H299.236V152.6C299.236 153.133 299.333 153.514 299.526 153.742C299.719 153.971 300.042 154.085 300.493 154.085C300.838 154.085 301.137 153.985 301.389 153.786V155.403ZM312.045 155.5H310.006V150.578C310.006 148.797 309.411 147.906 308.222 147.906C307.624 147.906 307.12 148.164 306.71 148.68C306.3 149.195 306.095 149.854 306.095 150.657V155.5H304.047V142.176H306.095V147.994H306.13C306.81 146.857 307.782 146.289 309.048 146.289C311.046 146.289 312.045 147.511 312.045 149.954V155.5ZM323.044 151.554H316.909C316.932 152.386 317.187 153.027 317.674 153.479C318.166 153.93 318.84 154.155 319.695 154.155C320.656 154.155 321.538 153.868 322.341 153.294V154.938C321.52 155.453 320.436 155.711 319.089 155.711C317.764 155.711 316.724 155.304 315.969 154.489C315.219 153.669 314.844 152.518 314.844 151.035C314.844 149.635 315.257 148.495 316.083 147.616C316.915 146.731 317.946 146.289 319.177 146.289C320.407 146.289 321.359 146.685 322.033 147.476C322.707 148.267 323.044 149.365 323.044 150.771V151.554ZM321.075 150.112C321.069 149.38 320.896 148.812 320.556 148.407C320.217 147.997 319.748 147.792 319.15 147.792C318.564 147.792 318.066 148.006 317.656 148.434C317.252 148.861 317.003 149.421 316.909 150.112H321.075ZM333.791 155.5H331.743V142.176H333.791V155.5ZM344.262 155.5H342.285V154.094H342.25C341.629 155.172 340.717 155.711 339.516 155.711C338.631 155.711 337.937 155.471 337.433 154.99C336.935 154.51 336.686 153.874 336.686 153.083C336.686 151.384 337.665 150.394 339.622 150.112L342.294 149.734C342.294 148.451 341.684 147.81 340.465 147.81C339.393 147.81 338.426 148.179 337.565 148.917V147.133C338.514 146.57 339.61 146.289 340.852 146.289C343.126 146.289 344.262 147.408 344.262 149.646V155.5ZM342.294 151.079L340.404 151.343C339.818 151.419 339.376 151.562 339.077 151.773C338.784 151.979 338.637 152.342 338.637 152.863C338.637 153.244 338.772 153.558 339.042 153.804C339.317 154.044 339.683 154.164 340.14 154.164C340.761 154.164 341.274 153.947 341.678 153.514C342.088 153.074 342.294 152.523 342.294 151.861V151.079ZM354.303 147.353L349.443 153.909H354.285V155.5H346.586V154.735L351.552 148.091H347.061V146.5H354.303V147.353ZM364.721 146.5L360.661 156.941C359.817 158.805 358.634 159.736 357.11 159.736C356.682 159.736 356.325 159.698 356.038 159.622V157.926C356.36 158.031 356.653 158.084 356.917 158.084C357.679 158.084 358.247 157.709 358.622 156.959L359.228 155.482L355.651 146.5H357.91L360.055 153.039C360.078 153.121 360.131 153.338 360.213 153.689H360.257C360.286 153.555 360.339 153.344 360.415 153.057L362.665 146.5H364.721ZM9.50977 179.5H7.4707V177.971H7.43555C6.7793 179.131 5.76855 179.711 4.40332 179.711C3.2959 179.711 2.4082 179.31 1.74023 178.507C1.07812 177.698 0.74707 176.6 0.74707 175.211C0.74707 173.723 1.11328 172.53 1.8457 171.634C2.58398 170.737 3.56543 170.289 4.79004 170.289C6.00293 170.289 6.88477 170.775 7.43555 171.748H7.4707V166.176H9.50977V179.5ZM7.49707 175.387V174.209C7.49707 173.57 7.28906 173.028 6.87305 172.583C6.45703 172.138 5.92676 171.915 5.28223 171.915C4.52051 171.915 3.91992 172.199 3.48047 172.768C3.04688 173.336 2.83008 174.124 2.83008 175.132C2.83008 176.046 3.03809 176.77 3.4541 177.303C3.87598 177.83 4.44141 178.094 5.15039 178.094C5.84766 178.094 6.41309 177.839 6.84668 177.329C7.28027 176.813 7.49707 176.166 7.49707 175.387ZM17.0631 179.711C15.6744 179.711 14.5641 179.292 13.732 178.454C12.9059 177.61 12.4928 176.494 12.4928 175.105C12.4928 173.594 12.9234 172.413 13.7848 171.563C14.652 170.714 15.818 170.289 17.2828 170.289C18.6891 170.289 19.7848 170.702 20.5699 171.528C21.3551 172.354 21.7477 173.5 21.7477 174.965C21.7477 176.4 21.3229 177.552 20.4732 178.419C19.6295 179.28 18.4928 179.711 17.0631 179.711ZM17.1598 171.915C16.3629 171.915 15.733 172.193 15.2701 172.75C14.8072 173.307 14.5758 174.074 14.5758 175.053C14.5758 175.996 14.8102 176.74 15.2789 177.285C15.7477 177.824 16.3746 178.094 17.1598 178.094C17.9625 178.094 18.5777 177.827 19.0055 177.294C19.4391 176.761 19.6559 176.002 19.6559 175.018C19.6559 174.027 19.4391 173.263 19.0055 172.724C18.5777 172.185 17.9625 171.915 17.1598 171.915ZM32.9221 178.779C32.9221 182.084 31.2609 183.736 27.9387 183.736C26.7668 183.736 25.7443 183.54 24.8713 183.147V181.284C25.8557 181.847 26.7902 182.128 27.675 182.128C29.8137 182.128 30.883 181.076 30.883 178.973V177.988H30.8479C30.174 179.137 29.1604 179.711 27.8068 179.711C26.7111 179.711 25.8264 179.312 25.1525 178.516C24.4846 177.713 24.1506 176.638 24.1506 175.29C24.1506 173.761 24.5109 172.545 25.2316 171.643C25.9523 170.74 26.9426 170.289 28.2023 170.289C29.3918 170.289 30.2736 170.775 30.8479 171.748H30.883V170.5H32.9221V178.779ZM30.9006 175.378V174.209C30.9006 173.576 30.6896 173.037 30.2678 172.592C29.8518 172.141 29.3303 171.915 28.7033 171.915C27.9299 171.915 27.3234 172.202 26.884 172.776C26.4504 173.345 26.2336 174.142 26.2336 175.167C26.2336 176.052 26.4416 176.761 26.8576 177.294C27.2795 177.821 27.8361 178.085 28.5275 178.085C29.2307 178.085 29.802 177.833 30.2414 177.329C30.6809 176.819 30.9006 176.169 30.9006 175.378ZM37.3201 179.693C36.9686 179.693 36.6697 179.579 36.4236 179.351C36.1775 179.116 36.0545 178.838 36.0545 178.516C36.0545 178.188 36.1775 177.906 36.4236 177.672C36.6697 177.438 36.9686 177.32 37.3201 177.32C37.6775 177.32 37.9793 177.438 38.2254 177.672C38.4773 177.906 38.6033 178.188 38.6033 178.516C38.6033 178.838 38.4773 179.116 38.2254 179.351C37.9793 179.579 37.6775 179.693 37.3201 179.693ZM55.8896 168.672H52.2686V179.5H50.1768V168.672H46.5645V166.896H55.8896V168.672ZM66.4049 179.5H64.3658V174.578C64.3658 172.797 63.7711 171.906 62.5816 171.906C61.984 171.906 61.4801 172.164 61.0699 172.68C60.6598 173.195 60.4547 173.854 60.4547 174.657V179.5H58.4068V166.176H60.4547V171.994H60.4898C61.1695 170.857 62.1422 170.289 63.4078 170.289C65.4059 170.289 66.4049 171.511 66.4049 173.954V179.5ZM77.4035 175.554H71.2688C71.2922 176.386 71.5471 177.027 72.0334 177.479C72.5256 177.93 73.1994 178.155 74.0549 178.155C75.0158 178.155 75.8977 177.868 76.7004 177.294V178.938C75.8801 179.453 74.7961 179.711 73.4484 179.711C72.1242 179.711 71.0842 179.304 70.3283 178.489C69.5783 177.669 69.2033 176.518 69.2033 175.035C69.2033 173.635 69.6164 172.495 70.4426 171.616C71.2746 170.731 72.3059 170.289 73.5363 170.289C74.7668 170.289 75.7189 170.685 76.3928 171.476C77.0666 172.267 77.4035 173.365 77.4035 174.771V175.554ZM75.4348 174.112C75.4289 173.38 75.2561 172.812 74.9162 172.407C74.5764 171.997 74.1076 171.792 73.51 171.792C72.924 171.792 72.426 172.006 72.0158 172.434C71.6115 172.861 71.3625 173.421 71.2688 174.112H75.4348ZM94.2855 183.64H92.2465V177.953H92.2113C91.5961 179.125 90.5912 179.711 89.1967 179.711C88.0893 179.711 87.1986 179.31 86.5248 178.507C85.8568 177.698 85.5229 176.6 85.5229 175.211C85.5229 173.717 85.8891 172.524 86.6215 171.634C87.3598 170.737 88.35 170.289 89.5922 170.289C90.7992 170.289 91.6723 170.775 92.2113 171.748H92.2465V170.5H94.2855V183.64ZM92.2729 175.404V174.244C92.2729 173.594 92.0619 173.043 91.64 172.592C91.224 172.141 90.6937 171.915 90.0492 171.915C89.2934 171.915 88.6957 172.199 88.2562 172.768C87.8227 173.33 87.6059 174.127 87.6059 175.158C87.6059 176.072 87.8168 176.79 88.2387 177.312C88.6605 177.833 89.2055 178.094 89.8734 178.094C90.6059 178.094 91.1889 177.839 91.6225 177.329C92.0561 176.819 92.2729 176.178 92.2729 175.404ZM105.697 179.5H103.658V178.076H103.623C103.031 179.166 102.111 179.711 100.863 179.711C98.7363 179.711 97.6729 178.434 97.6729 175.879V170.5H99.7119V175.668C99.7119 177.285 100.336 178.094 101.584 178.094C102.188 178.094 102.683 177.871 103.069 177.426C103.462 176.98 103.658 176.397 103.658 175.677V170.5H105.697V179.5ZM110.289 168.61C109.955 168.61 109.668 168.502 109.427 168.285C109.193 168.068 109.076 167.793 109.076 167.459C109.076 167.125 109.193 166.847 109.427 166.624C109.668 166.401 109.955 166.29 110.289 166.29C110.634 166.29 110.927 166.401 111.168 166.624C111.408 166.847 111.528 167.125 111.528 167.459C111.528 167.775 111.408 168.048 111.168 168.276C110.927 168.499 110.634 168.61 110.289 168.61ZM111.299 179.5H109.26V170.5H111.299V179.5ZM121.314 179.087C120.593 179.503 119.74 179.711 118.756 179.711C117.42 179.711 116.342 179.295 115.522 178.463C114.701 177.625 114.291 176.541 114.291 175.211C114.291 173.729 114.731 172.539 115.61 171.643C116.494 170.74 117.675 170.289 119.152 170.289C119.972 170.289 120.696 170.433 121.322 170.72V172.618C120.696 172.149 120.028 171.915 119.319 171.915C118.457 171.915 117.751 172.208 117.2 172.794C116.65 173.374 116.374 174.136 116.374 175.079C116.374 176.011 116.632 176.746 117.148 177.285C117.669 177.824 118.366 178.094 119.239 178.094C119.972 178.094 120.663 177.833 121.314 177.312V179.087ZM132.409 179.5H129.825L126.327 175.176H126.292V179.5H124.244V166.176H126.292V174.622H126.327L129.632 170.5H132.084L128.366 174.842L132.409 179.5ZM142.532 178.199H142.497V179.5H140.458V166.176H142.497V172.082H142.532C143.229 170.887 144.249 170.289 145.591 170.289C146.728 170.289 147.615 170.693 148.254 171.502C148.898 172.305 149.221 173.383 149.221 174.736C149.221 176.242 148.86 177.449 148.14 178.357C147.419 179.26 146.435 179.711 145.187 179.711C144.015 179.711 143.13 179.207 142.532 178.199ZM142.479 174.622V175.738C142.479 176.395 142.688 176.951 143.104 177.408C143.525 177.865 144.059 178.094 144.703 178.094C145.459 178.094 146.051 177.801 146.479 177.215C146.912 176.623 147.129 175.8 147.129 174.745C147.129 173.86 146.927 173.169 146.522 172.671C146.124 172.167 145.582 171.915 144.896 171.915C144.17 171.915 143.584 172.173 143.139 172.688C142.699 173.204 142.479 173.849 142.479 174.622ZM157.424 172.442C157.178 172.249 156.824 172.152 156.361 172.152C155.757 172.152 155.254 172.425 154.849 172.97C154.445 173.515 154.243 174.256 154.243 175.193V179.5H152.204V170.5H154.243V172.354H154.278C154.477 171.722 154.782 171.229 155.192 170.878C155.608 170.521 156.071 170.342 156.581 170.342C156.95 170.342 157.231 170.397 157.424 170.509V172.442ZM163.598 179.711C162.209 179.711 161.099 179.292 160.267 178.454C159.441 177.61 159.028 176.494 159.028 175.105C159.028 173.594 159.458 172.413 160.32 171.563C161.187 170.714 162.353 170.289 163.818 170.289C165.224 170.289 166.32 170.702 167.105 171.528C167.89 172.354 168.282 173.5 168.282 174.965C168.282 176.4 167.858 177.552 167.008 178.419C166.164 179.28 165.028 179.711 163.598 179.711ZM163.695 171.915C162.898 171.915 162.268 172.193 161.805 172.75C161.342 173.307 161.111 174.074 161.111 175.053C161.111 175.996 161.345 176.74 161.814 177.285C162.282 177.824 162.909 178.094 163.695 178.094C164.497 178.094 165.113 177.827 165.54 177.294C165.974 176.761 166.191 176.002 166.191 175.018C166.191 174.027 165.974 173.263 165.54 172.724C165.113 172.185 164.497 171.915 163.695 171.915ZM183.368 170.5L180.714 179.5H178.578L176.943 173.4C176.879 173.166 176.838 172.902 176.82 172.609H176.785C176.773 172.809 176.721 173.066 176.627 173.383L174.851 179.5H172.76L170.114 170.5H172.223L173.858 176.986C173.911 177.18 173.946 177.438 173.964 177.76H174.025C174.043 177.514 174.09 177.25 174.166 176.969L175.985 170.5H177.901L179.518 177.013C179.571 177.218 179.609 177.476 179.633 177.786H179.694C179.706 177.569 179.75 177.312 179.826 177.013L181.426 170.5H183.368ZM193.804 179.5H191.765V174.429C191.765 172.747 191.17 171.906 189.981 171.906C189.36 171.906 188.847 172.141 188.443 172.609C188.038 173.072 187.836 173.658 187.836 174.367V179.5H185.788V170.5H187.836V171.994H187.871C188.545 170.857 189.518 170.289 190.789 170.289C191.768 170.289 192.515 170.608 193.031 171.247C193.546 171.88 193.804 172.797 193.804 173.998V179.5ZM208.146 167.837C207.871 167.679 207.557 167.6 207.206 167.6C206.215 167.6 205.72 168.159 205.72 169.278V170.5H207.812V172.1H205.729V179.5H203.69V172.1H202.152V170.5H203.69V169.041C203.69 168.092 204.001 167.345 204.622 166.8C205.243 166.249 206.019 165.974 206.951 165.974C207.455 165.974 207.853 166.029 208.146 166.141V167.837ZM214.153 179.711C212.764 179.711 211.654 179.292 210.821 178.454C209.995 177.61 209.582 176.494 209.582 175.105C209.582 173.594 210.013 172.413 210.874 171.563C211.741 170.714 212.907 170.289 214.372 170.289C215.779 170.289 216.874 170.702 217.659 171.528C218.445 172.354 218.837 173.5 218.837 174.965C218.837 176.4 218.412 177.552 217.563 178.419C216.719 179.28 215.582 179.711 214.153 179.711ZM214.249 171.915C213.452 171.915 212.822 172.193 212.36 172.75C211.897 173.307 211.665 174.074 211.665 175.053C211.665 175.996 211.9 176.74 212.368 177.285C212.837 177.824 213.464 178.094 214.249 178.094C215.052 178.094 215.667 177.827 216.095 177.294C216.529 176.761 216.745 176.002 216.745 175.018C216.745 174.027 216.529 173.263 216.095 172.724C215.667 172.185 215.052 171.915 214.249 171.915ZM229.062 170.5L226.065 175.053L229.027 179.5H226.663L225.081 176.714C224.981 176.544 224.864 176.327 224.729 176.063H224.694C224.671 176.116 224.548 176.333 224.325 176.714L222.717 179.5H220.361L223.42 175.088L220.519 170.5H222.892L224.448 173.427C224.565 173.644 224.679 173.866 224.791 174.095H224.817L226.83 170.5H229.062ZM239.353 179.122C239.353 180.599 239.042 181.735 238.421 182.532C237.8 183.335 236.912 183.736 235.758 183.736C235.33 183.736 234.914 183.643 234.51 183.455V181.706C234.891 181.97 235.251 182.102 235.591 182.102C236.739 182.102 237.313 181.088 237.313 179.061V170.5H239.353V179.122ZM238.351 168.61C238.017 168.61 237.729 168.502 237.489 168.285C237.255 168.068 237.138 167.793 237.138 167.459C237.138 167.125 237.255 166.847 237.489 166.624C237.729 166.401 238.017 166.29 238.351 166.29C238.69 166.29 238.98 166.401 239.221 166.624C239.461 166.847 239.581 167.125 239.581 167.459C239.581 167.775 239.461 168.048 239.221 168.276C238.98 168.499 238.69 168.61 238.351 168.61ZM250.773 179.5H248.734V178.076H248.699C248.107 179.166 247.187 179.711 245.939 179.711C243.812 179.711 242.749 178.434 242.749 175.879V170.5H244.788V175.668C244.788 177.285 245.412 178.094 246.66 178.094C247.263 178.094 247.758 177.871 248.145 177.426C248.538 176.98 248.734 176.397 248.734 175.677V170.5H250.773V179.5ZM267.792 179.5H265.753V174.596C265.753 173.652 265.618 172.97 265.349 172.548C265.085 172.126 264.637 171.915 264.004 171.915C263.471 171.915 263.017 172.182 262.642 172.715C262.273 173.248 262.088 173.887 262.088 174.631V179.5H260.04V174.429C260.04 172.753 259.448 171.915 258.265 171.915C257.714 171.915 257.26 172.167 256.903 172.671C256.551 173.175 256.375 173.828 256.375 174.631V179.5H254.336V170.5H256.375V171.924H256.41C257.061 170.834 258.007 170.289 259.249 170.289C259.87 170.289 260.412 170.462 260.875 170.808C261.344 171.147 261.663 171.596 261.833 172.152C262.501 170.91 263.497 170.289 264.821 170.289C266.802 170.289 267.792 171.511 267.792 173.954V179.5ZM273.254 178.173H273.219V183.64H271.18V170.5H273.219V172.082H273.254C273.951 170.887 274.971 170.289 276.312 170.289C277.455 170.289 278.346 170.69 278.984 171.493C279.623 172.296 279.942 173.374 279.942 174.728C279.942 176.228 279.582 177.429 278.861 178.331C278.14 179.233 277.156 179.685 275.908 179.685C274.76 179.685 273.875 179.181 273.254 178.173ZM273.201 174.622V175.738C273.201 176.395 273.409 176.951 273.825 177.408C274.247 177.865 274.78 178.094 275.425 178.094C276.18 178.094 276.772 177.801 277.2 177.215C277.634 176.623 277.85 175.8 277.85 174.745C277.85 173.86 277.648 173.169 277.244 172.671C276.846 172.167 276.304 171.915 275.618 171.915C274.891 171.915 274.305 172.173 273.86 172.688C273.421 173.204 273.201 173.849 273.201 174.622ZM282.363 179.219V177.329C283.124 177.909 283.965 178.199 284.885 178.199C286.116 178.199 286.731 177.836 286.731 177.109C286.731 176.904 286.678 176.731 286.573 176.591C286.467 176.444 286.324 176.315 286.142 176.204C285.966 176.093 285.755 175.993 285.509 175.905C285.269 175.817 284.999 175.718 284.701 175.606C284.331 175.46 283.997 175.305 283.699 175.141C283.406 174.977 283.16 174.792 282.96 174.587C282.767 174.376 282.621 174.139 282.521 173.875C282.421 173.611 282.371 173.304 282.371 172.952C282.371 172.519 282.474 172.138 282.679 171.81C282.884 171.476 283.16 171.197 283.505 170.975C283.851 170.746 284.244 170.576 284.683 170.465C285.122 170.348 285.577 170.289 286.045 170.289C286.877 170.289 287.621 170.415 288.278 170.667V172.451C287.645 172.018 286.918 171.801 286.098 171.801C285.84 171.801 285.606 171.827 285.395 171.88C285.19 171.933 285.014 172.006 284.868 172.1C284.721 172.193 284.607 172.308 284.525 172.442C284.443 172.571 284.402 172.715 284.402 172.873C284.402 173.066 284.443 173.23 284.525 173.365C284.607 173.5 284.727 173.62 284.885 173.726C285.049 173.825 285.243 173.919 285.465 174.007C285.694 174.089 285.954 174.18 286.247 174.279C286.634 174.438 286.98 174.599 287.285 174.763C287.595 174.927 287.859 175.114 288.076 175.325C288.292 175.53 288.459 175.771 288.577 176.046C288.694 176.315 288.752 176.638 288.752 177.013C288.752 177.47 288.647 177.868 288.436 178.208C288.225 178.548 287.944 178.829 287.592 179.052C287.241 179.274 286.833 179.438 286.371 179.544C285.913 179.655 285.43 179.711 284.92 179.711C283.936 179.711 283.083 179.547 282.363 179.219ZM301.442 179.711C300.053 179.711 298.943 179.292 298.111 178.454C297.285 177.61 296.872 176.494 296.872 175.105C296.872 173.594 297.302 172.413 298.164 171.563C299.031 170.714 300.197 170.289 301.662 170.289C303.068 170.289 304.164 170.702 304.949 171.528C305.734 172.354 306.127 173.5 306.127 174.965C306.127 176.4 305.702 177.552 304.852 178.419C304.008 179.28 302.872 179.711 301.442 179.711ZM301.539 171.915C300.742 171.915 300.112 172.193 299.649 172.75C299.186 173.307 298.955 174.074 298.955 175.053C298.955 175.996 299.189 176.74 299.658 177.285C300.127 177.824 300.754 178.094 301.539 178.094C302.341 178.094 302.957 177.827 303.384 177.294C303.818 176.761 304.035 176.002 304.035 175.018C304.035 174.027 303.818 173.263 303.384 172.724C302.957 172.185 302.341 171.915 301.539 171.915ZM316.862 170.5L313.381 179.5H311.175L307.862 170.5H310.076L312.071 176.793C312.224 177.256 312.318 177.66 312.353 178.006H312.379C312.432 177.572 312.514 177.18 312.625 176.828L314.717 170.5H316.862ZM326.63 175.554H320.495C320.518 176.386 320.773 177.027 321.26 177.479C321.752 177.93 322.426 178.155 323.281 178.155C324.242 178.155 325.124 177.868 325.927 177.294V178.938C325.106 179.453 324.022 179.711 322.675 179.711C321.35 179.711 320.31 179.304 319.555 178.489C318.805 177.669 318.43 176.518 318.43 175.035C318.43 173.635 318.843 172.495 319.669 171.616C320.501 170.731 321.532 170.289 322.763 170.289C323.993 170.289 324.945 170.685 325.619 171.476C326.293 172.267 326.63 173.365 326.63 174.771V175.554ZM324.661 174.112C324.655 173.38 324.482 172.812 324.142 172.407C323.803 171.997 323.334 171.792 322.736 171.792C322.15 171.792 321.652 172.006 321.242 172.434C320.838 172.861 320.589 173.421 320.495 174.112H324.661ZM334.693 172.442C334.447 172.249 334.092 172.152 333.629 172.152C333.026 172.152 332.522 172.425 332.118 172.97C331.713 173.515 331.511 174.256 331.511 175.193V179.5H329.472V170.5H331.511V172.354H331.546C331.746 171.722 332.05 171.229 332.46 170.878C332.876 170.521 333.339 170.342 333.849 170.342C334.218 170.342 334.499 170.397 334.693 170.509V172.442ZM347.637 179.403C347.239 179.603 346.714 179.702 346.064 179.702C344.318 179.702 343.445 178.864 343.445 177.188V172.1H341.942V170.5H343.445V168.417L345.484 167.837V170.5H347.637V172.1H345.484V176.6C345.484 177.133 345.581 177.514 345.774 177.742C345.967 177.971 346.29 178.085 346.741 178.085C347.087 178.085 347.385 177.985 347.637 177.786V179.403ZM358.293 179.5H356.254V174.578C356.254 172.797 355.659 171.906 354.47 171.906C353.872 171.906 353.368 172.164 352.958 172.68C352.548 173.195 352.343 173.854 352.343 174.657V179.5H350.295V166.176H352.343V171.994H352.378C353.058 170.857 354.03 170.289 355.296 170.289C357.294 170.289 358.293 171.511 358.293 173.954V179.5ZM369.292 175.554H363.157C363.18 176.386 363.435 177.027 363.922 177.479C364.414 177.93 365.088 178.155 365.943 178.155C366.904 178.155 367.786 177.868 368.589 177.294V178.938C367.768 179.453 366.684 179.711 365.337 179.711C364.013 179.711 362.972 179.304 362.217 178.489C361.467 177.669 361.092 176.518 361.092 175.035C361.092 173.635 361.505 172.495 362.331 171.616C363.163 170.731 364.194 170.289 365.425 170.289C366.655 170.289 367.607 170.685 368.281 171.476C368.955 172.267 369.292 173.365 369.292 174.771V175.554ZM367.323 174.112C367.317 173.38 367.144 172.812 366.805 172.407C366.465 171.997 365.996 171.792 365.398 171.792C364.812 171.792 364.314 172.006 363.904 172.434C363.5 172.861 363.251 173.421 363.157 174.112H367.323ZM3.375 203.5H1.32715V190.176H3.375V203.5ZM13.8463 203.5H11.8688V202.094H11.8336C11.2125 203.172 10.3014 203.711 9.1002 203.711C8.21543 203.711 7.52109 203.471 7.01719 202.99C6.51914 202.51 6.27012 201.874 6.27012 201.083C6.27012 199.384 7.24863 198.394 9.20566 198.112L11.8775 197.734C11.8775 196.451 11.2682 195.81 10.0494 195.81C8.97715 195.81 8.01035 196.179 7.14902 196.917V195.133C8.09824 194.57 9.19395 194.289 10.4361 194.289C12.7096 194.289 13.8463 195.408 13.8463 197.646V203.5ZM11.8775 199.079L9.98789 199.343C9.40195 199.419 8.95957 199.562 8.66074 199.773C8.36777 199.979 8.22129 200.342 8.22129 200.863C8.22129 201.244 8.35605 201.558 8.62559 201.804C8.90098 202.044 9.26719 202.164 9.72422 202.164C10.3453 202.164 10.858 201.947 11.2623 201.514C11.6725 201.074 11.8775 200.523 11.8775 199.861V199.079ZM23.8869 195.353L19.0266 201.909H23.8693V203.5H16.1701V202.735L21.1359 196.091H16.6447V194.5H23.8869V195.353ZM34.3055 194.5L30.2449 204.941C29.4012 206.805 28.2176 207.736 26.6941 207.736C26.2664 207.736 25.909 207.698 25.6219 207.622V205.926C25.9441 206.031 26.2371 206.084 26.5008 206.084C27.2625 206.084 27.8309 205.709 28.2059 204.959L28.8123 203.482L25.2352 194.5H27.4939L29.6385 201.039C29.6619 201.121 29.7146 201.338 29.7967 201.689H29.8406C29.8699 201.555 29.9227 201.344 29.9988 201.057L32.2488 194.5H34.3055ZM50.6074 203.5H48.5684V201.971H48.5332C47.877 203.131 46.8662 203.711 45.501 203.711C44.3936 203.711 43.5059 203.31 42.8379 202.507C42.1758 201.698 41.8447 200.6 41.8447 199.211C41.8447 197.723 42.2109 196.53 42.9434 195.634C43.6816 194.737 44.6631 194.289 45.8877 194.289C47.1006 194.289 47.9824 194.775 48.5332 195.748H48.5684V190.176H50.6074V203.5ZM48.5947 199.387V198.209C48.5947 197.57 48.3867 197.028 47.9707 196.583C47.5547 196.138 47.0244 195.915 46.3799 195.915C45.6182 195.915 45.0176 196.199 44.5781 196.768C44.1445 197.336 43.9277 198.124 43.9277 199.132C43.9277 200.046 44.1357 200.77 44.5518 201.303C44.9736 201.83 45.5391 202.094 46.248 202.094C46.9453 202.094 47.5107 201.839 47.9443 201.329C48.3779 200.813 48.5947 200.166 48.5947 199.387ZM58.1607 203.711C56.7721 203.711 55.6617 203.292 54.8297 202.454C54.0035 201.61 53.5904 200.494 53.5904 199.105C53.5904 197.594 54.0211 196.413 54.8824 195.563C55.7496 194.714 56.9156 194.289 58.3805 194.289C59.7867 194.289 60.8824 194.702 61.6676 195.528C62.4527 196.354 62.8453 197.5 62.8453 198.965C62.8453 200.4 62.4205 201.552 61.5709 202.419C60.7271 203.28 59.5904 203.711 58.1607 203.711ZM58.2574 195.915C57.4605 195.915 56.8307 196.193 56.3678 196.75C55.9049 197.307 55.6734 198.074 55.6734 199.053C55.6734 199.996 55.9078 200.74 56.3766 201.285C56.8453 201.824 57.4723 202.094 58.2574 202.094C59.0602 202.094 59.6754 201.827 60.1031 201.294C60.5367 200.761 60.7535 200.002 60.7535 199.018C60.7535 198.027 60.5367 197.263 60.1031 196.724C59.6754 196.185 59.0602 195.915 58.2574 195.915ZM74.0197 202.779C74.0197 206.084 72.3586 207.736 69.0363 207.736C67.8645 207.736 66.842 207.54 65.9689 207.147V205.284C66.9533 205.847 67.8879 206.128 68.7727 206.128C70.9113 206.128 71.9807 205.076 71.9807 202.973V201.988H71.9455C71.2717 203.137 70.258 203.711 68.9045 203.711C67.8088 203.711 66.924 203.312 66.2502 202.516C65.5822 201.713 65.2482 200.638 65.2482 199.29C65.2482 197.761 65.6086 196.545 66.3293 195.643C67.05 194.74 68.0402 194.289 69.3 194.289C70.4895 194.289 71.3713 194.775 71.9455 195.748H71.9807V194.5H74.0197V202.779ZM71.9982 199.378V198.209C71.9982 197.576 71.7873 197.037 71.3654 196.592C70.9494 196.141 70.4279 195.915 69.801 195.915C69.0275 195.915 68.4211 196.202 67.9816 196.776C67.548 197.345 67.3313 198.142 67.3313 199.167C67.3313 200.052 67.5393 200.761 67.9553 201.294C68.3772 201.821 68.9338 202.085 69.6252 202.085C70.3283 202.085 70.8996 201.833 71.3391 201.329C71.7785 200.819 71.9982 200.169 71.9982 199.378ZM78.4178 203.693C78.0662 203.693 77.7674 203.579 77.5213 203.351C77.2752 203.116 77.1521 202.838 77.1521 202.516C77.1521 202.188 77.2752 201.906 77.5213 201.672C77.7674 201.438 78.0662 201.32 78.4178 201.32C78.7752 201.32 79.077 201.438 79.323 201.672C79.575 201.906 79.701 202.188 79.701 202.516C79.701 202.838 79.575 203.116 79.323 203.351C79.077 203.579 78.7752 203.693 78.4178 203.693ZM96.9873 192.672H93.3662V203.5H91.2744V192.672H87.6621V190.896H96.9873V192.672ZM107.503 203.5H105.463V198.578C105.463 196.797 104.869 195.906 103.679 195.906C103.082 195.906 102.578 196.164 102.168 196.68C101.757 197.195 101.552 197.854 101.552 198.657V203.5H99.5045V190.176H101.552V195.994H101.588C102.267 194.857 103.24 194.289 104.505 194.289C106.504 194.289 107.503 195.511 107.503 197.954V203.5ZM118.501 199.554H112.366C112.39 200.386 112.645 201.027 113.131 201.479C113.623 201.93 114.297 202.155 115.153 202.155C116.113 202.155 116.995 201.868 117.798 201.294V202.938C116.978 203.453 115.894 203.711 114.546 203.711C113.222 203.711 112.182 203.304 111.426 202.489C110.676 201.669 110.301 200.518 110.301 199.035C110.301 197.635 110.714 196.495 111.54 195.616C112.372 194.731 113.404 194.289 114.634 194.289C115.864 194.289 116.817 194.685 117.49 195.476C118.164 196.267 118.501 197.365 118.501 198.771V199.554ZM116.532 198.112C116.527 197.38 116.354 196.812 116.014 196.407C115.674 195.997 115.205 195.792 114.608 195.792C114.022 195.792 113.524 196.006 113.113 196.434C112.709 196.861 112.46 197.421 112.366 198.112H116.532ZM135.383 207.64H133.344V201.953H133.309C132.694 203.125 131.689 203.711 130.294 203.711C129.187 203.711 128.296 203.31 127.622 202.507C126.954 201.698 126.621 200.6 126.621 199.211C126.621 197.717 126.987 196.524 127.719 195.634C128.457 194.737 129.448 194.289 130.69 194.289C131.897 194.289 132.77 194.775 133.309 195.748H133.344V194.5H135.383V207.64ZM133.371 199.404V198.244C133.371 197.594 133.16 197.043 132.738 196.592C132.322 196.141 131.791 195.915 131.147 195.915C130.391 195.915 129.793 196.199 129.354 196.768C128.92 197.33 128.704 198.127 128.704 199.158C128.704 200.072 128.914 200.79 129.336 201.312C129.758 201.833 130.303 202.094 130.971 202.094C131.704 202.094 132.287 201.839 132.72 201.329C133.154 200.819 133.371 200.178 133.371 199.404ZM146.795 203.5H144.756V202.076H144.721C144.129 203.166 143.209 203.711 141.961 203.711C139.834 203.711 138.771 202.434 138.771 199.879V194.5H140.81V199.668C140.81 201.285 141.434 202.094 142.682 202.094C143.285 202.094 143.78 201.871 144.167 201.426C144.56 200.98 144.756 200.397 144.756 199.677V194.5H146.795V203.5ZM151.386 192.61C151.052 192.61 150.765 192.502 150.525 192.285C150.291 192.068 150.173 191.793 150.173 191.459C150.173 191.125 150.291 190.847 150.525 190.624C150.765 190.401 151.052 190.29 151.386 190.29C151.732 190.29 152.025 190.401 152.265 190.624C152.505 190.847 152.626 191.125 152.626 191.459C152.626 191.775 152.505 192.048 152.265 192.276C152.025 192.499 151.732 192.61 151.386 192.61ZM152.397 203.5H150.358V194.5H152.397V203.5ZM162.411 203.087C161.691 203.503 160.838 203.711 159.854 203.711C158.518 203.711 157.44 203.295 156.619 202.463C155.799 201.625 155.389 200.541 155.389 199.211C155.389 197.729 155.828 196.539 156.707 195.643C157.592 194.74 158.773 194.289 160.249 194.289C161.07 194.289 161.793 194.433 162.42 194.72V196.618C161.793 196.149 161.125 195.915 160.416 195.915C159.555 195.915 158.849 196.208 158.298 196.794C157.747 197.374 157.472 198.136 157.472 199.079C157.472 200.011 157.73 200.746 158.245 201.285C158.767 201.824 159.464 202.094 160.337 202.094C161.07 202.094 161.761 201.833 162.411 201.312V203.087ZM173.507 203.5H170.923L167.425 199.176H167.389V203.5H165.342V190.176H167.389V198.622H167.425L170.729 194.5H173.181L169.464 198.842L173.507 203.5ZM183.63 202.199H183.595V203.5H181.556V190.176H183.595V196.082H183.63C184.327 194.887 185.347 194.289 186.688 194.289C187.825 194.289 188.713 194.693 189.352 195.502C189.996 196.305 190.318 197.383 190.318 198.736C190.318 200.242 189.958 201.449 189.237 202.357C188.517 203.26 187.532 203.711 186.284 203.711C185.112 203.711 184.228 203.207 183.63 202.199ZM183.577 198.622V199.738C183.577 200.395 183.785 200.951 184.201 201.408C184.623 201.865 185.156 202.094 185.801 202.094C186.557 202.094 187.148 201.801 187.576 201.215C188.01 200.623 188.227 199.8 188.227 198.745C188.227 197.86 188.024 197.169 187.62 196.671C187.222 196.167 186.68 195.915 185.994 195.915C185.268 195.915 184.682 196.173 184.236 196.688C183.797 197.204 183.577 197.849 183.577 198.622ZM198.522 196.442C198.276 196.249 197.921 196.152 197.459 196.152C196.855 196.152 196.351 196.425 195.947 196.97C195.543 197.515 195.34 198.256 195.34 199.193V203.5H193.301V194.5H195.34V196.354H195.376C195.575 195.722 195.879 195.229 196.29 194.878C196.706 194.521 197.169 194.342 197.678 194.342C198.047 194.342 198.329 194.397 198.522 194.509V196.442ZM204.696 203.711C203.307 203.711 202.196 203.292 201.364 202.454C200.538 201.61 200.125 200.494 200.125 199.105C200.125 197.594 200.556 196.413 201.417 195.563C202.284 194.714 203.45 194.289 204.915 194.289C206.321 194.289 207.417 194.702 208.202 195.528C208.988 196.354 209.38 197.5 209.38 198.965C209.38 200.4 208.955 201.552 208.106 202.419C207.262 203.28 206.125 203.711 204.696 203.711ZM204.792 195.915C203.995 195.915 203.365 196.193 202.903 196.75C202.44 197.307 202.208 198.074 202.208 199.053C202.208 199.996 202.443 200.74 202.911 201.285C203.38 201.824 204.007 202.094 204.792 202.094C205.595 202.094 206.21 201.827 206.638 201.294C207.071 200.761 207.288 200.002 207.288 199.018C207.288 198.027 207.071 197.263 206.638 196.724C206.21 196.185 205.595 195.915 204.792 195.915ZM224.466 194.5L221.811 203.5H219.676L218.041 197.4C217.976 197.166 217.935 196.902 217.918 196.609H217.883C217.871 196.809 217.818 197.066 217.724 197.383L215.949 203.5H213.857L211.212 194.5H213.321L214.956 200.986C215.009 201.18 215.044 201.438 215.061 201.76H215.123C215.14 201.514 215.187 201.25 215.263 200.969L217.083 194.5H218.999L220.616 201.013C220.669 201.218 220.707 201.476 220.73 201.786H220.792C220.804 201.569 220.847 201.312 220.924 201.013L222.523 194.5H224.466ZM234.902 203.5H232.863V198.429C232.863 196.747 232.268 195.906 231.079 195.906C230.457 195.906 229.945 196.141 229.54 196.609C229.136 197.072 228.934 197.658 228.934 198.367V203.5H226.886V194.5H228.934V195.994H228.969C229.643 194.857 230.616 194.289 231.887 194.289C232.866 194.289 233.613 194.608 234.128 195.247C234.644 195.88 234.902 196.797 234.902 197.998V203.5ZM249.244 191.837C248.968 191.679 248.655 191.6 248.303 191.6C247.313 191.6 246.818 192.159 246.818 193.278V194.5H248.91V196.1H246.827V203.5H244.788V196.1H243.25V194.5H244.788V193.041C244.788 192.092 245.098 191.345 245.719 190.8C246.34 190.249 247.117 189.974 248.048 189.974C248.552 189.974 248.951 190.029 249.244 190.141V191.837ZM255.25 203.711C253.862 203.711 252.751 203.292 251.919 202.454C251.093 201.61 250.68 200.494 250.68 199.105C250.68 197.594 251.111 196.413 251.972 195.563C252.839 194.714 254.005 194.289 255.47 194.289C256.876 194.289 257.972 194.702 258.757 195.528C259.542 196.354 259.935 197.5 259.935 198.965C259.935 200.4 259.51 201.552 258.66 202.419C257.817 203.28 256.68 203.711 255.25 203.711ZM255.347 195.915C254.55 195.915 253.92 196.193 253.457 196.75C252.994 197.307 252.763 198.074 252.763 199.053C252.763 199.996 252.997 200.74 253.466 201.285C253.935 201.824 254.562 202.094 255.347 202.094C256.15 202.094 256.765 201.827 257.193 201.294C257.626 200.761 257.843 200.002 257.843 199.018C257.843 198.027 257.626 197.263 257.193 196.724C256.765 196.185 256.15 195.915 255.347 195.915ZM270.16 194.5L267.163 199.053L270.125 203.5H267.761L266.179 200.714C266.079 200.544 265.962 200.327 265.827 200.063H265.792C265.768 200.116 265.645 200.333 265.423 200.714L263.814 203.5H261.459L264.517 199.088L261.617 194.5H263.99L265.546 197.427C265.663 197.644 265.777 197.866 265.888 198.095H265.915L267.928 194.5H270.16ZM280.45 203.122C280.45 204.599 280.14 205.735 279.519 206.532C278.897 207.335 278.01 207.736 276.855 207.736C276.428 207.736 276.012 207.643 275.607 207.455V205.706C275.988 205.97 276.349 206.102 276.688 206.102C277.837 206.102 278.411 205.088 278.411 203.061V194.5H280.45V203.122ZM279.448 192.61C279.114 192.61 278.827 192.502 278.587 192.285C278.353 192.068 278.235 191.793 278.235 191.459C278.235 191.125 278.353 190.847 278.587 190.624C278.827 190.401 279.114 190.29 279.448 190.29C279.788 190.29 280.078 190.401 280.318 190.624C280.559 190.847 280.679 191.125 280.679 191.459C280.679 191.775 280.559 192.048 280.318 192.276C280.078 192.499 279.788 192.61 279.448 192.61ZM291.871 203.5H289.832V202.076H289.796C289.205 203.166 288.285 203.711 287.037 203.711C284.91 203.711 283.846 202.434 283.846 199.879V194.5H285.885V199.668C285.885 201.285 286.509 202.094 287.757 202.094C288.361 202.094 288.856 201.871 289.243 201.426C289.635 200.98 289.832 200.397 289.832 199.677V194.5H291.871V203.5ZM308.89 203.5H306.851V198.596C306.851 197.652 306.716 196.97 306.446 196.548C306.183 196.126 305.735 195.915 305.102 195.915C304.569 195.915 304.114 196.182 303.739 196.715C303.37 197.248 303.186 197.887 303.186 198.631V203.5H301.138V198.429C301.138 196.753 300.546 195.915 299.362 195.915C298.812 195.915 298.358 196.167 298 196.671C297.649 197.175 297.473 197.828 297.473 198.631V203.5H295.434V194.5H297.473V195.924H297.508C298.158 194.834 299.105 194.289 300.347 194.289C300.968 194.289 301.51 194.462 301.973 194.808C302.442 195.147 302.761 195.596 302.931 196.152C303.599 194.91 304.595 194.289 305.919 194.289C307.9 194.289 308.89 195.511 308.89 197.954V203.5ZM314.351 202.173H314.316V207.64H312.277V194.5H314.316V196.082H314.351C315.049 194.887 316.068 194.289 317.41 194.289C318.553 194.289 319.443 194.69 320.082 195.493C320.721 196.296 321.04 197.374 321.04 198.728C321.04 200.228 320.68 201.429 319.959 202.331C319.238 203.233 318.254 203.685 317.006 203.685C315.857 203.685 314.972 203.181 314.351 202.173ZM314.299 198.622V199.738C314.299 200.395 314.507 200.951 314.923 201.408C315.345 201.865 315.878 202.094 316.522 202.094C317.278 202.094 317.87 201.801 318.298 201.215C318.731 200.623 318.948 199.8 318.948 198.745C318.948 197.86 318.746 197.169 318.342 196.671C317.943 196.167 317.401 195.915 316.716 195.915C315.989 195.915 315.403 196.173 314.958 196.688C314.518 197.204 314.299 197.849 314.299 198.622ZM323.46 203.219V201.329C324.222 201.909 325.063 202.199 325.983 202.199C327.213 202.199 327.829 201.836 327.829 201.109C327.829 200.904 327.776 200.731 327.67 200.591C327.565 200.444 327.421 200.315 327.24 200.204C327.064 200.093 326.853 199.993 326.607 199.905C326.367 199.817 326.097 199.718 325.798 199.606C325.429 199.46 325.095 199.305 324.796 199.141C324.503 198.977 324.257 198.792 324.058 198.587C323.865 198.376 323.718 198.139 323.619 197.875C323.519 197.611 323.469 197.304 323.469 196.952C323.469 196.519 323.572 196.138 323.777 195.81C323.982 195.476 324.257 195.197 324.603 194.975C324.949 194.746 325.341 194.576 325.781 194.465C326.22 194.348 326.674 194.289 327.143 194.289C327.975 194.289 328.719 194.415 329.375 194.667V196.451C328.743 196.018 328.016 195.801 327.196 195.801C326.938 195.801 326.704 195.827 326.493 195.88C326.288 195.933 326.112 196.006 325.965 196.1C325.819 196.193 325.704 196.308 325.622 196.442C325.54 196.571 325.499 196.715 325.499 196.873C325.499 197.066 325.54 197.23 325.622 197.365C325.704 197.5 325.825 197.62 325.983 197.726C326.147 197.825 326.34 197.919 326.563 198.007C326.791 198.089 327.052 198.18 327.345 198.279C327.732 198.438 328.078 198.599 328.382 198.763C328.693 198.927 328.956 199.114 329.173 199.325C329.39 199.53 329.557 199.771 329.674 200.046C329.791 200.315 329.85 200.638 329.85 201.013C329.85 201.47 329.745 201.868 329.534 202.208C329.323 202.548 329.041 202.829 328.69 203.052C328.338 203.274 327.931 203.438 327.468 203.544C327.011 203.655 326.528 203.711 326.018 203.711C325.034 203.711 324.181 203.547 323.46 203.219ZM342.54 203.711C341.151 203.711 340.041 203.292 339.209 202.454C338.382 201.61 337.969 200.494 337.969 199.105C337.969 197.594 338.4 196.413 339.261 195.563C340.129 194.714 341.295 194.289 342.759 194.289C344.166 194.289 345.261 194.702 346.046 195.528C346.832 196.354 347.224 197.5 347.224 198.965C347.224 200.4 346.799 201.552 345.95 202.419C345.106 203.28 343.969 203.711 342.54 203.711ZM342.636 195.915C341.839 195.915 341.21 196.193 340.747 196.75C340.284 197.307 340.052 198.074 340.052 199.053C340.052 199.996 340.287 200.74 340.755 201.285C341.224 201.824 341.851 202.094 342.636 202.094C343.439 202.094 344.054 201.827 344.482 201.294C344.916 200.761 345.132 200.002 345.132 199.018C345.132 198.027 344.916 197.263 344.482 196.724C344.054 196.185 343.439 195.915 342.636 195.915ZM357.959 194.5L354.479 203.5H352.273L348.959 194.5H351.174L353.169 200.793C353.321 201.256 353.415 201.66 353.45 202.006H353.477C353.529 201.572 353.612 201.18 353.723 200.828L355.815 194.5H357.959ZM367.727 199.554H361.593C361.616 200.386 361.871 201.027 362.357 201.479C362.849 201.93 363.523 202.155 364.379 202.155C365.34 202.155 366.221 201.868 367.024 201.294V202.938C366.204 203.453 365.12 203.711 363.772 203.711C362.448 203.711 361.408 203.304 360.652 202.489C359.902 201.669 359.527 200.518 359.527 199.035C359.527 197.635 359.94 196.495 360.766 195.616C361.598 194.731 362.63 194.289 363.86 194.289C365.091 194.289 366.043 194.685 366.717 195.476C367.39 196.267 367.727 197.365 367.727 198.771V199.554ZM365.759 198.112C365.753 197.38 365.58 196.812 365.24 196.407C364.9 195.997 364.431 195.792 363.834 195.792C363.248 195.792 362.75 196.006 362.34 196.434C361.935 196.861 361.686 197.421 361.593 198.112H365.759ZM375.79 196.442C375.544 196.249 375.19 196.152 374.727 196.152C374.123 196.152 373.62 196.425 373.215 196.97C372.811 197.515 372.609 198.256 372.609 199.193V203.5H370.57V194.5H372.609V196.354H372.644C372.843 195.722 373.148 195.229 373.558 194.878C373.974 194.521 374.437 194.342 374.947 194.342C375.316 194.342 375.597 194.397 375.79 194.509V196.442ZM6.07324 227.403C5.6748 227.603 5.15039 227.702 4.5 227.702C2.75391 227.702 1.88086 226.864 1.88086 225.188V220.1H0.37793V218.5H1.88086V216.417L3.91992 215.837V218.5H6.07324V220.1H3.91992V224.6C3.91992 225.133 4.0166 225.514 4.20996 225.742C4.40332 225.971 4.72559 226.085 5.17676 226.085C5.52246 226.085 5.82129 225.985 6.07324 225.786V227.403ZM16.7291 227.5H14.69V222.578C14.69 220.797 14.0953 219.906 12.9059 219.906C12.3082 219.906 11.8043 220.164 11.3941 220.68C10.984 221.195 10.7789 221.854 10.7789 222.657V227.5H8.73105V214.176H10.7789V219.994H10.8141C11.4938 218.857 12.4664 218.289 13.732 218.289C15.7301 218.289 16.7291 219.511 16.7291 221.954V227.5ZM27.7277 223.554H21.593C21.6164 224.386 21.8713 225.027 22.3576 225.479C22.8498 225.93 23.5236 226.155 24.3791 226.155C25.34 226.155 26.2219 225.868 27.0246 225.294V226.938C26.2043 227.453 25.1203 227.711 23.7727 227.711C22.4484 227.711 21.4084 227.304 20.6525 226.489C19.9025 225.669 19.5275 224.518 19.5275 223.035C19.5275 221.635 19.9406 220.495 20.7668 219.616C21.5988 218.731 22.6301 218.289 23.8605 218.289C25.091 218.289 26.0432 218.685 26.717 219.476C27.3908 220.267 27.7277 221.365 27.7277 222.771V223.554ZM25.759 222.112C25.7531 221.38 25.5803 220.812 25.2404 220.407C24.9006 219.997 24.4318 219.792 23.8342 219.792C23.2482 219.792 22.7502 220.006 22.34 220.434C21.9357 220.861 21.6867 221.421 21.593 222.112H25.759ZM38.475 227.5H36.4271V214.176H38.475V227.5ZM48.9463 227.5H46.9688V226.094H46.9336C46.3125 227.172 45.4014 227.711 44.2002 227.711C43.3154 227.711 42.6211 227.471 42.1172 226.99C41.6191 226.51 41.3701 225.874 41.3701 225.083C41.3701 223.384 42.3486 222.394 44.3057 222.112L46.9775 221.734C46.9775 220.451 46.3682 219.81 45.1494 219.81C44.0771 219.81 43.1104 220.179 42.249 220.917V219.133C43.1982 218.57 44.2939 218.289 45.5361 218.289C47.8096 218.289 48.9463 219.408 48.9463 221.646V227.5ZM46.9775 223.079L45.0879 223.343C44.502 223.419 44.0596 223.562 43.7607 223.773C43.4678 223.979 43.3213 224.342 43.3213 224.863C43.3213 225.244 43.4561 225.558 43.7256 225.804C44.001 226.044 44.3672 226.164 44.8242 226.164C45.4453 226.164 45.958 225.947 46.3623 225.514C46.7725 225.074 46.9775 224.523 46.9775 223.861V223.079ZM58.9869 219.353L54.1266 225.909H58.9693V227.5H51.2701V226.735L56.2359 220.091H51.7447V218.5H58.9869V219.353ZM69.4055 218.5L65.3449 228.941C64.5012 230.805 63.3176 231.736 61.7941 231.736C61.3664 231.736 61.009 231.698 60.7219 231.622V229.926C61.0441 230.031 61.3371 230.084 61.6008 230.084C62.3625 230.084 62.9309 229.709 63.3059 228.959L63.9123 227.482L60.3352 218.5H62.5939L64.7385 225.039C64.7619 225.121 64.8146 225.338 64.8967 225.689H64.9406C64.9699 225.555 65.0227 225.344 65.0988 225.057L67.3488 218.5H69.4055ZM85.7074 227.5H83.6684V225.971H83.6332C82.977 227.131 81.9662 227.711 80.601 227.711C79.4936 227.711 78.6059 227.31 77.9379 226.507C77.2758 225.698 76.9447 224.6 76.9447 223.211C76.9447 221.723 77.3109 220.53 78.0434 219.634C78.7816 218.737 79.7631 218.289 80.9877 218.289C82.2006 218.289 83.0824 218.775 83.6332 219.748H83.6684V214.176H85.7074V227.5ZM83.6947 223.387V222.209C83.6947 221.57 83.4867 221.028 83.0707 220.583C82.6547 220.138 82.1244 219.915 81.4799 219.915C80.7182 219.915 80.1176 220.199 79.6781 220.768C79.2445 221.336 79.0277 222.124 79.0277 223.132C79.0277 224.046 79.2357 224.77 79.6518 225.303C80.0736 225.83 80.6391 226.094 81.348 226.094C82.0453 226.094 82.6107 225.839 83.0443 225.329C83.4779 224.813 83.6947 224.166 83.6947 223.387ZM93.2607 227.711C91.8721 227.711 90.7617 227.292 89.9297 226.454C89.1035 225.61 88.6904 224.494 88.6904 223.105C88.6904 221.594 89.1211 220.413 89.9824 219.563C90.8496 218.714 92.0156 218.289 93.4805 218.289C94.8867 218.289 95.9824 218.702 96.7676 219.528C97.5527 220.354 97.9453 221.5 97.9453 222.965C97.9453 224.4 97.5205 225.552 96.6709 226.419C95.8271 227.28 94.6904 227.711 93.2607 227.711ZM93.3574 219.915C92.5605 219.915 91.9307 220.193 91.4678 220.75C91.0049 221.307 90.7734 222.074 90.7734 223.053C90.7734 223.996 91.0078 224.74 91.4766 225.285C91.9453 225.824 92.5723 226.094 93.3574 226.094C94.1602 226.094 94.7754 225.827 95.2031 225.294C95.6367 224.761 95.8535 224.002 95.8535 223.018C95.8535 222.027 95.6367 221.263 95.2031 220.724C94.7754 220.185 94.1602 219.915 93.3574 219.915ZM109.12 226.779C109.12 230.084 107.459 231.736 104.136 231.736C102.964 231.736 101.942 231.54 101.069 231.147V229.284C102.053 229.847 102.988 230.128 103.873 230.128C106.011 230.128 107.081 229.076 107.081 226.973V225.988H107.046C106.372 227.137 105.358 227.711 104.004 227.711C102.909 227.711 102.024 227.312 101.35 226.516C100.682 225.713 100.348 224.638 100.348 223.29C100.348 221.761 100.709 220.545 101.429 219.643C102.15 218.74 103.14 218.289 104.4 218.289C105.589 218.289 106.471 218.775 107.046 219.748H107.081V218.5H109.12V226.779ZM107.098 223.378V222.209C107.098 221.576 106.887 221.037 106.465 220.592C106.049 220.141 105.528 219.915 104.901 219.915C104.128 219.915 103.521 220.202 103.082 220.776C102.648 221.345 102.431 222.142 102.431 223.167C102.431 224.052 102.639 224.761 103.055 225.294C103.477 225.821 104.034 226.085 104.725 226.085C105.428 226.085 106 225.833 106.439 225.329C106.879 224.819 107.098 224.169 107.098 223.378Z" fill="black"/>
<path d="M687.243 137H668.127L658.679 110.267H617.37L608.288 137H589.245L628.576 31.9707H648.205L687.243 137ZM654.064 96.0576L639.489 54.1631C639.05 52.7959 638.586 50.5986 638.098 47.5713H637.805C637.365 50.3545 636.877 52.5518 636.34 54.1631L621.911 96.0576H654.064ZM783.718 137H767.238V125.281H766.945C761.77 134.266 754.177 138.758 744.167 138.758C736.794 138.758 731.008 136.756 726.809 132.752C722.658 128.748 720.583 123.45 720.583 116.858C720.583 102.698 728.737 94.4463 745.046 92.1025L767.312 88.9531C767.312 78.2598 762.233 72.9131 752.077 72.9131C743.142 72.9131 735.085 75.9893 727.907 82.1416V67.2734C735.817 62.5859 744.948 60.2422 755.3 60.2422C774.245 60.2422 783.718 69.5684 783.718 88.2207V137ZM767.312 100.159L751.564 102.356C746.682 102.991 742.995 104.188 740.505 105.945C738.063 107.654 736.843 110.682 736.843 115.027C736.843 118.201 737.966 120.813 740.212 122.864C742.507 124.866 745.559 125.867 749.367 125.867C754.543 125.867 758.815 124.061 762.185 120.447C765.603 116.785 767.312 112.195 767.312 106.678V100.159Z" fill="black"/>
<path d="M574.504 180.562H568.223V185.613H574.012V187.969H568.223V195H565.434V178.195H574.504V180.562ZM582.52 195.281C580.668 195.281 579.188 194.723 578.078 193.605C576.977 192.48 576.426 190.992 576.426 189.141C576.426 187.125 577 185.551 578.148 184.418C579.305 183.285 580.859 182.719 582.812 182.719C584.688 182.719 586.148 183.27 587.195 184.371C588.242 185.473 588.766 187 588.766 188.953C588.766 190.867 588.199 192.402 587.066 193.559C585.941 194.707 584.426 195.281 582.52 195.281ZM582.648 184.887C581.586 184.887 580.746 185.258 580.129 186C579.512 186.742 579.203 187.766 579.203 189.07C579.203 190.328 579.516 191.32 580.141 192.047C580.766 192.766 581.602 193.125 582.648 193.125C583.719 193.125 584.539 192.77 585.109 192.059C585.688 191.348 585.977 190.336 585.977 189.023C585.977 187.703 585.688 186.684 585.109 185.965C584.539 185.246 583.719 184.887 582.648 184.887ZM602.23 195H599.512V188.238C599.512 185.996 598.719 184.875 597.133 184.875C596.305 184.875 595.621 185.188 595.082 185.812C594.543 186.43 594.273 187.211 594.273 188.156V195H591.543V183H594.273V184.992H594.32C595.219 183.477 596.516 182.719 598.211 182.719C599.516 182.719 600.512 183.145 601.199 183.996C601.887 184.84 602.23 186.062 602.23 187.664V195ZM611.887 194.871C611.355 195.137 610.656 195.27 609.789 195.27C607.461 195.27 606.297 194.152 606.297 191.918V185.133H604.293V183H606.297V180.223L609.016 179.449V183H611.887V185.133H609.016V191.133C609.016 191.844 609.145 192.352 609.402 192.656C609.66 192.961 610.09 193.113 610.691 193.113C611.152 193.113 611.551 192.98 611.887 192.715V194.871ZM619.328 189.445H612.93V187.441H619.328V189.445ZM629.453 179.449C629.086 179.238 628.668 179.133 628.199 179.133C626.879 179.133 626.219 179.879 626.219 181.371V183H629.008V185.133H626.23V195H623.512V185.133H621.461V183H623.512V181.055C623.512 179.789 623.926 178.793 624.754 178.066C625.582 177.332 626.617 176.965 627.859 176.965C628.531 176.965 629.062 177.039 629.453 177.188V179.449ZM640.152 195H637.516V193.125H637.469C636.641 194.562 635.426 195.281 633.824 195.281C632.645 195.281 631.719 194.961 631.047 194.32C630.383 193.68 630.051 192.832 630.051 191.777C630.051 189.512 631.355 188.191 633.965 187.816L637.527 187.312C637.527 185.602 636.715 184.746 635.09 184.746C633.66 184.746 632.371 185.238 631.223 186.223V183.844C632.488 183.094 633.949 182.719 635.605 182.719C638.637 182.719 640.152 184.211 640.152 187.195V195ZM637.527 189.105L635.008 189.457C634.227 189.559 633.637 189.75 633.238 190.031C632.848 190.305 632.652 190.789 632.652 191.484C632.652 191.992 632.832 192.41 633.191 192.738C633.559 193.059 634.047 193.219 634.656 193.219C635.484 193.219 636.168 192.93 636.707 192.352C637.254 191.766 637.527 191.031 637.527 190.148V189.105ZM661.422 195H658.703V188.461C658.703 187.203 658.523 186.293 658.164 185.73C657.812 185.168 657.215 184.887 656.371 184.887C655.66 184.887 655.055 185.242 654.555 185.953C654.062 186.664 653.816 187.516 653.816 188.508V195H651.086V188.238C651.086 186.004 650.297 184.887 648.719 184.887C647.984 184.887 647.379 185.223 646.902 185.895C646.434 186.566 646.199 187.438 646.199 188.508V195H643.48V183H646.199V184.898H646.246C647.113 183.445 648.375 182.719 650.031 182.719C650.859 182.719 651.582 182.949 652.199 183.41C652.824 183.863 653.25 184.461 653.477 185.203C654.367 183.547 655.695 182.719 657.461 182.719C660.102 182.719 661.422 184.348 661.422 187.605V195ZM666.109 180.48C665.664 180.48 665.281 180.336 664.961 180.047C664.648 179.758 664.492 179.391 664.492 178.945C664.492 178.5 664.648 178.129 664.961 177.832C665.281 177.535 665.664 177.387 666.109 177.387C666.57 177.387 666.961 177.535 667.281 177.832C667.602 178.129 667.762 178.5 667.762 178.945C667.762 179.367 667.602 179.73 667.281 180.035C666.961 180.332 666.57 180.48 666.109 180.48ZM667.457 195H664.738V183H667.457V195ZM673.75 195H671.02V177.234H673.75V195ZM687.695 183L682.281 196.922C681.156 199.406 679.578 200.648 677.547 200.648C676.977 200.648 676.5 200.598 676.117 200.496V198.234C676.547 198.375 676.938 198.445 677.289 198.445C678.305 198.445 679.062 197.945 679.562 196.945L680.371 194.977L675.602 183H678.613L681.473 191.719C681.504 191.828 681.574 192.117 681.684 192.586H681.742C681.781 192.406 681.852 192.125 681.953 191.742L684.953 183H687.695ZM690.637 195.258C690.168 195.258 689.77 195.105 689.441 194.801C689.113 194.488 688.949 194.117 688.949 193.688C688.949 193.25 689.113 192.875 689.441 192.562C689.77 192.25 690.168 192.094 690.637 192.094C691.113 192.094 691.516 192.25 691.844 192.562C692.18 192.875 692.348 193.25 692.348 193.688C692.348 194.117 692.18 194.488 691.844 194.801C691.516 195.105 691.113 195.258 690.637 195.258ZM690.637 185.988C690.168 185.988 689.77 185.836 689.441 185.531C689.113 185.219 688.949 184.848 688.949 184.418C688.949 183.98 689.113 183.605 689.441 183.293C689.77 182.98 690.168 182.824 690.637 182.824C691.113 182.824 691.516 182.98 691.844 183.293C692.18 183.605 692.348 183.98 692.348 184.418C692.348 184.848 692.18 185.219 691.844 185.531C691.516 185.836 691.113 185.988 690.637 185.988ZM709.176 177.867L707.863 183.082H705.484L707.395 177.867H709.176ZM705.027 177.867L703.75 183.082H701.324L703.234 177.867H705.027ZM711.754 194.332V191.461C712.012 191.695 712.316 191.906 712.668 192.094C713.027 192.281 713.406 192.441 713.805 192.574C714.203 192.699 714.602 192.797 715 192.867C715.398 192.938 715.766 192.973 716.102 192.973C717.273 192.973 718.145 192.777 718.715 192.387C719.293 191.996 719.582 191.43 719.582 190.688C719.582 190.289 719.484 189.945 719.289 189.656C719.102 189.359 718.836 189.09 718.492 188.848C718.148 188.605 717.742 188.375 717.273 188.156C716.812 187.93 716.316 187.695 715.785 187.453C715.215 187.148 714.684 186.84 714.191 186.527C713.699 186.215 713.27 185.871 712.902 185.496C712.543 185.113 712.258 184.684 712.047 184.207C711.844 183.73 711.742 183.172 711.742 182.531C711.742 181.742 711.918 181.059 712.27 180.48C712.629 179.895 713.098 179.414 713.676 179.039C714.262 178.656 714.926 178.375 715.668 178.195C716.41 178.008 717.168 177.914 717.941 177.914C719.699 177.914 720.98 178.113 721.785 178.512V181.266C720.832 180.578 719.605 180.234 718.105 180.234C717.691 180.234 717.277 180.273 716.863 180.352C716.457 180.43 716.09 180.559 715.762 180.738C715.441 180.918 715.18 181.148 714.977 181.43C714.773 181.711 714.672 182.051 714.672 182.449C714.672 182.824 714.75 183.148 714.906 183.422C715.062 183.695 715.289 183.945 715.586 184.172C715.891 184.398 716.258 184.621 716.688 184.84C717.125 185.051 717.629 185.281 718.199 185.531C718.785 185.836 719.336 186.156 719.852 186.492C720.375 186.828 720.832 187.199 721.223 187.605C721.621 188.012 721.934 188.465 722.16 188.965C722.395 189.457 722.512 190.02 722.512 190.652C722.512 191.504 722.34 192.223 721.996 192.809C721.652 193.395 721.188 193.871 720.602 194.238C720.023 194.605 719.355 194.871 718.598 195.035C717.84 195.199 717.039 195.281 716.195 195.281C715.914 195.281 715.566 195.258 715.152 195.211C714.746 195.172 714.328 195.109 713.898 195.023C713.469 194.945 713.062 194.848 712.68 194.73C712.297 194.613 711.988 194.48 711.754 194.332ZM735.461 189.738H727.281C727.312 190.848 727.652 191.703 728.301 192.305C728.957 192.906 729.855 193.207 730.996 193.207C732.277 193.207 733.453 192.824 734.523 192.059V194.25C733.43 194.938 731.984 195.281 730.188 195.281C728.422 195.281 727.035 194.738 726.027 193.652C725.027 192.559 724.527 191.023 724.527 189.047C724.527 187.18 725.078 185.66 726.18 184.488C727.289 183.309 728.664 182.719 730.305 182.719C731.945 182.719 733.215 183.246 734.113 184.301C735.012 185.355 735.461 186.82 735.461 188.695V189.738ZM732.836 187.816C732.828 186.84 732.598 186.082 732.145 185.543C731.691 184.996 731.066 184.723 730.27 184.723C729.488 184.723 728.824 185.008 728.277 185.578C727.738 186.148 727.406 186.895 727.281 187.816H732.836ZM748.973 194.039C748.973 198.445 746.758 200.648 742.328 200.648C740.766 200.648 739.402 200.387 738.238 199.863V197.379C739.551 198.129 740.797 198.504 741.977 198.504C744.828 198.504 746.254 197.102 746.254 194.297V192.984H746.207C745.309 194.516 743.957 195.281 742.152 195.281C740.691 195.281 739.512 194.75 738.613 193.688C737.723 192.617 737.277 191.184 737.277 189.387C737.277 187.348 737.758 185.727 738.719 184.523C739.68 183.32 741 182.719 742.68 182.719C744.266 182.719 745.441 183.367 746.207 184.664H746.254V183H748.973V194.039ZM746.277 189.504V187.945C746.277 187.102 745.996 186.383 745.434 185.789C744.879 185.188 744.184 184.887 743.348 184.887C742.316 184.887 741.508 185.27 740.922 186.035C740.344 186.793 740.055 187.855 740.055 189.223C740.055 190.402 740.332 191.348 740.887 192.059C741.449 192.762 742.191 193.113 743.113 193.113C744.051 193.113 744.812 192.777 745.398 192.105C745.984 191.426 746.277 190.559 746.277 189.504ZM757.832 195.281C755.98 195.281 754.5 194.723 753.391 193.605C752.289 192.48 751.738 190.992 751.738 189.141C751.738 187.125 752.312 185.551 753.461 184.418C754.617 183.285 756.172 182.719 758.125 182.719C760 182.719 761.461 183.27 762.508 184.371C763.555 185.473 764.078 187 764.078 188.953C764.078 190.867 763.512 192.402 762.379 193.559C761.254 194.707 759.738 195.281 757.832 195.281ZM757.961 184.887C756.898 184.887 756.059 185.258 755.441 186C754.824 186.742 754.516 187.766 754.516 189.07C754.516 190.328 754.828 191.32 755.453 192.047C756.078 192.766 756.914 193.125 757.961 193.125C759.031 193.125 759.852 192.77 760.422 192.059C761 191.348 761.289 190.336 761.289 189.023C761.289 187.703 761 186.684 760.422 185.965C759.852 185.246 759.031 184.887 757.961 184.887ZM777.016 189.738H768.836C768.867 190.848 769.207 191.703 769.855 192.305C770.512 192.906 771.41 193.207 772.551 193.207C773.832 193.207 775.008 192.824 776.078 192.059V194.25C774.984 194.938 773.539 195.281 771.742 195.281C769.977 195.281 768.59 194.738 767.582 193.652C766.582 192.559 766.082 191.023 766.082 189.047C766.082 187.18 766.633 185.66 767.734 184.488C768.844 183.309 770.219 182.719 771.859 182.719C773.5 182.719 774.77 183.246 775.668 184.301C776.566 185.355 777.016 186.82 777.016 188.695V189.738ZM774.391 187.816C774.383 186.84 774.152 186.082 773.699 185.543C773.246 184.996 772.621 184.723 771.824 184.723C771.043 184.723 770.379 185.008 769.832 185.578C769.293 186.148 768.961 186.895 768.836 187.816H774.391ZM799.445 188.203C799.445 192.922 797.211 195.281 792.742 195.281C788.461 195.281 786.32 193.012 786.32 188.473V178.195H789.109V187.898C789.109 191.195 790.391 192.844 792.953 192.844C795.422 192.844 796.656 191.254 796.656 188.074V178.195H799.445V188.203ZM806.254 195H803.383V178.195H806.254V195ZM817.48 177.867L815.582 183.082H813.777L815.078 177.867H817.48ZM813.332 177.867L811.422 183.082H809.629L810.953 177.867H813.332Z" fill="black"/>
<path d="M610.082 231.562H603.801V236.613H609.59V238.969H603.801V246H601.012V229.195H610.082V231.562ZM618.098 246.281C616.246 246.281 614.766 245.723 613.656 244.605C612.555 243.48 612.004 241.992 612.004 240.141C612.004 238.125 612.578 236.551 613.727 235.418C614.883 234.285 616.438 233.719 618.391 233.719C620.266 233.719 621.727 234.27 622.773 235.371C623.82 236.473 624.344 238 624.344 239.953C624.344 241.867 623.777 243.402 622.645 244.559C621.52 245.707 620.004 246.281 618.098 246.281ZM618.227 235.887C617.164 235.887 616.324 236.258 615.707 237C615.09 237.742 614.781 238.766 614.781 240.07C614.781 241.328 615.094 242.32 615.719 243.047C616.344 243.766 617.18 244.125 618.227 244.125C619.297 244.125 620.117 243.77 620.688 243.059C621.266 242.348 621.555 241.336 621.555 240.023C621.555 238.703 621.266 237.684 620.688 236.965C620.117 236.246 619.297 235.887 618.227 235.887ZM637.809 246H635.09V239.238C635.09 236.996 634.297 235.875 632.711 235.875C631.883 235.875 631.199 236.188 630.66 236.812C630.121 237.43 629.852 238.211 629.852 239.156V246H627.121V234H629.852V235.992H629.898C630.797 234.477 632.094 233.719 633.789 233.719C635.094 233.719 636.09 234.145 636.777 234.996C637.465 235.84 637.809 237.062 637.809 238.664V246ZM647.465 245.871C646.934 246.137 646.234 246.27 645.367 246.27C643.039 246.27 641.875 245.152 641.875 242.918V236.133H639.871V234H641.875V231.223L644.594 230.449V234H647.465V236.133H644.594V242.133C644.594 242.844 644.723 243.352 644.98 243.656C645.238 243.961 645.668 244.113 646.27 244.113C646.73 244.113 647.129 243.98 647.465 243.715V245.871ZM654.906 240.445H648.508V238.441H654.906V240.445ZM674.383 234L670.844 246H667.996L665.816 237.867C665.73 237.555 665.676 237.203 665.652 236.812H665.605C665.59 237.078 665.52 237.422 665.395 237.844L663.027 246H660.238L656.711 234H659.523L661.703 242.648C661.773 242.906 661.82 243.25 661.844 243.68H661.926C661.949 243.352 662.012 243 662.113 242.625L664.539 234H667.094L669.25 242.684C669.32 242.957 669.371 243.301 669.402 243.715H669.484C669.5 243.426 669.559 243.082 669.66 242.684L671.793 234H674.383ZM686.453 240.738H678.273C678.305 241.848 678.645 242.703 679.293 243.305C679.949 243.906 680.848 244.207 681.988 244.207C683.27 244.207 684.445 243.824 685.516 243.059V245.25C684.422 245.938 682.977 246.281 681.18 246.281C679.414 246.281 678.027 245.738 677.02 244.652C676.02 243.559 675.52 242.023 675.52 240.047C675.52 238.18 676.07 236.66 677.172 235.488C678.281 234.309 679.656 233.719 681.297 233.719C682.938 233.719 684.207 234.246 685.105 235.301C686.004 236.355 686.453 237.82 686.453 239.695V240.738ZM683.828 238.816C683.82 237.84 683.59 237.082 683.137 236.543C682.684 235.996 682.059 235.723 681.262 235.723C680.48 235.723 679.816 236.008 679.27 236.578C678.73 237.148 678.398 237.895 678.273 238.816H683.828ZM690.414 231.48C689.969 231.48 689.586 231.336 689.266 231.047C688.953 230.758 688.797 230.391 688.797 229.945C688.797 229.5 688.953 229.129 689.266 228.832C689.586 228.535 689.969 228.387 690.414 228.387C690.875 228.387 691.266 228.535 691.586 228.832C691.906 229.129 692.066 229.5 692.066 229.945C692.066 230.367 691.906 230.73 691.586 231.035C691.266 231.332 690.875 231.48 690.414 231.48ZM691.762 246H689.043V234H691.762V246ZM706.246 245.039C706.246 249.445 704.031 251.648 699.602 251.648C698.039 251.648 696.676 251.387 695.512 250.863V248.379C696.824 249.129 698.07 249.504 699.25 249.504C702.102 249.504 703.527 248.102 703.527 245.297V243.984H703.48C702.582 245.516 701.23 246.281 699.426 246.281C697.965 246.281 696.785 245.75 695.887 244.688C694.996 243.617 694.551 242.184 694.551 240.387C694.551 238.348 695.031 236.727 695.992 235.523C696.953 234.32 698.273 233.719 699.953 233.719C701.539 233.719 702.715 234.367 703.48 235.664H703.527V234H706.246V245.039ZM703.551 240.504V238.945C703.551 238.102 703.27 237.383 702.707 236.789C702.152 236.188 701.457 235.887 700.621 235.887C699.59 235.887 698.781 236.27 698.195 237.035C697.617 237.793 697.328 238.855 697.328 240.223C697.328 241.402 697.605 242.348 698.16 243.059C698.723 243.762 699.465 244.113 700.387 244.113C701.324 244.113 702.086 243.777 702.672 243.105C703.258 242.426 703.551 241.559 703.551 240.504ZM720.449 246H717.73V239.438C717.73 237.062 716.938 235.875 715.352 235.875C714.555 235.875 713.883 236.219 713.336 236.906C712.789 237.594 712.516 238.473 712.516 239.543V246H709.785V228.234H712.516V235.992H712.562C713.469 234.477 714.766 233.719 716.453 233.719C719.117 233.719 720.449 235.348 720.449 238.605V246ZM730.082 245.871C729.551 246.137 728.852 246.27 727.984 246.27C725.656 246.27 724.492 245.152 724.492 242.918V236.133H722.488V234H724.492V231.223L727.211 230.449V234H730.082V236.133H727.211V242.133C727.211 242.844 727.34 243.352 727.598 243.656C727.855 243.961 728.285 244.113 728.887 244.113C729.348 244.113 729.746 243.98 730.082 243.715V245.871ZM733.551 246.258C733.082 246.258 732.684 246.105 732.355 245.801C732.027 245.488 731.863 245.117 731.863 244.688C731.863 244.25 732.027 243.875 732.355 243.562C732.684 243.25 733.082 243.094 733.551 243.094C734.027 243.094 734.43 243.25 734.758 243.562C735.094 243.875 735.262 244.25 735.262 244.688C735.262 245.117 735.094 245.488 734.758 245.801C734.43 246.105 734.027 246.258 733.551 246.258ZM733.551 236.988C733.082 236.988 732.684 236.836 732.355 236.531C732.027 236.219 731.863 235.848 731.863 235.418C731.863 234.98 732.027 234.605 732.355 234.293C732.684 233.98 733.082 233.824 733.551 233.824C734.027 233.824 734.43 233.98 734.758 234.293C735.094 234.605 735.262 234.98 735.262 235.418C735.262 235.848 735.094 236.219 734.758 236.531C734.43 236.836 734.027 236.988 733.551 236.988ZM744.871 245.613V243C745.973 243.742 747.09 244.113 748.223 244.113C749.363 244.113 750.281 243.824 750.977 243.246C751.672 242.66 752.02 241.883 752.02 240.914C752.02 239.961 751.664 239.219 750.953 238.688C750.25 238.156 749.238 237.891 747.918 237.891C747.465 237.891 746.547 237.938 745.164 238.031L745.762 229.195H754.035V231.516H748.023L747.742 235.723C748.281 235.691 748.77 235.676 749.207 235.676C750.988 235.676 752.363 236.133 753.332 237.047C754.309 237.961 754.797 239.211 754.797 240.797C754.797 242.461 754.238 243.797 753.121 244.805C752.012 245.805 750.484 246.305 748.539 246.305C746.898 246.305 745.676 246.074 744.871 245.613ZM762.871 246.281C761.121 246.281 759.754 245.566 758.77 244.137C757.793 242.707 757.305 240.641 757.305 237.938C757.305 234.969 757.816 232.723 758.84 231.199C759.863 229.676 761.34 228.914 763.27 228.914C766.965 228.914 768.812 231.785 768.812 237.527C768.812 240.371 768.289 242.543 767.242 244.043C766.203 245.535 764.746 246.281 762.871 246.281ZM763.141 231.082C761.102 231.082 760.082 233.328 760.082 237.82C760.082 242.023 761.082 244.125 763.082 244.125C765.051 244.125 766.035 241.988 766.035 237.715C766.035 233.293 765.07 231.082 763.141 231.082ZM776.207 246.281C774.457 246.281 773.09 245.566 772.105 244.137C771.129 242.707 770.641 240.641 770.641 237.938C770.641 234.969 771.152 232.723 772.176 231.199C773.199 229.676 774.676 228.914 776.605 228.914C780.301 228.914 782.148 231.785 782.148 237.527C782.148 240.371 781.625 242.543 780.578 244.043C779.539 245.535 778.082 246.281 776.207 246.281ZM776.477 231.082C774.438 231.082 773.418 233.328 773.418 237.82C773.418 242.023 774.418 244.125 776.418 244.125C778.387 244.125 779.371 241.988 779.371 237.715C779.371 233.293 778.406 231.082 776.477 231.082Z" fill="black"/>
</svg>
